<svg xmlns="http://www.w3.org/2000/svg" width="256" height="384" viewBox="0 0 256 384"><defs><style>.cls-1{fill:#cccccb;}.cls-1,.cls-3{stroke:#666766;stroke-miterlimit:10;stroke-width:2px;}.cls-2{opacity:0.25;}.cls-3{fill:none;}.cls-4{fill:#666766;}.cls-5{fill:#666;}</style></defs><title>dledtk_4x6_c</title><g id="_4x6" data-name="4x6"><g id="Ceiling"><rect id="Limits" class="cls-1" width="256" height="384"/><g id="Grid" class="cls-2"><line id="Horizontal" class="cls-3" x1="256" y1="256" y2="256"/><line id="Horizontal-2" data-name="Horizontal" class="cls-3" x1="256" y1="128" y2="128"/><line id="Vertical" class="cls-3" x1="128" x2="128" y2="384"/></g><g id="Marks"><polygon id="Mark" class="cls-4" points="144 -1 132 -1 132 -2 130 -2 130 -4 129 -4 129 -16 127 -16 127 -4 126 -4 126 -2 124 -2 124 -1 112 -1 112 1 124 1 124 2 126 2 126 4 127 4 127 16 129 16 129 4 130 4 130 2 132 2 132 1 144 1 144 -1"/><polygon id="Mark-2" data-name="Mark" class="cls-4" points="16 127 4 127 4 126 2 126 2 124 1 124 1 112 -1 112 -1 124 -2 124 -2 126 -4 126 -4 127 -16 127 -16 129 -4 129 -4 130 -2 130 -2 132 -1 132 -1 144 1 144 1 132 2 132 2 130 4 130 4 129 16 129 16 127"/><polygon id="Mark-3" data-name="Mark" class="cls-4" points="144 127 132 127 132 126 130 126 130 124 129 124 129 112 127 112 127 124 126 124 126 126 124 126 124 127 112 127 112 129 124 129 124 130 126 130 126 132 127 132 127 144 129 144 129 132 130 132 130 130 132 130 132 129 144 129 144 127"/><polygon id="Mark-4" data-name="Mark" class="cls-4" points="272 127 260 127 260 126 258 126 258 124 257 124 257 112 255 112 255 124 254 124 254 126 252 126 252 127 240 127 240 129 252 129 252 130 254 130 254 132 255 132 255 144 257 144 257 132 258 132 258 130 260 130 260 129 272 129 272 127"/><polygon id="Mark-5" data-name="Mark" class="cls-4" points="16 255 4 255 4 254 2 254 2 252 1 252 1 240 -1 240 -1 252 -2 252 -2 254 -4 254 -4 255 -16 255 -16 257 -4 257 -4 258 -2 258 -2 260 -1 260 -1 272 1 272 1 260 2 260 2 258 4 258 4 257 16 257 16 255"/><polygon id="Mark-6" data-name="Mark" class="cls-4" points="144 255 132 255 132 254 130 254 130 252 129 252 129 240 127 240 127 252 126 252 126 254 124 254 124 255 112 255 112 257 124 257 124 258 126 258 126 260 127 260 127 272 129 272 129 260 130 260 130 258 132 258 132 257 144 257 144 255"/><polygon id="Mark-7" data-name="Mark" class="cls-4" points="272 255 260 255 260 254 258 254 258 252 257 252 257 240 255 240 255 252 254 252 254 254 252 254 252 255 240 255 240 257 252 257 252 258 254 258 254 260 255 260 255 272 257 272 257 260 258 260 258 258 260 258 260 257 272 257 272 255"/><polygon id="Mark-8" data-name="Mark" class="cls-4" points="144 383 132 383 132 382 130 382 130 380 129 380 129 368 127 368 127 380 126 380 126 382 124 382 124 383 112 383 112 385 124 385 124 386 126 386 126 388 127 388 127 400 129 400 129 388 130 388 130 386 132 386 132 385 144 385 144 383"/></g><g id="Size"><path class="cls-5" d="M66.73,73.53H62.11V81H56.75V73.53H41.09V69.29L56.75,46.65h5.36V69h4.62ZM56.75,69v-8.6c0-3.06.07-5.57.23-7.52h-.19a25.68,25.68,0,0,1-2.06,3.75L46.22,69Z"/><path class="cls-5" d="M69.13,79.54a1.81,1.81,0,0,1,.45-1.31,1.73,1.73,0,0,1,1.29-.45,1.69,1.69,0,0,1,1.3.47,2.14,2.14,0,0,1,0,2.61,2,2,0,0,1-2.58,0A1.86,1.86,0,0,1,69.13,79.54Z"/><path class="cls-5" d="M75.27,73.71q0-10,8.19-10.06a10.31,10.31,0,0,1,2.18.2v2.3a7.48,7.48,0,0,0-2.06-.26,5.37,5.37,0,0,0-4.13,1.48A7.07,7.07,0,0,0,78,72.1h.14a3.76,3.76,0,0,1,1.54-1.47A5.12,5.12,0,0,1,82,70.11a4.68,4.68,0,0,1,3.63,1.43,5.53,5.53,0,0,1,1.3,3.88,5.85,5.85,0,0,1-1.51,4.26,5.43,5.43,0,0,1-4.1,1.56,5.71,5.71,0,0,1-3.2-.88A5.57,5.57,0,0,1,76,77.78,10.17,10.17,0,0,1,75.27,73.71Zm6,5.26a2.7,2.7,0,0,0,2.19-.91,4,4,0,0,0,.76-2.62,3.48,3.48,0,0,0-.72-2.32,2.69,2.69,0,0,0-2.16-.84,3.63,3.63,0,0,0-1.64.38,3,3,0,0,0-1.18,1,2.46,2.46,0,0,0-.44,1.36,4.32,4.32,0,0,0,.9,2.78A2.81,2.81,0,0,0,81.25,79Z"/></g><g id="Type"><path class="cls-4" d="M155.53,57.6a4.62,4.62,0,0,0-3.8,1.71A7.31,7.31,0,0,0,150.35,64a7.35,7.35,0,0,0,1.33,4.77,4.69,4.69,0,0,0,3.85,1.62,10.31,10.31,0,0,0,2.1-.22c.68-.15,1.39-.33,2.13-.56V72a12.84,12.84,0,0,1-4.57.77,7.3,7.3,0,0,1-5.78-2.28c-1.35-1.52-2-3.7-2-6.52a10.58,10.58,0,0,1,1-4.68,7,7,0,0,1,2.83-3.07,8.58,8.58,0,0,1,4.35-1.07,10.83,10.83,0,0,1,4.85,1.1l-1,2.34a13.39,13.39,0,0,0-1.83-.72A6.53,6.53,0,0,0,155.53,57.6Z"/><path class="cls-4" d="M173.14,72.57h-9.69V55.44h9.69v2.37h-6.89v4.66h6.46v2.34h-6.46v5.38h6.89Z"/><path class="cls-4" d="M176.84,72.57V55.44h2.8V72.57Z"/><path class="cls-4" d="M184.17,72.57V55.44H187V70.17h7.25v2.4Z"/><path class="cls-4" d="M197.17,72.57V55.44H200V72.57Z"/><path class="cls-4" d="M218.77,72.57h-3.43l-8.43-13.65h-.09l.06.76c.11,1.45.16,2.78.16,4v8.9H204.5V55.44h3.4L216.3,69h.07c0-.18-.05-.83-.09-2s-.07-2-.07-2.64v-9h2.56Z"/><path class="cls-4" d="M230.3,63.28h6.31v8.6a17.75,17.75,0,0,1-3,.72,21.2,21.2,0,0,1-3.08.21,7.72,7.72,0,0,1-6-2.31A9.24,9.24,0,0,1,222.45,64a8.66,8.66,0,0,1,2.38-6.48,8.94,8.94,0,0,1,6.55-2.34,12.9,12.9,0,0,1,5.09,1l-1,2.34a9.9,9.9,0,0,0-4.17-1A5.63,5.63,0,0,0,227,59.32,6.68,6.68,0,0,0,225.38,64a7,7,0,0,0,1.44,4.77A5.19,5.19,0,0,0,231,70.44a13.34,13.34,0,0,0,2.9-.34V65.68H230.3Z"/></g></g></g></svg>