<svg xmlns="http://www.w3.org/2000/svg" width="128" height="384" viewBox="0 0 128 384"><defs><style>.cls-1{fill:#f80;}.cls-1,.cls-3{stroke:#fff;stroke-miterlimit:10;stroke-width:2px;}.cls-2{opacity:0.25;}.cls-3{fill:none;}.cls-4{fill:#fff;}</style></defs><title>dledtk_2x6_w</title><g id="_2x6" data-name="2x6"><g id="Wall"><rect id="Limits" class="cls-1" width="128" height="384"/><g id="Grid" class="cls-2"><line id="Horizontal" class="cls-3" x1="128" y1="256" y2="256"/><line id="Horizontal-2" data-name="Horizontal" class="cls-3" x1="128" y1="128" y2="128"/></g><g id="Marks"><polygon id="Mark" class="cls-4" points="16 127 4 127 4 126 2 126 2 124 1 124 1 112 -1 112 -1 124 -2 124 -2 126 -4 126 -4 127 -16 127 -16 129 -4 129 -4 130 -2 130 -2 132 -1 132 -1 144 1 144 1 132 2 132 2 130 4 130 4 129 16 129 16 127"/><polygon id="Mark-2" data-name="Mark" class="cls-4" points="144 127 132 127 132 126 130 126 130 124 129 124 129 112 127 112 127 124 126 124 126 126 124 126 124 127 112 127 112 129 124 129 124 130 126 130 126 132 127 132 127 144 129 144 129 132 130 132 130 130 132 130 132 129 144 129 144 127"/><polygon id="Mark-3" data-name="Mark" class="cls-4" points="16 255 4 255 4 254 2 254 2 252 1 252 1 240 -1 240 -1 252 -2 252 -2 254 -4 254 -4 255 -16 255 -16 257 -4 257 -4 258 -2 258 -2 260 -1 260 -1 272 1 272 1 260 2 260 2 258 4 258 4 257 16 257 16 255"/><polygon id="Mark-4" data-name="Mark" class="cls-4" points="144 255 132 255 132 254 130 254 130 252 129 252 129 240 127 240 127 252 126 252 126 254 124 254 124 255 112 255 112 257 124 257 124 258 126 258 126 260 127 260 127 272 129 272 129 260 130 260 130 258 132 258 132 257 144 257 144 255"/></g><g id="Size"><path class="cls-4" d="M64.91,81.21H41.69V77l8.83-8.89a73.8,73.8,0,0,0,5.19-5.68,13.44,13.44,0,0,0,1.87-3.15,8.54,8.54,0,0,0,.58-3.17,4.82,4.82,0,0,0-1.39-3.65,5.36,5.36,0,0,0-3.86-1.34,10.11,10.11,0,0,0-3.8.73,17.79,17.79,0,0,0-4.26,2.62l-3-3.63a19,19,0,0,1,5.55-3.42,16.31,16.31,0,0,1,5.74-1A11.3,11.3,0,0,1,60.84,49a8.42,8.42,0,0,1,2.88,6.71,11.88,11.88,0,0,1-.83,4.41,18.14,18.14,0,0,1-2.56,4.3,58.83,58.83,0,0,1-5.73,6l-6,5.76v.24H64.91Z"/><path class="cls-4" d="M68.54,79.74A1.79,1.79,0,0,1,69,78.43,1.75,1.75,0,0,1,70.27,78a1.69,1.69,0,0,1,1.3.48,2.1,2.1,0,0,1,0,2.61,1.65,1.65,0,0,1-1.29.49A1.68,1.68,0,0,1,69,81.07,1.86,1.86,0,0,1,68.54,79.74Z"/><path class="cls-4" d="M74.68,73.91q0-10.05,8.19-10.06a10.38,10.38,0,0,1,2.18.2v2.3A7.55,7.55,0,0,0,83,66.09a5.37,5.37,0,0,0-4.13,1.48,7.17,7.17,0,0,0-1.5,4.73h.14A3.79,3.79,0,0,1,79,70.83a4.93,4.93,0,0,1,2.34-.52A4.68,4.68,0,0,1,85,71.74a5.53,5.53,0,0,1,1.3,3.88,5.89,5.89,0,0,1-1.5,4.26,5.46,5.46,0,0,1-4.11,1.56,5.73,5.73,0,0,1-3.2-.88A5.63,5.63,0,0,1,75.41,78,10.21,10.21,0,0,1,74.68,73.91Zm6,5.26a2.69,2.69,0,0,0,2.19-.91,4,4,0,0,0,.77-2.62,3.41,3.41,0,0,0-.73-2.32,2.69,2.69,0,0,0-2.16-.84,3.63,3.63,0,0,0-1.64.38,3,3,0,0,0-1.18,1,2.44,2.44,0,0,0-.44,1.36,4.32,4.32,0,0,0,.9,2.78A2.81,2.81,0,0,0,80.65,79.17Z"/></g><g id="Type"><path class="cls-4" d="M50.05,328.6H47L44.1,318.38c-.12-.44-.28-1.09-.47-1.92s-.3-1.43-.34-1.76c-.08.5-.2,1.15-.38,1.95s-.32,1.39-.44,1.78L39.64,328.6h-3L34.38,320l-2.25-8.55H35l2.45,10a39.93,39.93,0,0,1,.82,4.25c.09-.67.22-1.41.39-2.23s.33-1.49.47-2l2.79-10h2.78l2.86,10a37.45,37.45,0,0,1,.86,4.18,30.53,30.53,0,0,1,.85-4.27l2.43-10h2.84Z"/><path class="cls-4" d="M67.57,328.6l-1.71-4.76H59.31l-1.67,4.76h-3l6.41-17.2h3l6.41,17.2Zm-2.44-7.17-1.61-4.66c-.12-.32-.28-.81-.49-1.48s-.35-1.16-.42-1.48a27.35,27.35,0,0,1-.93,3.15l-1.55,4.47Z"/><path class="cls-4" d="M72.81,328.6V311.47h2.8V326.2h7.26v2.4Z"/><path class="cls-4" d="M85.82,328.6V311.47h2.8V326.2h7.26v2.4Z"/></g></g></g></svg>