<svg xmlns="http://www.w3.org/2000/svg" width="128" height="512" viewBox="0 0 128 512"><defs><style>.cls-1{fill:#cccccb;}.cls-1,.cls-3{stroke:#666766;stroke-miterlimit:10;stroke-width:2px;}.cls-2{opacity:0.25;}.cls-3{fill:none;}.cls-4{fill:#666766;}.cls-5{fill:#666;}</style></defs><title>dledtk_2x8_c</title><g id="_2x8" data-name="2x8"><g id="Ceiling"><rect id="Limits" class="cls-1" width="128" height="512"/><g id="Grid" class="cls-2"><line id="Horizontal" class="cls-3" x1="128" y1="384" y2="384"/><line id="Horizontal-2" data-name="Horizontal" class="cls-3" x1="128" y1="256" y2="256"/><line id="Horizontal-3" data-name="Horizontal" class="cls-3" x1="128" y1="128" y2="128"/></g><g id="Marks"><polygon id="Mark" class="cls-4" points="16 127 4 127 4 126 2 126 2 124 1 124 1 112 -1 112 -1 124 -2 124 -2 126 -4 126 -4 127 -16 127 -16 129 -4 129 -4 130 -2 130 -2 132 -1 132 -1 144 1 144 1 132 2 132 2 130 4 130 4 129 16 129 16 127"/><polygon id="Mark-2" data-name="Mark" class="cls-4" points="144 127 132 127 132 126 130 126 130 124 129 124 129 112 127 112 127 124 126 124 126 126 124 126 124 127 112 127 112 129 124 129 124 130 126 130 126 132 127 132 127 144 129 144 129 132 130 132 130 130 132 130 132 129 144 129 144 127"/><polygon id="Mark-3" data-name="Mark" class="cls-4" points="16 255 4 255 4 254 2 254 2 252 1 252 1 240 -1 240 -1 252 -2 252 -2 254 -4 254 -4 255 -16 255 -16 257 -4 257 -4 258 -2 258 -2 260 -1 260 -1 272 1 272 1 260 2 260 2 258 4 258 4 257 16 257 16 255"/><polygon id="Mark-4" data-name="Mark" class="cls-4" points="144 255 132 255 132 254 130 254 130 252 129 252 129 240 127 240 127 252 126 252 126 254 124 254 124 255 112 255 112 257 124 257 124 258 126 258 126 260 127 260 127 272 129 272 129 260 130 260 130 258 132 258 132 257 144 257 144 255"/><polygon id="Mark-5" data-name="Mark" class="cls-4" points="16 383 4 383 4 382 2 382 2 380 1 380 1 368 -1 368 -1 380 -2 380 -2 382 -4 382 -4 383 -16 383 -16 385 -4 385 -4 386 -2 386 -2 388 -1 388 -1 400 1 400 1 388 2 388 2 386 4 386 4 385 16 385 16 383"/><polygon id="Mark-6" data-name="Mark" class="cls-4" points="144 383 132 383 132 382 130 382 130 380 129 380 129 368 127 368 127 380 126 380 126 382 124 382 124 383 112 383 112 385 124 385 124 386 126 386 126 388 127 388 127 400 129 400 129 388 130 388 130 386 132 386 132 385 144 385 144 383"/></g><g id="Size"><path class="cls-5" d="M65,81.21H41.72V77l8.84-8.89a73.8,73.8,0,0,0,5.19-5.68,13.72,13.72,0,0,0,1.86-3.15,8.55,8.55,0,0,0,.59-3.17,4.82,4.82,0,0,0-1.4-3.65A5.34,5.34,0,0,0,53,51.16a10.2,10.2,0,0,0-3.81.73,17.76,17.76,0,0,0-4.25,2.62l-3-3.63a19.26,19.26,0,0,1,5.55-3.42,16.37,16.37,0,0,1,5.75-1A11.27,11.27,0,0,1,60.87,49a8.42,8.42,0,0,1,2.88,6.71,11.68,11.68,0,0,1-.83,4.41,17.75,17.75,0,0,1-2.55,4.3,58.83,58.83,0,0,1-5.73,6l-6,5.76v.24H65Z"/><path class="cls-5" d="M68.57,79.74A1.8,1.8,0,0,1,69,78.43a2,2,0,0,1,2.59,0,2.14,2.14,0,0,1,0,2.61,2,2,0,0,1-2.58,0A1.86,1.86,0,0,1,68.57,79.74Z"/><path class="cls-5" d="M80.45,63.85A6.11,6.11,0,0,1,84.31,65a3.65,3.65,0,0,1,1.42,3q0,2.63-3.17,4.19a8.14,8.14,0,0,1,2.87,2.12,4.05,4.05,0,0,1,.85,2.49,4.19,4.19,0,0,1-1.56,3.4,6.48,6.48,0,0,1-4.22,1.27,6.92,6.92,0,0,1-4.32-1.19,4,4,0,0,1-1.54-3.39,4.4,4.4,0,0,1,.8-2.57,6.81,6.81,0,0,1,2.63-2,6.7,6.7,0,0,1-2.23-2,4.24,4.24,0,0,1-.67-2.35,3.55,3.55,0,0,1,1.46-3A6.16,6.16,0,0,1,80.45,63.85ZM77.28,76.77a2.27,2.27,0,0,0,.85,1.89,3.66,3.66,0,0,0,2.32.67,3.6,3.6,0,0,0,2.35-.69,2.35,2.35,0,0,0,.84-1.9A2.43,2.43,0,0,0,82.87,75a7.31,7.31,0,0,0-2.35-1.45l-.34-.16A6.1,6.1,0,0,0,78,74.9,2.78,2.78,0,0,0,77.28,76.77ZM80.43,66a3,3,0,0,0-1.89.58,2,2,0,0,0-.71,1.58,2.17,2.17,0,0,0,.26,1.09,2.77,2.77,0,0,0,.75.87,8.37,8.37,0,0,0,1.66,1,5.59,5.59,0,0,0,2-1.31,2.44,2.44,0,0,0,.58-1.6,1.93,1.93,0,0,0-.72-1.58A3,3,0,0,0,80.43,66Z"/></g><g id="Type"><path class="cls-4" d="M27.53,441.6a4.62,4.62,0,0,0-3.8,1.71,9,9,0,0,0-.05,9.49,4.69,4.69,0,0,0,3.85,1.62,10.31,10.31,0,0,0,2.1-.22c.68-.15,1.39-.33,2.13-.56V456a12.84,12.84,0,0,1-4.57.77,7.3,7.3,0,0,1-5.78-2.28c-1.35-1.52-2-3.7-2-6.52a10.58,10.58,0,0,1,1-4.68,7,7,0,0,1,2.83-3.07,8.58,8.58,0,0,1,4.35-1.07,10.83,10.83,0,0,1,4.85,1.1l-1,2.34a13.39,13.39,0,0,0-1.83-.72A6.53,6.53,0,0,0,27.53,441.6Z"/><path class="cls-4" d="M45.14,456.57H35.45V439.44h9.69v2.37H38.25v4.66h6.46v2.34H38.25v5.38h6.89Z"/><path class="cls-4" d="M48.84,456.57V439.44h2.8v17.13Z"/><path class="cls-4" d="M56.17,456.57V439.44H59v14.73h7.25v2.4Z"/><path class="cls-4" d="M69.17,456.57V439.44H72v17.13Z"/><path class="cls-4" d="M90.77,456.57H87.34l-8.43-13.65h-.09l.06.76c.11,1.45.16,2.78.16,4v8.9H76.5V439.44h3.4L88.3,453h.07c0-.18-.05-.83-.09-2s-.07-2-.07-2.64v-9h2.56Z"/><path class="cls-4" d="M102.3,447.28h6.31v8.6a17.75,17.75,0,0,1-3,.72,21.2,21.2,0,0,1-3.08.21,7.72,7.72,0,0,1-6-2.31A9.24,9.24,0,0,1,94.45,448a8.66,8.66,0,0,1,2.38-6.48,8.94,8.94,0,0,1,6.55-2.34,12.9,12.9,0,0,1,5.09,1l-1,2.34a9.9,9.9,0,0,0-4.17-1A5.63,5.63,0,0,0,99,443.32,6.68,6.68,0,0,0,97.38,448a7,7,0,0,0,1.44,4.77,5.19,5.19,0,0,0,4.13,1.64,13.34,13.34,0,0,0,2.9-.34v-4.42H102.3Z"/></g></g></g></svg>