<svg xmlns="http://www.w3.org/2000/svg" width="128" height="128" viewBox="0 0 128 128"><defs><style>.cls-1{fill:#f80;stroke:#fff;stroke-miterlimit:10;stroke-width:2px;}.cls-2{fill:#fff;}</style></defs><title>dledtk_2x2_w</title><g id="_2x2" data-name="2x2"><g id="Wall"><rect id="Limits" class="cls-1" width="128" height="128"/><g id="Size"><path class="cls-2" d="M65,49.21H41.72V45l8.84-8.89a73.8,73.8,0,0,0,5.19-5.68,13.72,13.72,0,0,0,1.86-3.15,8.55,8.55,0,0,0,.59-3.17,4.82,4.82,0,0,0-1.4-3.65A5.34,5.34,0,0,0,53,19.16a10.2,10.2,0,0,0-3.81.73,17.76,17.76,0,0,0-4.25,2.62l-3-3.63a19.26,19.26,0,0,1,5.55-3.42,16.37,16.37,0,0,1,5.75-1A11.27,11.27,0,0,1,60.87,17a8.42,8.42,0,0,1,2.88,6.71,11.68,11.68,0,0,1-.83,4.41,17.75,17.75,0,0,1-2.55,4.3,58.83,58.83,0,0,1-5.73,6l-6,5.76v.24H65Z"/><path class="cls-2" d="M68.57,47.74A1.8,1.8,0,0,1,69,46.43a2,2,0,0,1,2.59,0,2.14,2.14,0,0,1,0,2.61,2,2,0,0,1-2.58,0A1.86,1.86,0,0,1,68.57,47.74Z"/><path class="cls-2" d="M86.28,49.21H74.66V47.12l4.42-4.44a36.34,36.34,0,0,0,2.6-2.84,7,7,0,0,0,.93-1.58,4.35,4.35,0,0,0,.29-1.58,2.44,2.44,0,0,0-.69-1.83,2.71,2.71,0,0,0-1.93-.66,5.22,5.22,0,0,0-1.91.36,8.86,8.86,0,0,0-2.12,1.31L74.76,34a9.74,9.74,0,0,1,2.78-1.71,8.21,8.21,0,0,1,2.87-.5,5.66,5.66,0,0,1,3.83,1.25,4.21,4.21,0,0,1,1.44,3.36,5.86,5.86,0,0,1-.42,2.2A8.94,8.94,0,0,1,84,40.79a28.61,28.61,0,0,1-2.87,3l-3,2.89v.11h8.14Z"/></g><g id="Type"><path class="cls-2" d="M50.05,104.6H47L44.1,94.38c-.12-.44-.28-1.09-.47-1.92s-.3-1.43-.34-1.76c-.08.5-.2,1.15-.38,2s-.32,1.39-.44,1.78L39.64,104.6h-3L34.38,96l-2.25-8.55H35l2.45,10a39.93,39.93,0,0,1,.82,4.25c.09-.67.22-1.41.39-2.23s.33-1.49.47-2l2.79-10h2.78l2.86,10a37.45,37.45,0,0,1,.86,4.18,30.53,30.53,0,0,1,.85-4.27l2.43-10h2.84Z"/><path class="cls-2" d="M67.57,104.6l-1.71-4.76H59.31l-1.67,4.76h-3l6.41-17.2h3l6.41,17.2Zm-2.44-7.17-1.61-4.66c-.12-.32-.28-.81-.49-1.48s-.35-1.16-.42-1.48A27.35,27.35,0,0,1,61.68,93l-1.55,4.47Z"/><path class="cls-2" d="M72.81,104.6V87.47h2.8V102.2h7.26v2.4Z"/><path class="cls-2" d="M85.82,104.6V87.47h2.8V102.2h7.26v2.4Z"/></g></g></g></svg>