<svg xmlns="http://www.w3.org/2000/svg" width="64" height="128" viewBox="0 0 64 128"><defs><style>.cls-1{fill:#f80;stroke:#fff;stroke-miterlimit:10;stroke-width:2px;}.cls-2{fill:#fff;}</style></defs><title>dledtk_1x2_w</title><g id="_1x2" data-name="1x2"><g id="Wall"><rect id="Limits" class="cls-1" width="64" height="128"/><path class="cls-2" d="M36.13,104.4H33.08l-2.9-10.22c-.13-.45-.28-1.09-.47-1.93s-.3-1.42-.34-1.75c-.08.5-.21,1.15-.38,1.94s-.32,1.39-.44,1.78L25.71,104.4h-3l-2.22-8.58L18.2,87.26h2.86l2.45,10a42.47,42.47,0,0,1,.82,4.24c.09-.66.21-1.41.39-2.23s.32-1.48.47-2l2.78-10h2.78l2.86,10.06a39.65,39.65,0,0,1,.87,4.17,31.79,31.79,0,0,1,.84-4.27l2.44-10H40.6Z"/><path class="cls-2" d="M42.32,102.93a1.82,1.82,0,0,1,.44-1.31,1.71,1.71,0,0,1,1.29-.46,1.68,1.68,0,0,1,1.3.48,1.78,1.78,0,0,1,.45,1.29,1.85,1.85,0,0,1-.45,1.32,2,2,0,0,1-2.59,0A1.92,1.92,0,0,1,42.32,102.93Z"/><path class="cls-2" d="M25.14,49h-5.5V26.84c0-2.64.06-4.74.18-6.28-.36.37-.8.79-1.32,1.24s-2.28,1.89-5.26,4.31l-2.77-3.49L20.55,14.7h4.59Z"/><path class="cls-2" d="M35.82,47.5a1.78,1.78,0,0,1,.45-1.31,1.67,1.67,0,0,1,1.28-.46,1.75,1.75,0,0,1,1.31.47,1.86,1.86,0,0,1,.44,1.3,1.89,1.89,0,0,1-.45,1.32,1.69,1.69,0,0,1-1.3.48,1.64,1.64,0,0,1-1.28-.48A1.85,1.85,0,0,1,35.82,47.5Z"/><path class="cls-2" d="M53.53,49H41.91V46.88l4.42-4.44a37.84,37.84,0,0,0,2.6-2.85A7,7,0,0,0,49.86,38a4.35,4.35,0,0,0,.29-1.58,2.41,2.41,0,0,0-.69-1.83,2.67,2.67,0,0,0-1.93-.67,5.22,5.22,0,0,0-1.91.36,8.63,8.63,0,0,0-2.12,1.32L42,33.8a9.31,9.31,0,0,1,2.78-1.71,8,8,0,0,1,2.87-.51,5.66,5.66,0,0,1,3.83,1.25,4.21,4.21,0,0,1,1.44,3.36,5.82,5.82,0,0,1-.42,2.2,8.75,8.75,0,0,1-1.27,2.15,29.52,29.52,0,0,1-2.87,3l-3,2.88v.12h8.14Z"/></g></g></svg>