<svg xmlns="http://www.w3.org/2000/svg" width="384" height="384" viewBox="0 0 384 384"><defs><style>.cls-1{fill:#f1582b;stroke:#fffeff;}.cls-1,.cls-3{stroke-miterlimit:10;stroke-width:2px;}.cls-2{opacity:0.25;}.cls-3{fill:none;stroke:#fff;}.cls-4{fill:#fff;}</style></defs><title>dledtk_6x6_cr</title><g id="_6x6" data-name="6x6"><g id="Crate"><rect id="Limits" class="cls-1" width="384" height="384"/><g id="Grid" class="cls-2"><line id="Diagonal" class="cls-3" x2="384" y2="384"/><line id="Diagonal-2" data-name="Diagonal" class="cls-3" x1="384" y2="384"/></g><g id="Size"><path class="cls-4" d="M41.73,66.52q0-20.11,16.39-20.11a20,20,0,0,1,4.36.4V51.4a15.1,15.1,0,0,0-4.13-.51q-5.51,0-8.27,3t-3,9.47h.28a7.43,7.43,0,0,1,3.09-2.94,9.92,9.92,0,0,1,4.69-1,9.36,9.36,0,0,1,7.27,2.86A11.13,11.13,0,0,1,65,69.94c0,3.6-1,6.44-3,8.52a10.87,10.87,0,0,1-8.22,3.13,11.49,11.49,0,0,1-6.4-1.77,11.33,11.33,0,0,1-4.18-5.16A20.35,20.35,0,0,1,41.73,66.52ZM53.69,77a5.38,5.38,0,0,0,4.37-1.83A7.91,7.91,0,0,0,59.59,70a6.91,6.91,0,0,0-1.44-4.64,5.35,5.35,0,0,0-4.32-1.69,7.1,7.1,0,0,0-3.28.76,6.1,6.1,0,0,0-2.37,2.09,4.85,4.85,0,0,0-.87,2.7,8.66,8.66,0,0,0,1.8,5.57A5.58,5.58,0,0,0,53.69,77Z"/><path class="cls-4" d="M68.49,79.66a1.86,1.86,0,0,1,.44-1.32,1.75,1.75,0,0,1,1.29-.45,1.67,1.67,0,0,1,1.3.47,1.82,1.82,0,0,1,.45,1.3A1.84,1.84,0,0,1,71.52,81a1.66,1.66,0,0,1-1.3.49A1.68,1.68,0,0,1,68.93,81,1.9,1.9,0,0,1,68.49,79.66Z"/><path class="cls-4" d="M74.63,73.82q0-10,8.19-10A10.38,10.38,0,0,1,85,64v2.3A7.48,7.48,0,0,0,82.94,66a5.42,5.42,0,0,0-4.14,1.48,7.17,7.17,0,0,0-1.5,4.73h.14A3.79,3.79,0,0,1,79,70.74a5,5,0,0,1,2.34-.52A4.65,4.65,0,0,1,85,71.65a5.56,5.56,0,0,1,1.31,3.88,5.89,5.89,0,0,1-1.51,4.26,5.44,5.44,0,0,1-4.11,1.57,5.76,5.76,0,0,1-3.2-.89,5.7,5.7,0,0,1-2.09-2.58A10.18,10.18,0,0,1,74.63,73.82Zm6,5.26a2.68,2.68,0,0,0,2.18-.91,4,4,0,0,0,.77-2.62,3.48,3.48,0,0,0-.72-2.32,2.69,2.69,0,0,0-2.16-.84,3.6,3.6,0,0,0-1.64.38,3.09,3.09,0,0,0-1.19,1,2.47,2.47,0,0,0-.43,1.36A4.37,4.37,0,0,0,78.31,78,2.8,2.8,0,0,0,80.61,79.08Z"/></g><g id="Type"><path class="cls-4" d="M292.87,57.6a4.62,4.62,0,0,0-3.8,1.71A7.31,7.31,0,0,0,287.69,64,7.35,7.35,0,0,0,289,68.8a4.69,4.69,0,0,0,3.85,1.62,10.39,10.39,0,0,0,2.1-.22c.68-.15,1.39-.33,2.13-.56V72a12.84,12.84,0,0,1-4.57.77,7.3,7.3,0,0,1-5.78-2.28c-1.35-1.52-2-3.7-2-6.52a10.58,10.58,0,0,1,1-4.68,7,7,0,0,1,2.83-3.07,8.58,8.58,0,0,1,4.35-1.07,10.83,10.83,0,0,1,4.85,1.1l-1,2.34a13.39,13.39,0,0,0-1.83-.72A6.53,6.53,0,0,0,292.87,57.6Z"/><path class="cls-4" d="M303.59,65.73v6.84h-2.8V55.44h4.84a8,8,0,0,1,4.91,1.24,4.47,4.47,0,0,1,1.59,3.75q0,3.2-3.33,4.56l4.84,7.58h-3.18l-4.11-6.84Zm0-2.32h1.94a4.42,4.42,0,0,0,2.84-.73,2.61,2.61,0,0,0,.88-2.15,2.33,2.33,0,0,0-.95-2.09,5.23,5.23,0,0,0-2.86-.63h-1.85Z"/><path class="cls-4" d="M326.76,72.57,325,67.81h-6.55l-1.67,4.76h-2.95l6.41-17.2h3l6.41,17.2Zm-2.45-7.17-1.61-4.66c-.12-.32-.28-.81-.49-1.48s-.34-1.16-.42-1.48a26.12,26.12,0,0,1-.93,3.16l-1.55,4.46Z"/><path class="cls-4" d="M337.91,72.57h-2.8V57.84h-5v-2.4H343v2.4h-5Z"/><path class="cls-4" d="M355.27,72.57h-9.69V55.44h9.69v2.37h-6.89v4.66h6.45v2.34h-6.45v5.38h6.89Z"/></g></g></g></svg>