<svg xmlns="http://www.w3.org/2000/svg" width="512" height="512" viewBox="0 0 512 512"><defs><style>.cls-1{fill:#f80;stroke:#fffeff;stroke-miterlimit:10;stroke-width:2px;}.cls-2{fill:#fff;}</style></defs><title>dledtk_8x8_ph</title><g id="_8x8" data-name="8x8"><g id="Hexadecagon"><polygon id="Limits" class="cls-1" points="158.03 19.49 74.98 74.98 19.49 158.03 0 256 19.49 353.97 74.98 437.02 158.03 492.51 256 512 353.97 492.51 437.02 437.02 492.51 353.97 512 256 492.51 158.03 437.02 74.98 353.97 19.49 256 0 158.03 19.49"/><g id="Size"><path class="cls-2" d="M245.32,46.41A12.18,12.18,0,0,1,253,48.65a7.24,7.24,0,0,1,2.83,6q0,5.27-6.33,8.39a16.23,16.23,0,0,1,5.73,4.24,7.94,7.94,0,0,1,1.7,5,8.38,8.38,0,0,1-3.11,6.8c-2.08,1.7-4.9,2.55-8.44,2.55q-5.58,0-8.65-2.39a8.07,8.07,0,0,1-3.07-6.77,8.73,8.73,0,0,1,1.6-5.15,13.53,13.53,0,0,1,5.27-4.07,13.19,13.19,0,0,1-4.48-4,8.5,8.5,0,0,1-1.34-4.68,7.06,7.06,0,0,1,2.93-5.94A12.33,12.33,0,0,1,245.32,46.41ZM239,72.24A4.53,4.53,0,0,0,240.68,76a7.3,7.3,0,0,0,4.64,1.35A7.12,7.12,0,0,0,250,76a4.66,4.66,0,0,0,1.68-3.79,4.88,4.88,0,0,0-1.55-3.47,14.63,14.63,0,0,0-4.69-2.9l-.67-.31a12.06,12.06,0,0,0-4.46,3A5.71,5.71,0,0,0,239,72.24Zm6.31-21.59a5.84,5.84,0,0,0-3.78,1.16A3.87,3.87,0,0,0,240.07,55a4.56,4.56,0,0,0,.52,2.18,5.46,5.46,0,0,0,1.5,1.75,18.78,18.78,0,0,0,3.33,1.89,11,11,0,0,0,4-2.62,4.81,4.81,0,0,0,1.16-3.2,3.85,3.85,0,0,0-1.44-3.15A6,6,0,0,0,245.28,50.65Z"/><path class="cls-2" d="M260.59,79.66a1.82,1.82,0,0,1,.45-1.32,1.75,1.75,0,0,1,1.29-.45,1.69,1.69,0,0,1,1.3.47,1.81,1.81,0,0,1,.44,1.3,1.84,1.84,0,0,1-.45,1.31,1.65,1.65,0,0,1-1.29.49A1.68,1.68,0,0,1,261,81,1.85,1.85,0,0,1,260.59,79.66Z"/><path class="cls-2" d="M272.48,63.77a6.08,6.08,0,0,1,3.85,1.11,3.62,3.62,0,0,1,1.42,3q0,2.64-3.16,4.19a8.19,8.19,0,0,1,2.86,2.13,4,4,0,0,1,.85,2.48,4.18,4.18,0,0,1-1.56,3.4,6.46,6.46,0,0,1-4.22,1.28,6.85,6.85,0,0,1-4.32-1.2,4.07,4.07,0,0,1-1.54-3.39,4.34,4.34,0,0,1,.81-2.57,6.66,6.66,0,0,1,2.63-2,6.65,6.65,0,0,1-2.24-2,4.24,4.24,0,0,1-.67-2.35,3.53,3.53,0,0,1,1.47-3A6.14,6.14,0,0,1,272.48,63.77ZM269.3,76.68a2.27,2.27,0,0,0,.86,1.89,4.3,4.3,0,0,0,4.67,0,2.36,2.36,0,0,0,.83-1.89,2.41,2.41,0,0,0-.77-1.74,7.25,7.25,0,0,0-2.34-1.45l-.34-.15A6,6,0,0,0,270,74.81,2.85,2.85,0,0,0,269.3,76.68Zm3.15-10.79a2.85,2.85,0,0,0-1.88.58,1.9,1.9,0,0,0-.72,1.57,2.28,2.28,0,0,0,.26,1.09,2.91,2.91,0,0,0,.75.88,9.36,9.36,0,0,0,1.66.94,5.46,5.46,0,0,0,2-1.31,2.37,2.37,0,0,0,.58-1.6,1.9,1.9,0,0,0-.72-1.57A3,3,0,0,0,272.45,65.89Z"/></g><g id="Type"><path class="cls-2" d="M182.07,456.58h-2.82v-7.72h-7.89v7.72h-2.81V439.45h2.81v7h7.89v-7h2.82Z"/><path class="cls-2" d="M196.27,456.58h-9.69V439.45h9.69v2.37h-6.89v4.66h6.46v2.35h-6.46v5.38h6.89Z"/><path class="cls-2" d="M212.59,456.58h-3.22l-4.29-7-4.32,7h-3l5.68-8.88-5.32-8.25h3.12l4,6.48,4-6.48h3l-5.35,8.3Z"/><path class="cls-2" d="M225.53,456.58l-1.71-4.75h-6.55l-1.68,4.75h-3l6.41-17.2h3l6.41,17.2Zm-2.45-7.17-1.6-4.66c-.12-.31-.28-.81-.49-1.48s-.35-1.16-.43-1.48a26.72,26.72,0,0,1-.92,3.16l-1.55,4.46Z"/><path class="cls-2" d="M244.7,447.85q0,4.25-2.35,6.49c-1.57,1.5-3.83,2.24-6.79,2.24h-4.79V439.45h5.3a8.81,8.81,0,0,1,6.36,2.2A8.22,8.22,0,0,1,244.7,447.85Zm-2.95.1c0-4.1-1.92-6.16-5.75-6.16h-2.43v12.44h2Q241.76,454.23,241.75,448Z"/><path class="cls-2" d="M258.07,456.58h-9.69V439.45h9.69v2.37h-6.89v4.66h6.46v2.35h-6.46v5.38h6.89Z"/><path class="cls-2" d="M269.07,441.61a4.62,4.62,0,0,0-3.8,1.71,9,9,0,0,0,0,9.49,4.69,4.69,0,0,0,3.85,1.62,9.81,9.81,0,0,0,2.11-.22c.68-.14,1.38-.33,2.12-.56v2.41a13.07,13.07,0,0,1-4.57.76,7.3,7.3,0,0,1-5.78-2.28,9.55,9.55,0,0,1-2-6.52,10.61,10.61,0,0,1,1-4.68,7,7,0,0,1,2.83-3.07,8.6,8.6,0,0,1,4.35-1.06,10.69,10.69,0,0,1,4.85,1.1l-1,2.33a15.84,15.84,0,0,0-1.83-.72A6.48,6.48,0,0,0,269.07,441.61Z"/><path class="cls-2" d="M287.62,456.58l-1.71-4.75h-6.55l-1.68,4.75h-2.95l6.41-17.2h3l6.41,17.2Zm-2.45-7.17-1.61-4.66c-.11-.31-.28-.81-.48-1.48s-.35-1.16-.43-1.48a25.1,25.1,0,0,1-.93,3.16l-1.54,4.46Z"/><path class="cls-2" d="M299.86,447.29h6.31v8.6a17.75,17.75,0,0,1-3,.72,21.2,21.2,0,0,1-3.08.21,7.75,7.75,0,0,1-6-2.3A9.28,9.28,0,0,1,292,448a8.66,8.66,0,0,1,2.38-6.48,8.94,8.94,0,0,1,6.55-2.33,12.72,12.72,0,0,1,5.09,1l-1,2.33a9.9,9.9,0,0,0-4.17-1,5.59,5.59,0,0,0-4.33,1.72,6.64,6.64,0,0,0-1.6,4.71,7,7,0,0,0,1.44,4.78,5.19,5.19,0,0,0,4.13,1.63,13.34,13.34,0,0,0,2.9-.34v-4.42h-3.55Z"/><path class="cls-2" d="M325.49,448a9.41,9.41,0,0,1-2.09,6.51,8.79,8.79,0,0,1-11.88,0,9.43,9.43,0,0,1-2.08-6.55c0-2.83.69-5,2.09-6.51a7.68,7.68,0,0,1,6-2.28,7.55,7.55,0,0,1,5.91,2.31A9.37,9.37,0,0,1,325.49,448Zm-13.08,0a7.69,7.69,0,0,0,1.28,4.8,5.19,5.19,0,0,0,7.55,0,9.71,9.71,0,0,0,0-9.6,4.48,4.48,0,0,0-3.76-1.63,4.55,4.55,0,0,0-3.8,1.63A7.59,7.59,0,0,0,312.41,448Z"/><path class="cls-2" d="M343.45,456.58H340l-8.42-13.65h-.1l.06.76c.11,1.46.16,2.78.16,4v8.9h-2.54V439.45h3.4L341,453H341c0-.18,0-.83-.09-2s-.07-2-.07-2.64v-9h2.57Z"/></g></g></g></svg>