<svg id="_1x1" data-name="1x1" xmlns="http://www.w3.org/2000/svg" width="64" height="64" viewBox="0 0 64 64"><defs><style>.cls-1{fill:#f80;stroke:#fff;stroke-miterlimit:10;stroke-width:2px;}.cls-2{fill:#fff;}</style></defs><title>dledtk_1x1_w</title><g id="Wall"><rect id="Limits" class="cls-1" width="64" height="64"/><path class="cls-2" d="M29.45,24.48H26.7V13.42c0-1.32,0-2.37.09-3.14-.18.19-.4.39-.66.62s-1.14.94-2.63,2.16l-1.38-1.75,5-4h2.29Z"/><path class="cls-2" d="M34.79,23.75a1,1,0,0,1,.22-.66.89.89,0,0,1,.65-.23.85.85,0,0,1,.65.24.92.92,0,0,1,.22.65.92.92,0,0,1-.22.66,1,1,0,0,1-1.3,0A1,1,0,0,1,34.79,23.75Z"/><path class="cls-2" d="M41.88,24.48H40.5V19c0-.66,0-1.18,0-1.57-.09.09-.2.2-.33.31l-1.31,1.08-.7-.87,2.52-2h1.15Z"/><path class="cls-2" d="M25,52.3H23.5l-1.45-5.11c-.06-.22-.14-.54-.23-1a8.2,8.2,0,0,1-.17-.88c0,.25-.11.58-.19,1s-.17.7-.22.89L19.82,52.3H18.29L17.19,48l-1.13-4.28h1.43l1.23,5c.19.8.32,1.5.41,2.12,0-.33.1-.71.19-1.12s.16-.74.23-1l1.4-5h1.39l1.43,5a20.24,20.24,0,0,1,.43,2.09,16.1,16.1,0,0,1,.42-2.14l1.22-5h1.42Z"/><path class="cls-2" d="M33.79,52.3l-.86-2.38H29.66l-.84,2.38H27.34l3.21-8.6h1.52l3.21,8.6Zm-1.23-3.59-.8-2.33c-.06-.15-.14-.4-.24-.74s-.18-.58-.22-.73a12.6,12.6,0,0,1-.46,1.57l-.77,2.23Z"/><path class="cls-2" d="M36.41,52.3V43.73h1.4V51.1h3.62v1.2Z"/><path class="cls-2" d="M42.91,52.3V43.73h1.4V51.1h3.63v1.2Z"/></g></svg>