<svg xmlns="http://www.w3.org/2000/svg" width="512" height="128" viewBox="0 0 512 128"><defs><style>.cls-1{fill:#cccccb;}.cls-1,.cls-3{stroke:#666766;stroke-miterlimit:10;stroke-width:2px;}.cls-2{opacity:0.25;}.cls-3{fill:none;}.cls-4{fill:#666766;}.cls-5{fill:#666;}</style></defs><title>dledtk_8x2_c</title><g id="_8x2" data-name="8x2"><g id="Ceiling"><rect id="Limits" class="cls-1" width="512" height="128"/><g id="Grid" class="cls-2"><line id="Vertical" class="cls-3" x1="384" x2="384" y2="128"/><line id="Vertical-2" data-name="Vertical" class="cls-3" x1="256" x2="256" y2="128"/><line id="Vertical-3" data-name="Vertical" class="cls-3" x1="128" x2="128" y2="128"/></g><g id="Marks"><polygon id="Mark" class="cls-4" points="144 -1 132 -1 132 -2 130 -2 130 -4 129 -4 129 -16 127 -16 127 -4 126 -4 126 -2 124 -2 124 -1 112 -1 112 1 124 1 124 2 126 2 126 4 127 4 127 16 129 16 129 4 130 4 130 2 132 2 132 1 144 1 144 -1"/><polygon id="Mark-2" data-name="Mark" class="cls-4" points="144 127 132 127 132 126 130 126 130 124 129 124 129 112 127 112 127 124 126 124 126 126 124 126 124 127 112 127 112 129 124 129 124 130 126 130 126 132 127 132 127 144 129 144 129 132 130 132 130 130 132 130 132 129 144 129 144 127"/><polygon id="Mark-3" data-name="Mark" class="cls-4" points="272 127 260 127 260 126 258 126 258 124 257 124 257 112 255 112 255 124 254 124 254 126 252 126 252 127 240 127 240 129 252 129 252 130 254 130 254 132 255 132 255 144 257 144 257 132 258 132 258 130 260 130 260 129 272 129 272 127"/><polygon id="Mark-4" data-name="Mark" class="cls-4" points="400 127 388 127 388 126 386 126 386 124 385 124 385 112 383 112 383 124 382 124 382 126 380 126 380 127 368 127 368 129 380 129 380 130 382 130 382 132 383 132 383 144 385 144 385 132 386 132 386 130 388 130 388 129 400 129 400 127"/><polygon id="Mark-5" data-name="Mark" class="cls-4" points="272 -1 260 -1 260 -2 258 -2 258 -4 257 -4 257 -16 255 -16 255 -4 254 -4 254 -2 252 -2 252 -1 240 -1 240 1 252 1 252 2 254 2 254 4 255 4 255 16 257 16 257 4 258 4 258 2 260 2 260 1 272 1 272 -1"/><polygon id="Mark-6" data-name="Mark" class="cls-4" points="400 -1 388 -1 388 -2 386 -2 386 -4 385 -4 385 -16 383 -16 383 -4 382 -4 382 -2 380 -2 380 -1 368 -1 368 1 380 1 380 2 382 2 382 4 383 4 383 16 385 16 385 4 386 4 386 2 388 2 388 1 400 1 400 -1"/></g><g id="Size"><path class="cls-5" d="M53.32,46.41A12.18,12.18,0,0,1,61,48.65a7.24,7.24,0,0,1,2.83,6q0,5.27-6.33,8.39a16.23,16.23,0,0,1,5.73,4.24,7.94,7.94,0,0,1,1.7,5A8.38,8.38,0,0,1,61.86,79c-2.08,1.7-4.9,2.55-8.44,2.55q-5.58,0-8.65-2.39a8.07,8.07,0,0,1-3.07-6.77,8.73,8.73,0,0,1,1.6-5.15,13.53,13.53,0,0,1,5.27-4.07,13.19,13.19,0,0,1-4.48-4,8.5,8.5,0,0,1-1.34-4.68,7.06,7.06,0,0,1,2.93-5.94A12.33,12.33,0,0,1,53.32,46.41ZM47,72.24A4.53,4.53,0,0,0,48.68,76a7.3,7.3,0,0,0,4.64,1.35A7.12,7.12,0,0,0,58,76a4.66,4.66,0,0,0,1.68-3.79,4.88,4.88,0,0,0-1.55-3.47,14.63,14.63,0,0,0-4.69-2.9l-.67-.31a12.06,12.06,0,0,0-4.46,3A5.71,5.71,0,0,0,47,72.24Zm6.31-21.59a5.84,5.84,0,0,0-3.78,1.16A3.87,3.87,0,0,0,48.07,55a4.56,4.56,0,0,0,.52,2.18,5.46,5.46,0,0,0,1.5,1.75,18.78,18.78,0,0,0,3.33,1.89,11,11,0,0,0,4-2.62A4.81,4.81,0,0,0,58.55,55a3.85,3.85,0,0,0-1.44-3.15A6,6,0,0,0,53.28,50.65Z"/><path class="cls-5" d="M68.59,79.66A1.82,1.82,0,0,1,69,78.34a1.75,1.75,0,0,1,1.29-.45,1.69,1.69,0,0,1,1.3.47,1.81,1.81,0,0,1,.44,1.3A1.84,1.84,0,0,1,71.62,81a1.65,1.65,0,0,1-1.29.49A1.68,1.68,0,0,1,69,81,1.85,1.85,0,0,1,68.59,79.66Z"/><path class="cls-5" d="M86.3,81.12H74.69V79l4.42-4.45a35.59,35.59,0,0,0,2.59-2.84,6.49,6.49,0,0,0,.93-1.57,4.2,4.2,0,0,0,.3-1.59,2.41,2.41,0,0,0-.7-1.82,2.67,2.67,0,0,0-1.93-.67,5.13,5.13,0,0,0-1.9.36,8.71,8.71,0,0,0-2.13,1.31L74.78,66a9.31,9.31,0,0,1,2.78-1.71,8,8,0,0,1,2.87-.51A5.66,5.66,0,0,1,84.26,65a4.21,4.21,0,0,1,1.44,3.36,6,6,0,0,1-.41,2.2A9.14,9.14,0,0,1,84,72.7a28.43,28.43,0,0,1-2.87,3l-3,2.88v.12H86.3Z"/></g><g id="Type"><path class="cls-5" d="M411.53,57.6a4.62,4.62,0,0,0-3.8,1.71A7.31,7.31,0,0,0,406.35,64a7.35,7.35,0,0,0,1.33,4.77,4.69,4.69,0,0,0,3.85,1.62,10.31,10.31,0,0,0,2.1-.22c.68-.15,1.39-.33,2.13-.56V72a12.84,12.84,0,0,1-4.57.77,7.3,7.3,0,0,1-5.78-2.28c-1.35-1.52-2-3.7-2-6.52a10.58,10.58,0,0,1,1-4.68,7,7,0,0,1,2.83-3.07,8.58,8.58,0,0,1,4.35-1.07,10.83,10.83,0,0,1,4.85,1.1l-1,2.34a13.39,13.39,0,0,0-1.83-.72A6.53,6.53,0,0,0,411.53,57.6Z"/><path class="cls-5" d="M429.14,72.57h-9.69V55.44h9.69v2.37h-6.89v4.66h6.46v2.34h-6.46v5.38h6.89Z"/><path class="cls-5" d="M432.84,72.57V55.44h2.8V72.57Z"/><path class="cls-5" d="M440.17,72.57V55.44H443V70.17h7.25v2.4Z"/><path class="cls-5" d="M453.17,72.57V55.44H456V72.57Z"/><path class="cls-5" d="M474.77,72.57h-3.43l-8.43-13.65h-.09l.06.76c.11,1.45.16,2.78.16,4v8.9H460.5V55.44h3.4L472.3,69h.07c0-.18-.05-.83-.09-2s-.07-2-.07-2.64v-9h2.56Z"/><path class="cls-5" d="M486.3,63.28h6.31v8.6a17.75,17.75,0,0,1-3,.72,21.2,21.2,0,0,1-3.08.21,7.72,7.72,0,0,1-6-2.31A9.24,9.24,0,0,1,478.45,64a8.66,8.66,0,0,1,2.38-6.48,8.94,8.94,0,0,1,6.55-2.34,12.9,12.9,0,0,1,5.09,1l-1,2.34a9.9,9.9,0,0,0-4.17-1A5.63,5.63,0,0,0,483,59.32,6.68,6.68,0,0,0,481.38,64a7,7,0,0,0,1.44,4.77A5.19,5.19,0,0,0,487,70.44a13.34,13.34,0,0,0,2.9-.34V65.68H486.3Z"/></g></g></g></svg>