<svg xmlns="http://www.w3.org/2000/svg" width="512" height="512" viewBox="0 0 512 512">
  <defs>
    <style>
      .cls-1 {
        fill: #944;
      }

      .cls-2 {
        fill: #6a7;
      }

      .cls-3 {
        fill: #dbb;
      }
    </style>
  </defs>
  <title>dledtk_sp_8x8_mosaic</title>
  <g id="Specials">
    <g id="Jorge">
      <g id="Green">
        <rect id="Green-2" data-name="Green" class="cls-1" x="128" y="256" width="64" height="64"/>
        <rect id="Green-3" data-name="Green" class="cls-1" y="256" width="64" height="64"/>
        <rect id="Green-4" data-name="Green" class="cls-1" x="256" y="256" width="64" height="64"/>
        <rect id="Green-5" data-name="Green" class="cls-1" x="384" y="256" width="64" height="64"/>
        <g id="Green-6" data-name="Green">
          <rect class="cls-2" x="320" y="320" width="64" height="64"/>
        </g>
        <g id="Green-7" data-name="Green">
          <rect class="cls-2" x="448" y="320" width="64" height="64"/>
        </g>
        <rect id="Green-8" data-name="Green" class="cls-1" x="384" y="384" width="64" height="64"/>
        <g id="Green-9" data-name="Green">
          <rect class="cls-2" x="448" y="64" width="64" height="64"/>
        </g>
        <rect id="Green-10" data-name="Green" class="cls-1" x="384" y="128" width="64" height="64"/>
        <rect id="Green-11" data-name="Green" class="cls-1" y="128" width="64" height="64"/>
        <g id="Green-12" data-name="Green">
          <rect class="cls-2" x="448" y="192" width="64" height="64"/>
        </g>
        <g id="Green-13" data-name="Green">
          <rect class="cls-2" x="320" y="192" width="64" height="64"/>
        </g>
        <g id="Green-14" data-name="Green">
          <rect class="cls-2" x="192" y="192" width="64" height="64"/>
        </g>
      </g>
      <g id="Beige">
        <g id="Beige-2" data-name="Beige">
          <rect class="cls-3" x="192" y="256" width="64" height="64"/>
        </g>
        <g id="Beige-3" data-name="Beige">
          <rect class="cls-3" x="64" y="256" width="64" height="64"/>
        </g>
        <g id="Beige-4" data-name="Beige">
          <rect class="cls-3" x="320" y="256" width="64" height="64"/>
        </g>
        <g id="Beige-5" data-name="Beige">
          <rect class="cls-3" x="448" y="256" width="64" height="64"/>
        </g>
        <g id="Beige-6" data-name="Beige">
          <rect class="cls-3" x="384" y="320" width="64" height="64"/>
        </g>
        <g id="Beige-7" data-name="Beige">
          <rect class="cls-3" x="256" y="320" width="64" height="64"/>
        </g>
        <g id="Green-15" data-name="Green">
          <rect class="cls-2" x="64" y="320" width="64" height="64"/>
        </g>
        <g id="Green-16" data-name="Green">
          <rect class="cls-2" x="192" y="320" width="64" height="64"/>
        </g>
        <g id="Beige-8" data-name="Beige">
          <rect class="cls-3" x="128" y="320" width="64" height="64"/>
        </g>
        <g id="Beige-9" data-name="Beige">
          <rect class="cls-3" y="320" width="64" height="64"/>
        </g>
        <g id="Green-17" data-name="Green">
          <rect class="cls-2" x="320" y="448" width="64" height="64"/>
        </g>
        <g id="Green-18" data-name="Green">
          <rect class="cls-2" x="448" y="448" width="64" height="64"/>
        </g>
        <g id="Beige-10" data-name="Beige">
          <rect class="cls-3" x="384" y="448" width="64" height="64"/>
        </g>
        <g id="Beige-11" data-name="Beige">
          <rect class="cls-3" x="256" y="448" width="64" height="64"/>
        </g>
        <g id="Green-19" data-name="Green">
          <rect class="cls-2" x="64" y="448" width="64" height="64"/>
        </g>
        <g id="Green-20" data-name="Green">
          <rect class="cls-2" x="192" y="448" width="64" height="64"/>
        </g>
        <g id="Beige-12" data-name="Beige">
          <rect class="cls-3" x="128" y="448" width="64" height="64"/>
        </g>
        <g id="Beige-13" data-name="Beige">
          <rect class="cls-3" y="448" width="64" height="64"/>
        </g>
        <g id="Beige-14" data-name="Beige">
          <rect class="cls-3" x="448" y="384" width="64" height="64"/>
        </g>
        <rect id="Green-21" data-name="Green" class="cls-1" x="256" y="384" width="64" height="64"/>
        <g id="Beige-15" data-name="Beige">
          <rect class="cls-3" x="320" y="384" width="64" height="64"/>
        </g>
        <rect id="Green-22" data-name="Green" class="cls-1" x="128" y="384" width="64" height="64"/>
        <g id="Beige-16" data-name="Beige">
          <rect class="cls-3" x="192" y="384" width="64" height="64"/>
        </g>
        <rect id="Green-23" data-name="Green" class="cls-1" y="384" width="64" height="64"/>
        <g id="Beige-17" data-name="Beige">
          <rect class="cls-3" x="64" y="384" width="64" height="64"/>
        </g>
        <g id="Beige-18" data-name="Beige">
          <rect class="cls-3" x="384" y="64" width="64" height="64"/>
        </g>
        <g id="Green-24" data-name="Green">
          <rect class="cls-2" x="320" y="64" width="64" height="64"/>
        </g>
        <g id="Beige-19" data-name="Beige">
          <rect class="cls-3" x="256" y="64" width="64" height="64"/>
        </g>
        <g id="Green-25" data-name="Green">
          <rect class="cls-2" x="192" y="64" width="64" height="64"/>
        </g>
        <g id="Beige-20" data-name="Beige">
          <rect class="cls-3" x="128" y="64" width="64" height="64"/>
        </g>
        <g id="Green-26" data-name="Green">
          <rect class="cls-2" x="64" y="64" width="64" height="64"/>
        </g>
        <g id="Beige-21" data-name="Beige">
          <rect class="cls-3" y="64" width="64" height="64"/>
        </g>
        <g id="Beige-22" data-name="Beige">
          <rect class="cls-3" x="448" y="128" width="64" height="64"/>
        </g>
        <g id="Beige-23" data-name="Beige">
          <rect class="cls-3" x="320" y="128" width="64" height="64"/>
        </g>
        <rect id="Green-27" data-name="Green" class="cls-1" x="256" y="128" width="64" height="64"/>
        <g id="Beige-24" data-name="Beige">
          <rect class="cls-3" x="192" y="128" width="64" height="64"/>
        </g>
        <rect id="Green-28" data-name="Green" class="cls-1" x="128" y="128" width="64" height="64"/>
        <g id="Beige-25" data-name="Beige">
          <rect class="cls-3" x="64" y="128" width="64" height="64"/>
        </g>
        <rect id="Green-29" data-name="Green" class="cls-1" x="384" width="64" height="64"/>
        <rect id="Green-30" data-name="Green" class="cls-1" width="64" height="64"/>
        <g id="Beige-26" data-name="Beige">
          <rect class="cls-3" x="448" width="64" height="64"/>
        </g>
        <g id="Beige-27" data-name="Beige">
          <rect class="cls-3" x="320" width="64" height="64"/>
        </g>
        <rect id="Green-31" data-name="Green" class="cls-1" x="256" width="64" height="64"/>
        <g id="Beige-28" data-name="Beige">
          <rect class="cls-3" x="192" width="64" height="64"/>
        </g>
        <rect id="Green-32" data-name="Green" class="cls-1" x="128" width="64" height="64"/>
        <g id="Beige-29" data-name="Beige">
          <rect class="cls-3" x="64" width="64" height="64"/>
        </g>
        <g id="Beige-30" data-name="Beige">
          <rect class="cls-3" x="384" y="192" width="64" height="64"/>
        </g>
        <g id="Beige-31" data-name="Beige">
          <rect class="cls-3" x="256" y="192" width="64" height="64"/>
        </g>
        <g id="Beige-32" data-name="Beige">
          <rect class="cls-3" x="128" y="192" width="64" height="64"/>
        </g>
        <g id="Green-33" data-name="Green">
          <rect class="cls-2" x="64" y="192" width="64" height="64"/>
        </g>
        <g id="Beige-33" data-name="Beige">
          <rect class="cls-3" y="192" width="64" height="64"/>
        </g>
      </g>
    </g>
  </g>
</svg>
