<svg xmlns="http://www.w3.org/2000/svg" width="256" height="128" viewBox="0 0 256 128"><defs><style>.cls-1{fill:#f80;}.cls-1,.cls-3{stroke:#fff;stroke-miterlimit:10;stroke-width:2px;}.cls-2{opacity:0.25;}.cls-3{fill:none;}.cls-4{fill:#fff;}</style></defs><title>dledtk_4x2_w</title><g id="_4x2" data-name="4x2"><g id="Wall"><rect id="Limits" class="cls-1" width="256" height="128"/><g id="Grid" class="cls-2"><line id="Vertical" class="cls-3" x1="128" x2="128" y2="128"/></g><g id="Marks"><polygon id="Mark" class="cls-4" points="144 -1 132 -1 132 -2 130 -2 130 -4 129 -4 129 -16 127 -16 127 -4 126 -4 126 -2 124 -2 124 -1 112 -1 112 1 124 1 124 2 126 2 126 4 127 4 127 16 129 16 129 4 130 4 130 2 132 2 132 1 144 1 144 -1"/><polygon id="Mark-2" data-name="Mark" class="cls-4" points="144 127 132 127 132 126 130 126 130 124 129 124 129 112 127 112 127 124 126 124 126 126 124 126 124 127 112 127 112 129 124 129 124 130 126 130 126 132 127 132 127 144 129 144 129 132 130 132 130 130 132 130 132 129 144 129 144 127"/></g><g id="Size"><path class="cls-4" d="M66.77,73.53H62.15V81H56.78V73.53H41.13V69.29L56.78,46.65h5.37V69h4.62ZM56.78,69v-8.6q0-4.59.24-7.52h-.19a27.75,27.75,0,0,1-2.06,3.75L46.26,69Z"/><path class="cls-4" d="M69.17,79.54a1.84,1.84,0,0,1,.44-1.31,1.75,1.75,0,0,1,1.29-.45,1.67,1.67,0,0,1,1.3.47,1.81,1.81,0,0,1,.45,1.29,1.85,1.85,0,0,1-.45,1.32,2,2,0,0,1-2.59,0A1.9,1.9,0,0,1,69.17,79.54Z"/><path class="cls-4" d="M86.88,81H75.26V78.92l4.42-4.44c1.3-1.33,2.17-2.28,2.6-2.84a7,7,0,0,0,.93-1.58,4.35,4.35,0,0,0,.29-1.58,2.41,2.41,0,0,0-.7-1.83A2.66,2.66,0,0,0,80.88,66a5.18,5.18,0,0,0-1.91.36,9.09,9.09,0,0,0-2.13,1.31l-1.48-1.81a9.53,9.53,0,0,1,2.77-1.72,8.29,8.29,0,0,1,2.87-.5,5.67,5.67,0,0,1,3.84,1.25,4.21,4.21,0,0,1,1.44,3.36,5.86,5.86,0,0,1-.42,2.2,9,9,0,0,1-1.28,2.15,28.29,28.29,0,0,1-2.86,3l-3,2.89v.11h8.14Z"/></g><g id="Type"><path class="cls-4" d="M178.05,72.6h-3L172.1,62.38c-.12-.44-.28-1.09-.47-1.92s-.3-1.43-.34-1.76c-.08.5-.2,1.15-.38,1.95s-.32,1.39-.44,1.78L167.64,72.6h-3L162.38,64l-2.25-8.55H163l2.45,10a39.93,39.93,0,0,1,.82,4.25c.09-.67.22-1.41.39-2.23s.33-1.49.47-2l2.79-10h2.78l2.86,10a37.45,37.45,0,0,1,.86,4.18,30.53,30.53,0,0,1,.85-4.27l2.43-10h2.84Z"/><path class="cls-4" d="M195.57,72.6l-1.71-4.76h-6.55l-1.67,4.76h-3l6.41-17.2h3l6.41,17.2Zm-2.44-7.17-1.61-4.66c-.12-.32-.28-.81-.49-1.48s-.35-1.16-.42-1.48a27.35,27.35,0,0,1-.93,3.15l-1.55,4.47Z"/><path class="cls-4" d="M200.81,72.6V55.47h2.8V70.2h7.26v2.4Z"/><path class="cls-4" d="M213.82,72.6V55.47h2.8V70.2h7.26v2.4Z"/></g></g></g></svg>