<svg xmlns="http://www.w3.org/2000/svg" width="512" height="512" viewBox="0 0 512 512"><defs><style>.cls-1{fill:#944;}.cls-2{fill:#04b;}.cls-3{fill:#6a7;}.cls-4{fill:#dbb;}</style></defs><title>dledtk_sp_8x8_jorge</title><g id="Specials"><g id="Jorge"><g id="Red"><g id="Red-2" data-name="Red"><rect class="cls-1" y="320" width="64" height="64"/></g><g id="Red-3" data-name="Red"><rect class="cls-1" x="64" y="384" width="64" height="64"/></g><g id="Red-4" data-name="Red"><rect class="cls-1" y="448" width="64" height="64"/></g><g id="Red-5" data-name="Red"><rect class="cls-1" x="64" width="64" height="64"/></g><g id="Red-6" data-name="Red"><rect class="cls-1" y="64" width="64" height="64"/></g><g id="Red-7" data-name="Red"><rect class="cls-1" x="64" y="128" width="64" height="64"/></g><g id="Red-8" data-name="Red"><rect class="cls-1" x="128" y="64" width="64" height="64"/></g><g id="Red-9" data-name="Red"><rect class="cls-1" x="128" y="448" width="64" height="64"/></g><g id="Red-10" data-name="Red"><rect class="cls-1" x="192" y="384" width="64" height="64"/></g><g id="Red-11" data-name="Red"><rect class="cls-1" x="192" width="64" height="64"/></g><g id="Red-12" data-name="Red"><rect class="cls-1" x="256" y="448" width="64" height="64"/></g><g id="Red-13" data-name="Red"><rect class="cls-1" x="320" width="64" height="64"/></g><rect id="Red-14" data-name="Red" class="cls-1" x="64" y="304" width="32" height="16"/><polygon id="Red-15" data-name="Red" class="cls-1" points="160 352 160 336 128 336 128 384 160 384 160 383.95 191.95 383.95 191.95 352 160 352"/><rect id="Red-16" data-name="Red" class="cls-1" x="320" y="432" width="32" height="16"/><polygon id="Red-17" data-name="Red" class="cls-1" points="416 480 416 464 384 464 384 512 416 512 448 512 448 480 416 480"/><polygon id="Red-18" data-name="Red" class="cls-1" points="480 0 448 0 448 32 480 32 480 16 512 16 512 0 480 0"/><polygon id="Red-19" data-name="Red" class="cls-1" points="288 64 256 64 256 128 288 128 288 112 320 112 320 64 288 64"/><polygon id="Red-20" data-name="Red" class="cls-1" points="224 128 192 128 192 160 224 160 224 144 256 144 256 128 224 128"/><polygon id="Red-21" data-name="Red" class="cls-1" points="32 192 0 192 0 256 32 256 32 240 64 240 64 192 32 192"/></g><g id="Blue"><rect id="Blue-2" data-name="Blue" class="cls-2" x="191.95" y="368" width="32.05" height="16"/><g id="Red-22" data-name="Red"><rect class="cls-2" x="64" y="320" width="64" height="64"/></g><g id="Red-23" data-name="Red"><rect class="cls-2" y="384" width="64" height="64"/></g><g id="Red-24" data-name="Red"><rect class="cls-2" x="64" y="448" width="64" height="64"/></g><g id="Red-25" data-name="Red"><rect class="cls-2" width="64" height="64"/></g><g id="Red-26" data-name="Red"><rect class="cls-2" x="64" y="64" width="64" height="64"/></g><g id="Red-27" data-name="Red"><rect class="cls-2" y="128" width="64" height="64"/></g><g id="Red-28" data-name="Red"><rect class="cls-2" x="192" y="64" width="64" height="64"/></g><g id="Red-29" data-name="Red"><rect class="cls-2" x="128" width="64" height="64"/></g><g id="Red-30" data-name="Red"><rect class="cls-2" x="192" y="448" width="64" height="64"/></g><g id="Red-31" data-name="Red"><rect class="cls-2" x="128" y="384" width="64" height="64"/></g><g id="Red-32" data-name="Red"><rect class="cls-2" x="320" y="448" width="64" height="64"/></g><g id="Red-33" data-name="Red"><rect class="cls-2" x="256" width="64" height="64"/></g><polygon id="Blue-3" data-name="Blue" class="cls-2" points="32 288 32 272 0 272 0 320 32 320 64 320 64 288 32 288"/><polygon id="Blue-4" data-name="Blue" class="cls-2" points="288 416 288 400 256 400 256 448 288 448 320 448 320 416 288 416"/><rect id="Blue-5" data-name="Blue" class="cls-2" x="448" y="496" width="32" height="16"/><polygon id="Blue-6" data-name="Blue" class="cls-2" points="384 0 384 48 384 64 416 64 416 48 448 48 448 0 384 0"/><polygon id="Blue-7" data-name="Blue" class="cls-2" points="320 64 320 80 320 96 352 96 352 80 384 80 384 64 320 64"/><polygon id="Blue-8" data-name="Blue" class="cls-2" points="160 128 128 128 128 192 160 192 160 176 192 176 192 128 160 128"/><polygon id="Blue-9" data-name="Blue" class="cls-2" points="96 192 64 192 64 224 96 224 96 208 128 208 128 192 96 192"/></g><g id="Green"><g id="Red-34" data-name="Red"><rect class="cls-3" x="128" y="256" width="64" height="64"/></g><g id="Red-35" data-name="Red"><rect class="cls-3" x="256" y="256" width="64" height="64"/></g><g id="Red-36" data-name="Red"><rect class="cls-3" x="384" y="256" width="64" height="64"/></g><g id="Red-37" data-name="Red"><rect class="cls-3" x="320" y="320" width="64" height="64"/></g><g id="Red-38" data-name="Red"><rect class="cls-3" x="448" y="320" width="64" height="64"/></g><g id="Red-39" data-name="Red"><rect class="cls-3" x="384" y="384" width="64" height="64"/></g><g id="Red-40" data-name="Red"><rect class="cls-3" x="448" y="64" width="64" height="64"/></g><g id="Red-41" data-name="Red"><rect class="cls-3" x="384" y="128" width="64" height="64"/></g><g id="Red-42" data-name="Red"><rect class="cls-3" x="256" y="128" width="64" height="64"/></g><g id="Red-43" data-name="Red"><rect class="cls-3" x="448" y="192" width="64" height="64"/></g><g id="Red-44" data-name="Red"><rect class="cls-3" x="320" y="192" width="64" height="64"/></g><g id="Red-45" data-name="Red"><rect class="cls-3" x="192" y="192" width="64" height="64"/></g><polygon id="Green-2" data-name="Green" class="cls-3" points="96 208 96 224 64 224 64 256 96 256 128 256 128 208 96 208"/><rect id="Green-3" data-name="Green" class="cls-3" x="160" y="176" width="32" height="16"/><polygon id="Green-4" data-name="Green" class="cls-3" points="352 80 352 96 320 96 320 128 352 128 384 128 384 80 352 80"/><rect id="Green-5" data-name="Green" class="cls-3" x="416" y="48" width="32" height="16"/><polygon id="Green-6" data-name="Green" class="cls-3" points="480 448 448 448 448 495.88 480 495.88 480 512 512 512 512 448 480 448"/><polygon id="Green-7" data-name="Green" class="cls-3" points="288 384 256 384 256 400 288 400 288 416 320 416 320 384 288 384"/><polygon id="Green-8" data-name="Green" class="cls-3" points="32 256 32 255.67 0 255.67 0 272 32 272 32 288 64 288 64 256 32 256"/><polygon id="Green-9" data-name="Green" class="cls-3" points="224 320 224 320.05 191.95 320.05 191.95 368 224 368 224 384 256 384 256 320 224 320"/></g><g id="Beige"><g id="Red-46" data-name="Red"><rect class="cls-4" x="192" y="256" width="64" height="64"/></g><g id="Red-47" data-name="Red"><rect class="cls-4" x="320" y="256" width="64" height="64"/></g><g id="Red-48" data-name="Red"><rect class="cls-4" x="448" y="256" width="64" height="64"/></g><g id="Red-49" data-name="Red"><rect class="cls-4" x="384" y="320" width="64" height="64"/></g><g id="Red-50" data-name="Red"><rect class="cls-4" x="256" y="320" width="64" height="64"/></g><g id="Red-51" data-name="Red"><rect class="cls-4" x="448" y="384" width="64" height="64"/></g><g id="Red-52" data-name="Red"><rect class="cls-4" x="384" y="64" width="64" height="64"/></g><g id="Red-53" data-name="Red"><rect class="cls-4" x="448" y="128" width="64" height="64"/></g><g id="Red-54" data-name="Red"><rect class="cls-4" x="320" y="128" width="64" height="64"/></g><g id="Red-55" data-name="Red"><rect class="cls-4" x="384" y="192" width="64" height="64"/></g><g id="Red-56" data-name="Red"><rect class="cls-4" x="256" y="192" width="64" height="64"/></g><g id="Red-57" data-name="Red"><rect class="cls-4" x="128" y="192" width="64" height="64"/></g><rect class="cls-4" x="32" y="240" width="32" height="16"/><polygon id="Beige-2" data-name="Beige" class="cls-4" points="224 144 224 160 192 160 192 192 224 192 256 192 256 144 224 144"/><rect id="Beige-3" data-name="Beige" class="cls-4" x="288" y="112" width="32" height="16"/><polygon id="Beige-4" data-name="Beige" class="cls-4" points="480 16 480 32 448 32 448 64 480 64 512 64 512 16 480 16"/><polygon id="Beige-5" data-name="Beige" class="cls-4" points="416 448 384 448 384 464 416 464 416 480 448 480 448 448 416 448"/><polygon id="Beige-6" data-name="Beige" class="cls-4" points="352 384 320 384 320 432 352 432 352 448 384 448 384 384 352 384"/><polygon id="Beige-7" data-name="Beige" class="cls-4" points="160 320.05 128 320.05 128 336 160 336 160 352 191.95 352 191.95 320.05 160 320.05"/><polygon id="Beige-8" data-name="Beige" class="cls-4" points="96 256 64 256 64 304 96 304 96 320 128 320 128 256 96 256"/></g></g></g></svg>