<svg xmlns="http://www.w3.org/2000/svg" width="512" height="512" viewBox="0 0 512 512">
  <defs>
    <style>
      .cls-1 {
        fill: #f80;
        stroke: #fff;
        stroke-miterlimit: 10;
        stroke-width: 2px;
      }

      .cls-2 {
        fill: #fff;
      }
    </style>
  </defs>
  <title>dledtk_8x8_el</title>
  <g id="_8x8" data-name="8x8">
    <g id="Large_entrance" data-name="Large entrance">
      <rect id="Limits" class="cls-1" width="512" height="512"/>
      <g id="Size">
        <path class="cls-2" d="M25.81,20a6.05,6.05,0,0,1,3.86,1.12,3.63,3.63,0,0,1,1.42,3q0,2.64-3.17,4.2a8.14,8.14,0,0,1,2.87,2.12,4,4,0,0,1,.85,2.48,4.16,4.16,0,0,1-1.56,3.4,6.48,6.48,0,0,1-4.22,1.28,6.85,6.85,0,0,1-4.32-1.2A4,4,0,0,1,20,33a4.38,4.38,0,0,1,.8-2.57,6.74,6.74,0,0,1,2.63-2,6.49,6.49,0,0,1-2.23-2,4.19,4.19,0,0,1-.67-2.34,3.55,3.55,0,0,1,1.46-3A6.16,6.16,0,0,1,25.81,20ZM22.64,32.91a2.27,2.27,0,0,0,.85,1.9,3.66,3.66,0,0,0,2.32.67,3.54,3.54,0,0,0,2.35-.7A2.31,2.31,0,0,0,29,32.89a2.43,2.43,0,0,0-.77-1.73,7.32,7.32,0,0,0-2.35-1.46l-.34-.15A6,6,0,0,0,23.32,31,2.82,2.82,0,0,0,22.64,32.91Zm3.15-10.79a2.9,2.9,0,0,0-1.89.58,1.94,1.94,0,0,0-.71,1.58,2.2,2.2,0,0,0,.26,1.09,2.77,2.77,0,0,0,.75.87,8.44,8.44,0,0,0,1.66.94,5.59,5.59,0,0,0,2-1.3,2.44,2.44,0,0,0,.58-1.6,1.92,1.92,0,0,0-.72-1.58A3,3,0,0,0,25.79,22.12Z"/>
        <path class="cls-2" d="M33.45,36.62a.88.88,0,0,1,.22-.65A1,1,0,0,1,35,36a.88.88,0,0,1,.23.64.93.93,0,0,1-.23.66.84.84,0,0,1-.65.25.83.83,0,0,1-.64-.24A1,1,0,0,1,33.45,36.62Z"/>
        <path class="cls-2" d="M39.39,28.68a3,3,0,0,1,1.93.56A1.81,1.81,0,0,1,42,30.73a2.36,2.36,0,0,1-1.59,2.1,4.16,4.16,0,0,1,1.44,1.06,2,2,0,0,1,.42,1.24,2.08,2.08,0,0,1-.78,1.7,3.2,3.2,0,0,1-2.11.64,3.49,3.49,0,0,1-2.16-.59,2,2,0,0,1-.77-1.7,2.23,2.23,0,0,1,.4-1.28,3.35,3.35,0,0,1,1.32-1,3.27,3.27,0,0,1-1.12-1,2.15,2.15,0,0,1-.33-1.17,1.77,1.77,0,0,1,.73-1.49A3.07,3.07,0,0,1,39.39,28.68ZM37.8,35.13a1.12,1.12,0,0,0,.43.95,2.14,2.14,0,0,0,2.33,0,1.17,1.17,0,0,0,.42-1,1.23,1.23,0,0,0-.38-.86,3.47,3.47,0,0,0-1.18-.73l-.17-.08a3.14,3.14,0,0,0-1.11.75A1.39,1.39,0,0,0,37.8,35.13Zm1.58-5.39a1.44,1.44,0,0,0-1,.29,1,1,0,0,0-.35.79,1.08,1.08,0,0,0,.13.54,1.38,1.38,0,0,0,.37.44,4.22,4.22,0,0,0,.83.47,3,3,0,0,0,1-.65,1.23,1.23,0,0,0,.29-.8.93.93,0,0,0-.37-.79A1.42,1.42,0,0,0,39.38,29.74Z"/>
      </g>
      <g id="Type">
        <path class="cls-2" d="M391,33.08V24.51h1.4v7.37h3.62v1.2Z"/>
        <path class="cls-2" d="M402.84,33.08,402,30.7h-3.28l-.83,2.38H396.4l3.2-8.6h1.53l3.2,8.6Zm-1.22-3.58-.8-2.34c-.06-.15-.14-.4-.25-.74s-.17-.58-.21-.73a14.58,14.58,0,0,1-.46,1.57l-.78,2.24Z"/>
        <path class="cls-2" d="M406.86,29.66v3.42h-1.4V24.51h2.42a3.94,3.94,0,0,1,2.46.63,2.21,2.21,0,0,1,.79,1.87,2.33,2.33,0,0,1-1.66,2.28l2.42,3.79H410.3l-2.05-3.42Zm0-1.16h1a2.21,2.21,0,0,0,1.41-.36,1.32,1.32,0,0,0,.44-1.08,1.17,1.17,0,0,0-.47-1,2.62,2.62,0,0,0-1.43-.31h-.93Z"/>
        <path class="cls-2" d="M416.64,28.43h3.15v4.31a10,10,0,0,1-1.49.35,10.38,10.38,0,0,1-1.53.11,3.88,3.88,0,0,1-3-1.15,4.61,4.61,0,0,1-1.06-3.25,4.35,4.35,0,0,1,1.19-3.24,4.48,4.48,0,0,1,3.28-1.17,6.28,6.28,0,0,1,2.54.52l-.49,1.16a5,5,0,0,0-2.09-.48,2.83,2.83,0,0,0-2.17.86,3.35,3.35,0,0,0-.79,2.36,3.57,3.57,0,0,0,.71,2.39A2.62,2.62,0,0,0,417,32a6.34,6.34,0,0,0,1.45-.17v-2.2h-1.77Z"/>
        <path class="cls-2" d="M426.69,33.08h-4.84V24.51h4.84V25.7h-3.44V28h3.22V29.2h-3.22v2.69h3.44Z"/>
        <path class="cls-2" d="M436.51,33.08h-4.85V24.51h4.85V25.7h-3.45V28h3.23V29.2h-3.23v2.69h3.45Z"/>
        <path class="cls-2" d="M445.49,33.08h-1.71l-4.22-6.83h0l0,.39c.05.72.08,1.39.08,2v4.45h-1.27V24.51h1.7l4.2,6.8h0c0-.09,0-.42,0-1s0-1,0-1.32V24.51h1.28Z"/>
        <path class="cls-2" d="M450.71,33.08h-1.4V25.72h-2.52V24.51h6.44v1.21h-2.52Z"/>
        <path class="cls-2" d="M456,29.66v3.42h-1.4V24.51H457a3.93,3.93,0,0,1,2.45.63,2.21,2.21,0,0,1,.8,1.87,2.34,2.34,0,0,1-1.67,2.28L461,33.08h-1.59l-2.05-3.42Zm0-1.16h1a2.26,2.26,0,0,0,1.42-.36,1.35,1.35,0,0,0,.44-1.08,1.17,1.17,0,0,0-.48-1,2.59,2.59,0,0,0-1.43-.31H456Z"/>
        <path class="cls-2" d="M467.53,33.08l-.85-2.38H463.4l-.84,2.38h-1.47l3.2-8.6h1.52l3.21,8.6Zm-1.22-3.58-.81-2.34c-.05-.15-.14-.4-.24-.74s-.17-.58-.21-.73a12.77,12.77,0,0,1-.47,1.57l-.77,2.24Z"/>
        <path class="cls-2" d="M477.29,33.08h-1.72l-4.21-6.83h-.05l0,.39c.05.72.08,1.39.08,2v4.45h-1.27V24.51h1.7l4.2,6.8h0c0-.09,0-.42,0-1s0-1,0-1.32V24.51h1.29Z"/>
        <path class="cls-2" d="M483.19,25.59a2.33,2.33,0,0,0-1.9.86,3.66,3.66,0,0,0-.69,2.36,3.67,3.67,0,0,0,.67,2.38,2.33,2.33,0,0,0,1.92.81,4.59,4.59,0,0,0,1.06-.11c.34-.07.69-.16,1.06-.27v1.2a6.51,6.51,0,0,1-2.29.38,3.67,3.67,0,0,1-2.89-1.14,4.78,4.78,0,0,1-1-3.26,5.23,5.23,0,0,1,.49-2.34A3.46,3.46,0,0,1,481,24.92a4.34,4.34,0,0,1,2.18-.53,5.47,5.47,0,0,1,2.42.55l-.5,1.17a6.76,6.76,0,0,0-.92-.36A3.11,3.11,0,0,0,483.19,25.59Z"/>
        <path class="cls-2" d="M492,33.08h-4.85V24.51H492V25.7h-3.45V28h3.23V29.2h-3.23v2.69H492Z"/>
      </g>
    </g>
  </g>
</svg>
