<svg id="_1x1" data-name="1x1" xmlns="http://www.w3.org/2000/svg" width="64" height="64" viewBox="0 0 64 64"><defs><style>.cls-1{fill:#cccccb;stroke:#666766;stroke-miterlimit:10;stroke-width:2px;}.cls-2{fill:#666;}</style></defs><title>dledtk_1x1_c</title><g id="Ceiling"><rect id="Limits" class="cls-1" x="0.01" width="64" height="64"/><path class="cls-2" d="M29.46,24.48H26.71V13.42c0-1.32,0-2.37.09-3.14-.18.19-.4.39-.66.62s-1.14.94-2.63,2.16l-1.38-1.75,5-4h2.3Z"/><path class="cls-2" d="M34.8,23.75a.91.91,0,0,1,.22-.66.87.87,0,0,1,.65-.23.85.85,0,0,1,.65.24.92.92,0,0,1,.22.65.93.93,0,0,1-.23.66.83.83,0,0,1-.64.24.84.84,0,0,1-.65-.24A.92.92,0,0,1,34.8,23.75Z"/><path class="cls-2" d="M41.89,24.48H40.51V19c0-.66,0-1.18.05-1.57-.09.09-.2.2-.33.31l-1.32,1.08-.69-.87,2.52-2h1.15Z"/><path class="cls-2" d="M13.77,44.8a2.31,2.31,0,0,0-1.9.85A3.66,3.66,0,0,0,11.18,48a3.7,3.7,0,0,0,.66,2.39,2.37,2.37,0,0,0,1.93.81,5.19,5.19,0,0,0,1.05-.11c.34-.07.7-.17,1.06-.28V52a6.27,6.27,0,0,1-2.28.38,3.66,3.66,0,0,1-2.89-1.14A4.77,4.77,0,0,1,9.7,48a5.3,5.3,0,0,1,.49-2.33,3.53,3.53,0,0,1,1.42-1.54,4.21,4.21,0,0,1,2.17-.53,5.35,5.35,0,0,1,2.43.55l-.51,1.16c-.29-.13-.59-.25-.91-.36A3.45,3.45,0,0,0,13.77,44.8Z"/><path class="cls-2" d="M22.58,52.29H17.73V43.72h4.85V44.9H19.13v2.34h3.23v1.17H19.13V51.1h3.45Z"/><path class="cls-2" d="M24.43,52.29V43.72h1.4v8.57Z"/><path class="cls-2" d="M28.09,52.29V43.72h1.4v7.36h3.63v1.21Z"/><path class="cls-2" d="M34.59,52.29V43.72H36v8.57Z"/><path class="cls-2" d="M45.39,52.29H43.68l-4.22-6.83h0l0,.38c0,.73.08,1.39.08,2v4.46H38.26V43.72H40l4.2,6.79h0c0-.09,0-.42,0-1s0-1,0-1.32V43.72h1.28Z"/><path class="cls-2" d="M51.16,47.64h3.15v4.3a8.82,8.82,0,0,1-1.48.36,10.68,10.68,0,0,1-1.54.1,3.85,3.85,0,0,1-3-1.15A4.61,4.61,0,0,1,47.23,48a4.31,4.31,0,0,1,1.19-3.23A4.49,4.49,0,0,1,51.7,43.6a6.44,6.44,0,0,1,2.54.51l-.49,1.17a5,5,0,0,0-2.09-.48,2.81,2.81,0,0,0-2.17.86A3.33,3.33,0,0,0,48.7,48a3.5,3.5,0,0,0,.72,2.39,2.56,2.56,0,0,0,2.06.82,7,7,0,0,0,1.45-.17V48.84H51.16Z"/></g></svg>