<svg xmlns="http://www.w3.org/2000/svg" width="512" height="512" viewBox="0 0 512 512"><defs><style>.cls-1{fill:#f1582b;stroke:#fffeff;}.cls-1,.cls-3{stroke-miterlimit:10;stroke-width:2px;}.cls-2{opacity:0.25;}.cls-3{fill:none;stroke:#fff;}.cls-4{fill:#fff;}</style></defs><title>dledtk_8x8_cr</title><g id="_8x8" data-name="8x8"><g id="Crate"><rect id="Limits" class="cls-1" width="512" height="512"/><g id="Grid" class="cls-2"><line id="Diagonal" class="cls-3" x2="512" y2="512"/><line id="Diagonal-2" data-name="Diagonal" class="cls-3" x1="512" y2="512"/></g><g id="Size"><path class="cls-4" d="M53.32,46.41A12.18,12.18,0,0,1,61,48.65a7.24,7.24,0,0,1,2.83,6q0,5.27-6.33,8.39a16.23,16.23,0,0,1,5.73,4.24,7.94,7.94,0,0,1,1.7,5A8.38,8.38,0,0,1,61.86,79c-2.08,1.7-4.9,2.55-8.44,2.55q-5.58,0-8.65-2.39a8.07,8.07,0,0,1-3.07-6.77,8.73,8.73,0,0,1,1.6-5.15,13.53,13.53,0,0,1,5.27-4.07,13.19,13.19,0,0,1-4.48-4,8.5,8.5,0,0,1-1.34-4.68,7.06,7.06,0,0,1,2.93-5.94A12.33,12.33,0,0,1,53.32,46.41ZM47,72.24A4.53,4.53,0,0,0,48.68,76a7.3,7.3,0,0,0,4.64,1.35A7.12,7.12,0,0,0,58,76a4.66,4.66,0,0,0,1.68-3.79,4.88,4.88,0,0,0-1.55-3.47,14.63,14.63,0,0,0-4.69-2.9l-.67-.31a12.06,12.06,0,0,0-4.46,3A5.71,5.71,0,0,0,47,72.24Zm6.31-21.59a5.84,5.84,0,0,0-3.78,1.16A3.87,3.87,0,0,0,48.07,55a4.56,4.56,0,0,0,.52,2.18,5.46,5.46,0,0,0,1.5,1.75,18.78,18.78,0,0,0,3.33,1.89,11,11,0,0,0,4-2.62A4.81,4.81,0,0,0,58.55,55a3.85,3.85,0,0,0-1.44-3.15A6,6,0,0,0,53.28,50.65Z"/><path class="cls-4" d="M68.59,79.66A1.82,1.82,0,0,1,69,78.34a1.75,1.75,0,0,1,1.29-.45,1.69,1.69,0,0,1,1.3.47,1.81,1.81,0,0,1,.44,1.3A1.84,1.84,0,0,1,71.62,81a1.65,1.65,0,0,1-1.29.49A1.68,1.68,0,0,1,69,81,1.85,1.85,0,0,1,68.59,79.66Z"/><path class="cls-4" d="M80.48,63.77a6.08,6.08,0,0,1,3.85,1.11,3.62,3.62,0,0,1,1.42,3q0,2.64-3.16,4.19a8.19,8.19,0,0,1,2.86,2.13,4,4,0,0,1,.85,2.48,4.18,4.18,0,0,1-1.56,3.4,6.46,6.46,0,0,1-4.22,1.28,6.85,6.85,0,0,1-4.32-1.2,4.07,4.07,0,0,1-1.54-3.39,4.34,4.34,0,0,1,.81-2.57,6.66,6.66,0,0,1,2.63-2,6.65,6.65,0,0,1-2.24-2,4.24,4.24,0,0,1-.67-2.35,3.53,3.53,0,0,1,1.47-3A6.14,6.14,0,0,1,80.48,63.77ZM77.3,76.68a2.27,2.27,0,0,0,.86,1.89,4.3,4.3,0,0,0,4.67,0,2.36,2.36,0,0,0,.83-1.89,2.41,2.41,0,0,0-.77-1.74,7.25,7.25,0,0,0-2.34-1.45l-.34-.15A6,6,0,0,0,78,74.81,2.85,2.85,0,0,0,77.3,76.68Zm3.15-10.79a2.85,2.85,0,0,0-1.88.58A1.9,1.9,0,0,0,77.85,68a2.28,2.28,0,0,0,.26,1.09,2.91,2.91,0,0,0,.75.88,9.36,9.36,0,0,0,1.66.94,5.46,5.46,0,0,0,2-1.31,2.37,2.37,0,0,0,.58-1.6,1.9,1.9,0,0,0-.72-1.57A3,3,0,0,0,80.45,65.89Z"/></g><g id="Type"><path class="cls-4" d="M420.87,57.6a4.62,4.62,0,0,0-3.8,1.71A7.31,7.31,0,0,0,415.69,64,7.35,7.35,0,0,0,417,68.8a4.69,4.69,0,0,0,3.85,1.62,10.39,10.39,0,0,0,2.1-.22c.68-.15,1.39-.33,2.13-.56V72a12.84,12.84,0,0,1-4.57.77,7.3,7.3,0,0,1-5.78-2.28c-1.35-1.52-2-3.7-2-6.52a10.58,10.58,0,0,1,1-4.68,7,7,0,0,1,2.83-3.07,8.58,8.58,0,0,1,4.35-1.07,10.83,10.83,0,0,1,4.85,1.1l-1,2.34a13.39,13.39,0,0,0-1.83-.72A6.53,6.53,0,0,0,420.87,57.6Z"/><path class="cls-4" d="M431.59,65.73v6.84h-2.8V55.44h4.84a8,8,0,0,1,4.91,1.24,4.47,4.47,0,0,1,1.59,3.75q0,3.2-3.33,4.56l4.84,7.58h-3.18l-4.11-6.84Zm0-2.32h1.94a4.42,4.42,0,0,0,2.84-.73,2.61,2.61,0,0,0,.88-2.15,2.33,2.33,0,0,0-.95-2.09,5.23,5.23,0,0,0-2.86-.63h-1.85Z"/><path class="cls-4" d="M454.76,72.57,453,67.81h-6.55l-1.67,4.76h-2.95l6.41-17.2h3l6.41,17.2Zm-2.45-7.17-1.61-4.66c-.12-.32-.28-.81-.49-1.48s-.34-1.16-.42-1.48a26.12,26.12,0,0,1-.93,3.16l-1.55,4.46Z"/><path class="cls-4" d="M465.91,72.57h-2.8V57.84h-5v-2.4H471v2.4h-5Z"/><path class="cls-4" d="M483.27,72.57h-9.69V55.44h9.69v2.37h-6.89v4.66h6.45v2.34h-6.45v5.38h6.89Z"/></g></g></g></svg>