<svg xmlns="http://www.w3.org/2000/svg" width="64" height="256" viewBox="0 0 64 256"><defs><style>.cls-1{fill:#f80;}.cls-1,.cls-3{stroke:#fff;stroke-miterlimit:10;stroke-width:2px;}.cls-2{opacity:0.25;}.cls-3{fill:none;}.cls-4{fill:#fff;}</style></defs><title>dledtk_1x4_w</title><g id="_1x4" data-name="1x4"><g id="Wall"><rect id="Limits" class="cls-1" width="64" height="256"/><g id="Grid" class="cls-2"><line id="Horizontal" class="cls-3" x1="64" y1="128" y2="128"/></g><g id="Marks"><polygon id="Mark" class="cls-4" points="16 127 4 127 4 126 2 126 2 124 1 124 1 112 -1 112 -1 124 -2 124 -2 126 -4 126 -4 127 -16 127 -16 129 -4 129 -4 130 -2 130 -2 132 -1 132 -1 144 1 144 1 132 2 132 2 130 4 130 4 129 16 129 16 127"/><polygon id="Mark-2" data-name="Mark" class="cls-4" points="80 127 68 127 68 126 66 126 66 124 65 124 65 112 63 112 63 124 62 124 62 126 60 126 60 127 48 127 48 129 60 129 60 130 62 130 62 132 63 132 63 144 65 144 65 132 66 132 66 130 68 130 68 129 80 129 80 127"/></g><path class="cls-4" d="M36.13,200.4H33.08l-2.9-10.22c-.13-.45-.28-1.09-.47-1.93s-.3-1.42-.34-1.75c-.08.5-.21,1.15-.38,1.94s-.32,1.39-.44,1.78L25.71,200.4h-3l-2.22-8.58-2.25-8.56h2.86l2.45,10a42.47,42.47,0,0,1,.82,4.24c.09-.66.21-1.41.39-2.23s.32-1.48.47-2l2.78-10h2.78l2.86,10.06a39.65,39.65,0,0,1,.87,4.17,31.79,31.79,0,0,1,.84-4.27l2.44-10H40.6Z"/><path class="cls-4" d="M42.32,198.93a1.82,1.82,0,0,1,.44-1.31,1.71,1.71,0,0,1,1.29-.46,1.68,1.68,0,0,1,1.3.48,1.78,1.78,0,0,1,.45,1.29,1.85,1.85,0,0,1-.45,1.32,2,2,0,0,1-2.59,0A1.92,1.92,0,0,1,42.32,198.93Z"/><path class="cls-4" d="M24.84,81H19.33V58.84c0-2.64.06-4.74.19-6.28-.36.37-.8.79-1.32,1.24s-2.28,1.89-5.27,4.31l-2.76-3.49L20.25,46.7h4.59Z"/><path class="cls-4" d="M35.52,79.5A1.78,1.78,0,0,1,36,78.19a2,2,0,0,1,2.59,0A1.82,1.82,0,0,1,39,79.5a1.85,1.85,0,0,1-.46,1.32,2,2,0,0,1-2.58,0A1.85,1.85,0,0,1,35.52,79.5Z"/><path class="cls-4" d="M53.83,77.22H51.52V81H48.84V77.22H41V75.1l7.83-11.32h2.68V74.94h2.31Zm-5-2.28v-4.3c0-1.53,0-2.79.12-3.76h-.1a13.32,13.32,0,0,1-1,1.87l-4.25,6.19Z"/></g></g></svg>