<svg xmlns="http://www.w3.org/2000/svg" width="64" height="384" viewBox="0 0 64 384"><defs><style>.cls-1{fill:#cccccb;}.cls-1,.cls-3{stroke:#666766;stroke-miterlimit:10;stroke-width:2px;}.cls-2{opacity:0.25;}.cls-3{fill:none;}.cls-4{fill:#666766;}.cls-5{fill:#666;}</style></defs><title>dledtk_1x6_c</title><g id="_1x6" data-name="1x6"><g id="Ceiling"><rect id="Limits" class="cls-1" width="64" height="384"/><g id="Grid" class="cls-2"><line id="Horizontal" class="cls-3" x1="64" y1="256" y2="256"/><line id="Horizontal-2" data-name="Horizontal" class="cls-3" x1="64" y1="128" y2="128"/></g><g id="Marks"><polygon id="Mark" class="cls-4" points="16 127 4 127 4 126 2 126 2 124 1 124 1 112 -1 112 -1 124 -2 124 -2 126 -4 126 -4 127 -16 127 -16 129 -4 129 -4 130 -2 130 -2 132 -1 132 -1 144 1 144 1 132 2 132 2 130 4 130 4 129 16 129 16 127"/><polygon id="Mark-2" data-name="Mark" class="cls-4" points="80 127 68 127 68 126 66 126 66 124 65 124 65 112 63 112 63 124 62 124 62 126 60 126 60 127 48 127 48 129 60 129 60 130 62 130 62 132 63 132 63 144 65 144 65 132 66 132 66 130 68 130 68 129 80 129 80 127"/><polygon id="Mark-3" data-name="Mark" class="cls-4" points="16 255 4 255 4 254 2 254 2 252 1 252 1 240 -1 240 -1 252 -2 252 -2 254 -4 254 -4 255 -16 255 -16 257 -4 257 -4 258 -2 258 -2 260 -1 260 -1 272 1 272 1 260 2 260 2 258 4 258 4 257 16 257 16 255"/><polygon id="Mark-4" data-name="Mark" class="cls-4" points="80 255 68 255 68 254 66 254 66 252 65 252 65 240 63 240 63 252 62 252 62 254 60 254 60 255 48 255 48 257 60 257 60 258 62 258 62 260 63 260 63 272 65 272 65 260 66 260 66 258 68 258 68 257 80 257 80 255"/></g><path class="cls-5" d="M30.72,313.54a4.62,4.62,0,0,0-3.8,1.71,9,9,0,0,0-.05,9.5,4.71,4.71,0,0,0,3.85,1.61,10.49,10.49,0,0,0,2.11-.21c.68-.15,1.38-.33,2.12-.56V328a12.85,12.85,0,0,1-4.57.76,7.3,7.3,0,0,1-5.78-2.28,9.53,9.53,0,0,1-2-6.52,10.53,10.53,0,0,1,1-4.67,7,7,0,0,1,2.83-3.07,8.6,8.6,0,0,1,4.35-1.07,10.83,10.83,0,0,1,4.85,1.1l-1,2.33a15.84,15.84,0,0,0-1.83-.72A6.79,6.79,0,0,0,30.72,313.54Z"/><path class="cls-5" d="M37.94,327.05a1.79,1.79,0,0,1,.44-1.31,1.75,1.75,0,0,1,1.29-.45,1.69,1.69,0,0,1,1.3.47,2.1,2.1,0,0,1,0,2.61,1.65,1.65,0,0,1-1.29.49,1.68,1.68,0,0,1-1.29-.48A1.86,1.86,0,0,1,37.94,327.05Z"/><path class="cls-5" d="M25.11,81H19.6V58.84c0-2.64.06-4.74.19-6.28-.36.37-.8.79-1.33,1.24s-2.27,1.89-5.26,4.31l-2.76-3.49L20.52,46.7h4.59Z"/><path class="cls-5" d="M35.79,79.5a1.78,1.78,0,0,1,.44-1.31,2,2,0,0,1,2.59,0,1.82,1.82,0,0,1,.45,1.3,1.85,1.85,0,0,1-.46,1.32,2,2,0,0,1-2.58,0A1.85,1.85,0,0,1,35.79,79.5Z"/><path class="cls-5" d="M41.93,73.66q0-10.05,8.19-10a9.75,9.75,0,0,1,2.18.2V66.1a7.57,7.57,0,0,0-2.07-.25,5.41,5.41,0,0,0-4.13,1.47,7.2,7.2,0,0,0-1.5,4.74h.14a3.67,3.67,0,0,1,1.55-1.47,4.93,4.93,0,0,1,2.34-.53,4.68,4.68,0,0,1,3.63,1.43,5.55,5.55,0,0,1,1.3,3.88,5.89,5.89,0,0,1-1.5,4.26A5.43,5.43,0,0,1,48,81.2a5.74,5.74,0,0,1-3.2-.89,5.63,5.63,0,0,1-2.09-2.58A10.14,10.14,0,0,1,41.93,73.66Zm6,5.26A2.69,2.69,0,0,0,50.09,78a4,4,0,0,0,.77-2.61,3.4,3.4,0,0,0-.73-2.32A2.66,2.66,0,0,0,48,72.23a3.63,3.63,0,0,0-1.64.38,3,3,0,0,0-1.18,1A2.43,2.43,0,0,0,44.71,75a4.32,4.32,0,0,0,.9,2.78A2.78,2.78,0,0,0,47.9,78.92Z"/></g></g></svg>