<svg xmlns="http://www.w3.org/2000/svg" width="384" height="384" viewBox="0 0 384 384"><defs><style>.cls-1{fill:#f80;stroke:#fffeff;stroke-miterlimit:10;stroke-width:2px;}.cls-2{fill:#fff;}</style></defs><title>dledtk_6x6_ph</title><g id="_6x6" data-name="6x6"><g id="Hexadecagon"><polygon id="Limits" class="cls-1" points="118.53 14.62 56.24 56.23 14.62 118.53 0 192 14.62 265.48 56.23 327.76 118.53 369.38 192 384 265.48 369.38 327.76 327.76 369.38 265.48 384 192 369.38 118.53 327.76 56.24 265.48 14.62 192 0 118.53 14.62"/><g id="Size"><path class="cls-2" d="M169.73,66.52q0-20.11,16.39-20.11a20,20,0,0,1,4.36.4V51.4a15.1,15.1,0,0,0-4.13-.51q-5.5,0-8.27,3t-3,9.47h.28a7.43,7.43,0,0,1,3.09-2.94,9.92,9.92,0,0,1,4.69-1,9.36,9.36,0,0,1,7.27,2.86,11.13,11.13,0,0,1,2.6,7.76c0,3.6-1,6.44-3,8.52a10.87,10.87,0,0,1-8.22,3.13,11.49,11.49,0,0,1-6.4-1.77,11.33,11.33,0,0,1-4.18-5.16A20.35,20.35,0,0,1,169.73,66.52Zm12,10.52a5.38,5.38,0,0,0,4.37-1.83A7.91,7.91,0,0,0,187.59,70a6.91,6.91,0,0,0-1.44-4.64,5.35,5.35,0,0,0-4.32-1.69,7.1,7.1,0,0,0-3.28.76,6.1,6.1,0,0,0-2.37,2.09,4.85,4.85,0,0,0-.87,2.7,8.66,8.66,0,0,0,1.8,5.57A5.58,5.58,0,0,0,181.69,77Z"/><path class="cls-2" d="M196.49,79.66a1.86,1.86,0,0,1,.44-1.32,1.75,1.75,0,0,1,1.29-.45,1.67,1.67,0,0,1,1.3.47,1.82,1.82,0,0,1,.45,1.3,1.84,1.84,0,0,1-.45,1.31,1.66,1.66,0,0,1-1.3.49,1.68,1.68,0,0,1-1.29-.48A1.9,1.9,0,0,1,196.49,79.66Z"/><path class="cls-2" d="M202.63,73.82q0-10,8.19-10A10.38,10.38,0,0,1,213,64v2.3a7.48,7.48,0,0,0-2.06-.26,5.42,5.42,0,0,0-4.14,1.48,7.17,7.17,0,0,0-1.5,4.73h.14A3.79,3.79,0,0,1,207,70.74a5,5,0,0,1,2.34-.52A4.65,4.65,0,0,1,213,71.65a5.56,5.56,0,0,1,1.31,3.88,5.89,5.89,0,0,1-1.51,4.26,5.44,5.44,0,0,1-4.11,1.57,5.76,5.76,0,0,1-3.2-.89,5.7,5.7,0,0,1-2.09-2.58A10.18,10.18,0,0,1,202.63,73.82Zm6,5.26a2.68,2.68,0,0,0,2.18-.91,4,4,0,0,0,.77-2.62,3.48,3.48,0,0,0-.72-2.32,2.69,2.69,0,0,0-2.16-.84,3.6,3.6,0,0,0-1.64.38,3.09,3.09,0,0,0-1.19,1,2.47,2.47,0,0,0-.43,1.36,4.37,4.37,0,0,0,.89,2.78A2.8,2.8,0,0,0,208.61,79.08Z"/></g><g id="Type"><path class="cls-2" d="M118.07,328.58h-2.82v-7.72h-7.89v7.72h-2.81V311.45h2.81v7h7.89v-7h2.82Z"/><path class="cls-2" d="M132.27,328.58h-9.69V311.45h9.69v2.37h-6.89v4.66h6.46v2.35h-6.46v5.38h6.89Z"/><path class="cls-2" d="M148.59,328.58h-3.22l-4.29-7-4.32,7h-3l5.68-8.88-5.32-8.25h3.12l4,6.48,4-6.48h3l-5.35,8.3Z"/><path class="cls-2" d="M161.53,328.58l-1.71-4.75h-6.55l-1.68,4.75h-3l6.41-17.2h3l6.41,17.2Zm-2.45-7.17-1.6-4.66c-.12-.31-.28-.81-.49-1.48s-.35-1.16-.43-1.48a26.72,26.72,0,0,1-.92,3.16l-1.55,4.46Z"/><path class="cls-2" d="M180.7,319.85q0,4.25-2.35,6.49c-1.57,1.5-3.83,2.24-6.79,2.24h-4.79V311.45h5.3a8.81,8.81,0,0,1,6.36,2.2A8.22,8.22,0,0,1,180.7,319.85Zm-2.95.1c0-4.1-1.92-6.16-5.75-6.16h-2.43v12.44h2Q177.76,326.23,177.75,320Z"/><path class="cls-2" d="M194.07,328.58h-9.69V311.45h9.69v2.37h-6.89v4.66h6.46v2.35h-6.46v5.38h6.89Z"/><path class="cls-2" d="M205.07,313.61a4.62,4.62,0,0,0-3.8,1.71,9,9,0,0,0-.05,9.49,4.69,4.69,0,0,0,3.85,1.62,9.81,9.81,0,0,0,2.11-.22c.68-.14,1.38-.33,2.12-.56v2.41a13.07,13.07,0,0,1-4.57.76,7.3,7.3,0,0,1-5.78-2.28,9.55,9.55,0,0,1-2-6.52,10.61,10.61,0,0,1,1-4.68,7,7,0,0,1,2.83-3.07,8.6,8.6,0,0,1,4.35-1.06,10.69,10.69,0,0,1,4.85,1.1l-1,2.33a15.84,15.84,0,0,0-1.83-.72A6.48,6.48,0,0,0,205.07,313.61Z"/><path class="cls-2" d="M223.62,328.58l-1.71-4.75h-6.55l-1.68,4.75h-3l6.41-17.2h3l6.41,17.2Zm-2.45-7.17-1.61-4.66c-.11-.31-.28-.81-.48-1.48s-.35-1.16-.43-1.48a25.1,25.1,0,0,1-.93,3.16l-1.54,4.46Z"/><path class="cls-2" d="M235.86,319.29h6.31v8.6a17.75,17.75,0,0,1-3,.72,21.2,21.2,0,0,1-3.08.21,7.75,7.75,0,0,1-6-2.3A9.28,9.28,0,0,1,228,320a8.66,8.66,0,0,1,2.38-6.48,8.94,8.94,0,0,1,6.55-2.33,12.72,12.72,0,0,1,5.09,1l-1,2.33a9.9,9.9,0,0,0-4.17-1,5.59,5.59,0,0,0-4.33,1.72,6.64,6.64,0,0,0-1.6,4.71,7,7,0,0,0,1.44,4.78,5.19,5.19,0,0,0,4.13,1.63,13.34,13.34,0,0,0,2.9-.34v-4.42h-3.55Z"/><path class="cls-2" d="M261.49,320a9.41,9.41,0,0,1-2.09,6.51,8.79,8.79,0,0,1-11.88,0,9.43,9.43,0,0,1-2.08-6.55c0-2.83.69-5,2.09-6.51a7.68,7.68,0,0,1,6-2.28,7.55,7.55,0,0,1,5.91,2.31A9.37,9.37,0,0,1,261.49,320Zm-13.08,0a7.69,7.69,0,0,0,1.28,4.8,5.19,5.19,0,0,0,7.55,0,9.71,9.71,0,0,0,0-9.6,4.48,4.48,0,0,0-3.76-1.63,4.55,4.55,0,0,0-3.8,1.63A7.59,7.59,0,0,0,248.41,320Z"/><path class="cls-2" d="M279.45,328.58H276l-8.42-13.65h-.1l.06.76c.11,1.46.16,2.78.16,4v8.9h-2.54V311.45h3.4L277,325H277c0-.18,0-.83-.09-2s-.07-2-.07-2.64v-9h2.57Z"/></g></g></g></svg>