<svg xmlns="http://www.w3.org/2000/svg" width="128" height="128" viewBox="0 0 128 128"><defs><style>.cls-1{fill:#f1582b;stroke:#fffeff;}.cls-1,.cls-3{stroke-miterlimit:10;stroke-width:2px;}.cls-2{opacity:0.25;}.cls-3{fill:none;stroke:#fff;}.cls-4{fill:#fff;}</style></defs><title>dledtk_2x2_cr</title><g id="_2x2" data-name="2x2"><g id="Crate"><rect id="Limits" class="cls-1" width="128" height="128"/><g id="Grid" class="cls-2"><line id="Diagonal" class="cls-3" x2="128" y2="128"/><line id="Diagonal-2" data-name="Diagonal" class="cls-3" x1="128" y2="128"/></g><g id="Size"><path class="cls-4" d="M65,49.21H41.72V45l8.84-8.89a73.8,73.8,0,0,0,5.19-5.68,13.72,13.72,0,0,0,1.86-3.15,8.55,8.55,0,0,0,.59-3.17,4.82,4.82,0,0,0-1.4-3.65A5.34,5.34,0,0,0,53,19.16a10.2,10.2,0,0,0-3.81.73,17.76,17.76,0,0,0-4.25,2.62l-3-3.63a19.26,19.26,0,0,1,5.55-3.42,16.37,16.37,0,0,1,5.75-1A11.27,11.27,0,0,1,60.87,17a8.42,8.42,0,0,1,2.88,6.71,11.68,11.68,0,0,1-.83,4.41,17.75,17.75,0,0,1-2.55,4.3,58.83,58.83,0,0,1-5.73,6l-6,5.76v.24H65Z"/><path class="cls-4" d="M68.57,47.74A1.8,1.8,0,0,1,69,46.43a2,2,0,0,1,2.59,0,2.14,2.14,0,0,1,0,2.61,2,2,0,0,1-2.58,0A1.86,1.86,0,0,1,68.57,47.74Z"/><path class="cls-4" d="M86.28,49.21H74.66V47.12l4.42-4.44a36.34,36.34,0,0,0,2.6-2.84,7,7,0,0,0,.93-1.58,4.35,4.35,0,0,0,.29-1.58,2.44,2.44,0,0,0-.69-1.83,2.71,2.71,0,0,0-1.93-.66,5.22,5.22,0,0,0-1.91.36,8.86,8.86,0,0,0-2.12,1.31L74.76,34a9.74,9.74,0,0,1,2.78-1.71,8.21,8.21,0,0,1,2.87-.5,5.66,5.66,0,0,1,3.83,1.25,4.21,4.21,0,0,1,1.44,3.36,5.86,5.86,0,0,1-.42,2.2A8.94,8.94,0,0,1,84,40.79a28.61,28.61,0,0,1-2.87,3l-3,2.89v.11h8.14Z"/></g><g id="Type"><path class="cls-4" d="M36.87,89.6a4.62,4.62,0,0,0-3.8,1.71,9,9,0,0,0,0,9.49,4.69,4.69,0,0,0,3.85,1.62,10.39,10.39,0,0,0,2.1-.22c.68-.15,1.39-.33,2.13-.56V104a12.84,12.84,0,0,1-4.57.77,7.3,7.3,0,0,1-5.78-2.28c-1.35-1.52-2-3.7-2-6.52a10.58,10.58,0,0,1,1-4.68,7,7,0,0,1,2.83-3.07,8.58,8.58,0,0,1,4.35-1.07,10.83,10.83,0,0,1,4.85,1.1l-1,2.34a13.39,13.39,0,0,0-1.83-.72A6.53,6.53,0,0,0,36.87,89.6Z"/><path class="cls-4" d="M47.59,97.73v6.84h-2.8V87.44h4.84a8,8,0,0,1,4.91,1.24,4.47,4.47,0,0,1,1.59,3.75q0,3.19-3.33,4.56l4.84,7.58H54.46l-4.11-6.84Zm0-2.32h1.94a4.42,4.42,0,0,0,2.84-.73,2.61,2.61,0,0,0,.88-2.15,2.33,2.33,0,0,0-1-2.09,5.23,5.23,0,0,0-2.86-.63H47.59Z"/><path class="cls-4" d="M70.76,104.57,69,99.81H62.49l-1.67,4.76h-3l6.41-17.2h3l6.41,17.2ZM68.31,97.4,66.7,92.74c-.12-.32-.28-.81-.49-1.48s-.34-1.16-.42-1.48a26.12,26.12,0,0,1-.93,3.16L63.31,97.4Z"/><path class="cls-4" d="M81.91,104.57h-2.8V89.84h-5v-2.4H87v2.4h-5Z"/><path class="cls-4" d="M99.27,104.57H89.58V87.44h9.69v2.37H92.38v4.66h6.45v2.34H92.38v5.38h6.89Z"/></g></g></g></svg>