<svg xmlns="http://www.w3.org/2000/svg" width="128" height="128" viewBox="0 0 128 128"><defs><style>.cls-1{fill:#f80;stroke:#fffeff;stroke-miterlimit:10;stroke-width:2px;}.cls-2{fill:#fff;}</style></defs><title>dledtk_2x2_po</title><g id="_2x2" data-name="2x2"><g id="Octagon"><polygon id="Limits" class="cls-1" points="18.75 18.75 0 64 18.75 109.25 64 128 109.25 109.25 128 64 109.25 18.75 64 0 18.75 18.75"/><g id="Size"><path class="cls-2" d="M65,49.21H41.72V45l8.84-8.89a73.8,73.8,0,0,0,5.19-5.68,13.72,13.72,0,0,0,1.86-3.15,8.55,8.55,0,0,0,.59-3.17,4.82,4.82,0,0,0-1.4-3.65A5.34,5.34,0,0,0,53,19.16a10.2,10.2,0,0,0-3.81.73,17.76,17.76,0,0,0-4.25,2.62l-3-3.63a19.26,19.26,0,0,1,5.55-3.42,16.37,16.37,0,0,1,5.75-1A11.27,11.27,0,0,1,60.87,17a8.42,8.42,0,0,1,2.88,6.71,11.68,11.68,0,0,1-.83,4.41,17.75,17.75,0,0,1-2.55,4.3,58.83,58.83,0,0,1-5.73,6l-6,5.76v.24H65Z"/><path class="cls-2" d="M68.57,47.74A1.8,1.8,0,0,1,69,46.43a2,2,0,0,1,2.59,0,2.14,2.14,0,0,1,0,2.61,2,2,0,0,1-2.58,0A1.86,1.86,0,0,1,68.57,47.74Z"/><path class="cls-2" d="M86.28,49.21H74.66V47.12l4.42-4.44a36.34,36.34,0,0,0,2.6-2.84,7,7,0,0,0,.93-1.58,4.35,4.35,0,0,0,.29-1.58,2.44,2.44,0,0,0-.69-1.83,2.71,2.71,0,0,0-1.93-.66,5.22,5.22,0,0,0-1.91.36,8.86,8.86,0,0,0-2.12,1.31L74.76,34a9.74,9.74,0,0,1,2.78-1.71,8.21,8.21,0,0,1,2.87-.5,5.66,5.66,0,0,1,3.83,1.25,4.21,4.21,0,0,1,1.44,3.36,5.86,5.86,0,0,1-.42,2.2A8.94,8.94,0,0,1,84,40.79a28.61,28.61,0,0,1-2.87,3l-3,2.89v.11h8.14Z"/></g><g id="Type"><path class="cls-2" d="M46.47,95.94a9.41,9.41,0,0,1-2.09,6.51,7.6,7.6,0,0,1-5.93,2.32,7.62,7.62,0,0,1-6-2.31,9.44,9.44,0,0,1-2.08-6.54,9.28,9.28,0,0,1,2.1-6.52,7.71,7.71,0,0,1,6-2.27,7.54,7.54,0,0,1,5.9,2.31A9.35,9.35,0,0,1,46.47,95.94Zm-13.08,0a7.69,7.69,0,0,0,1.28,4.8,4.5,4.5,0,0,0,3.78,1.64,4.5,4.5,0,0,0,3.77-1.62,7.7,7.7,0,0,0,1.27-4.82,7.72,7.72,0,0,0-1.26-4.78,4.44,4.44,0,0,0-3.75-1.63,4.56,4.56,0,0,0-3.81,1.63A7.65,7.65,0,0,0,33.39,95.94Z"/><path class="cls-2" d="M57.44,89.55a4.63,4.63,0,0,0-3.8,1.72,9,9,0,0,0,0,9.49,4.69,4.69,0,0,0,3.85,1.62,10.49,10.49,0,0,0,2.11-.22c.68-.15,1.38-.33,2.12-.56V104a12.84,12.84,0,0,1-4.57.77,7.3,7.3,0,0,1-5.78-2.28,9.58,9.58,0,0,1-2-6.53,10.56,10.56,0,0,1,1-4.67,7,7,0,0,1,2.83-3.07,8.6,8.6,0,0,1,4.35-1.07,10.83,10.83,0,0,1,4.85,1.1l-1,2.34a12.44,12.44,0,0,0-1.83-.72A6.49,6.49,0,0,0,57.44,89.55Z"/><path class="cls-2" d="M71.28,104.53h-2.8V89.8h-5V87.4H76.32v2.4h-5Z"/><path class="cls-2" d="M89.57,104.53l-1.71-4.76H81.31l-1.68,4.76H76.68l6.41-17.2h3l6.41,17.2Zm-2.45-7.17-1.6-4.66c-.12-.32-.28-.81-.49-1.48s-.35-1.17-.43-1.48a27.16,27.16,0,0,1-.92,3.15l-1.55,4.47Z"/><path class="cls-2" d="M94.11,103.07a1.82,1.82,0,0,1,.44-1.32,1.75,1.75,0,0,1,1.29-.45,1.72,1.72,0,0,1,1.3.47,2.1,2.1,0,0,1,0,2.61,1.65,1.65,0,0,1-1.29.49,1.68,1.68,0,0,1-1.29-.48A1.85,1.85,0,0,1,94.11,103.07Z"/></g></g></g></svg>