<svg xmlns="http://www.w3.org/2000/svg" width="128" height="64" viewBox="0 0 128 64"><defs><style>.cls-1{fill:#f80;stroke:#fff;stroke-miterlimit:10;stroke-width:2px;}.cls-2{fill:#fff;}</style></defs><title>dledtk_2x1_w</title><g id="_2x1" data-name="2x1"><g id="Wall"><rect id="Limits" class="cls-1" width="128" height="64"/><g id="Size"><path class="cls-2" d="M34.71,49.21H11.49V45l8.83-8.89a73.8,73.8,0,0,0,5.19-5.68,13.44,13.44,0,0,0,1.87-3.15A8.54,8.54,0,0,0,28,24.15a4.82,4.82,0,0,0-1.39-3.65,5.36,5.36,0,0,0-3.86-1.34,10.2,10.2,0,0,0-3.81.73,18,18,0,0,0-4.25,2.62l-3-3.63a19.17,19.17,0,0,1,5.56-3.42,16.31,16.31,0,0,1,5.74-1A11.25,11.25,0,0,1,30.63,17a8.4,8.4,0,0,1,2.89,6.71,11.88,11.88,0,0,1-.83,4.41,18.14,18.14,0,0,1-2.56,4.3,58.83,58.83,0,0,1-5.73,6l-5.95,5.76v.24H34.71Z"/><path class="cls-2" d="M38.33,47.74a1.8,1.8,0,0,1,.45-1.31A1.75,1.75,0,0,1,40.07,46a1.69,1.69,0,0,1,1.3.48,1.81,1.81,0,0,1,.44,1.29,1.85,1.85,0,0,1-.45,1.32,1.65,1.65,0,0,1-1.29.49,1.68,1.68,0,0,1-1.29-.48A1.86,1.86,0,0,1,38.33,47.74Z"/><path class="cls-2" d="M52.51,49.21H49.76V38.15c0-1.32,0-2.37.09-3.14-.18.18-.4.39-.66.62l-2.63,2.15L45.18,36l5-4h2.29Z"/></g><g id="Type"><path class="cls-2" d="M100.13,40.4h-3l-2.9-10.22c-.13-.45-.28-1.09-.47-1.93s-.3-1.43-.34-1.75c-.08.5-.21,1.15-.38,1.94s-.32,1.39-.44,1.78L89.71,40.4h-3l-2.22-8.58L82.2,23.26h2.86l2.45,10a42.47,42.47,0,0,1,.82,4.24c.09-.67.21-1.41.39-2.23s.32-1.48.47-2l2.78-10h2.78l2.86,10.06a39.65,39.65,0,0,1,.87,4.17,31.79,31.79,0,0,1,.84-4.27l2.44-10h2.84Z"/><path class="cls-2" d="M106.32,38.93a1.82,1.82,0,0,1,.44-1.31,1.71,1.71,0,0,1,1.29-.46,1.68,1.68,0,0,1,1.3.48,1.78,1.78,0,0,1,.45,1.29,1.87,1.87,0,0,1-.45,1.32,2,2,0,0,1-2.59,0A1.9,1.9,0,0,1,106.32,38.93Z"/></g></g></g></svg>