<svg xmlns="http://www.w3.org/2000/svg" width="256" height="64" viewBox="0 0 256 64"><defs><style>.cls-1{fill:#f80;}.cls-1,.cls-3{stroke:#fff;stroke-miterlimit:10;stroke-width:2px;}.cls-2{opacity:0.25;}.cls-3{fill:none;}.cls-4{fill:#fff;}</style></defs><title>dledtk_4x1_w</title><g id="_4x1" data-name="4x1"><g id="Wall"><rect id="Limits" class="cls-1" width="256" height="64"/><g id="Grid" class="cls-2"><line id="Vertical" class="cls-3" x1="128" x2="128" y2="64"/></g><g id="Marks"><polygon id="Mark" class="cls-4" points="144 -1 132 -1 132 -2 130 -2 130 -4 129 -4 129 -16 127 -16 127 -4 126 -4 126 -2 124 -2 124 -1 112 -1 112 1 124 1 124 2 126 2 126 4 127 4 127 16 129 16 129 4 130 4 130 2 132 2 132 1 144 1 144 -1"/><polygon id="Mark-2" data-name="Mark" class="cls-4" points="144 63 132 63 132 62 130 62 130 60 129 60 129 48 127 48 127 60 126 60 126 62 124 62 124 63 112 63 112 65 124 65 124 66 126 66 126 68 127 68 127 80 129 80 129 68 130 68 130 66 132 66 132 65 144 65 144 63"/></g><g id="Size"><path class="cls-4" d="M68.53,41.53H63.91V49H58.54V41.53H42.89V37.29L58.54,14.65h5.37V37h4.62ZM58.54,37v-8.6q0-4.59.24-7.52h-.19a26.67,26.67,0,0,1-2.06,3.75L48,37Z"/><path class="cls-4" d="M70.93,47.54a1.8,1.8,0,0,1,.45-1.31,1.71,1.71,0,0,1,1.29-.45,1.69,1.69,0,0,1,1.3.47,2.14,2.14,0,0,1,0,2.61,2,2,0,0,1-2.58,0A1.86,1.86,0,0,1,70.93,47.54Z"/><path class="cls-4" d="M85.11,49H82.36V38c0-1.32,0-2.37.09-3.14-.18.18-.4.39-.66.62l-2.63,2.15-1.38-1.74,5-4h2.3Z"/></g><g id="Type"><path class="cls-4" d="M178.05,40.6h-3L172.1,30.38c-.12-.44-.28-1.09-.47-1.92s-.3-1.43-.34-1.76c-.08.5-.2,1.15-.38,1.95s-.32,1.39-.44,1.78L167.64,40.6h-3L162.38,32l-2.25-8.55H163l2.45,10a39.93,39.93,0,0,1,.82,4.25c.09-.67.22-1.41.39-2.23s.33-1.49.47-2l2.79-10h2.78l2.86,10.05a37.45,37.45,0,0,1,.86,4.18,30.53,30.53,0,0,1,.85-4.27l2.43-10h2.84Z"/><path class="cls-4" d="M195.57,40.6l-1.71-4.76h-6.55l-1.67,4.76h-3l6.41-17.2h3l6.41,17.2Zm-2.44-7.17-1.61-4.66c-.12-.32-.28-.81-.49-1.48s-.35-1.17-.42-1.48a27.35,27.35,0,0,1-.93,3.15l-1.55,4.47Z"/><path class="cls-4" d="M200.81,40.6V23.47h2.8V38.2h7.26v2.4Z"/><path class="cls-4" d="M213.82,40.6V23.47h2.8V38.2h7.26v2.4Z"/></g></g></g></svg>