<svg id="_8x8" data-name="8x8" xmlns="http://www.w3.org/2000/svg" width="512" height="512" viewBox="0 0 512 512">
  <defs>
    <style>
      .cls-1 {
        fill: #f80;
        stroke: #fffeff;
        stroke-miterlimit: 10;
        stroke-width: 2px;
      }

      .cls-2 {
        fill: #fff;
      }
    </style>
  </defs>
  <title>dledtk_8x8_tc</title>
  <g id="Trigon_c_" data-name="Trigon (c)">
    <polygon id="Limits" class="cls-1" points="512 512 512 0 0 0 512 512"/>
    <g id="Size">
      <path class="cls-2" d="M459,20a12.13,12.13,0,0,1,7.71,2.24,7.24,7.24,0,0,1,2.84,6q0,5.26-6.33,8.39A16.23,16.23,0,0,1,469,40.86a7.94,7.94,0,0,1,1.7,5,8.35,8.35,0,0,1-3.12,6.8c-2.07,1.7-4.89,2.55-8.43,2.55q-5.58,0-8.65-2.39A8.07,8.07,0,0,1,447.4,46a8.73,8.73,0,0,1,1.6-5.15,13.53,13.53,0,0,1,5.27-4.07,13.19,13.19,0,0,1-4.48-4,8.5,8.5,0,0,1-1.34-4.68,7.09,7.09,0,0,1,2.93-5.95A12.39,12.39,0,0,1,459,20Zm-6.35,25.83a4.54,4.54,0,0,0,1.71,3.78A7.3,7.3,0,0,0,459,51a7.12,7.12,0,0,0,4.7-1.39,4.66,4.66,0,0,0,1.68-3.79,4.88,4.88,0,0,0-1.55-3.47,14.63,14.63,0,0,0-4.69-2.9l-.68-.31a12.1,12.1,0,0,0-4.45,3A5.65,5.65,0,0,0,452.67,45.83ZM459,24.24a5.84,5.84,0,0,0-3.78,1.16,3.87,3.87,0,0,0-1.43,3.15,4.56,4.56,0,0,0,.52,2.18,5.46,5.46,0,0,0,1.5,1.75,18.42,18.42,0,0,0,3.33,1.89,11,11,0,0,0,4-2.62,4.81,4.81,0,0,0,1.16-3.2,3.85,3.85,0,0,0-1.44-3.15A6,6,0,0,0,459,24.24Z"/>
      <path class="cls-2" d="M474.29,53.25a1.82,1.82,0,0,1,.45-1.32,1.73,1.73,0,0,1,1.29-.45,1.69,1.69,0,0,1,1.3.47,1.81,1.81,0,0,1,.44,1.3,1.84,1.84,0,0,1-.45,1.31,2,2,0,0,1-2.58,0A1.85,1.85,0,0,1,474.29,53.25Z"/>
      <path class="cls-2" d="M486.18,37.36A6.08,6.08,0,0,1,490,38.47a3.62,3.62,0,0,1,1.42,3c0,1.76-1.06,3.16-3.16,4.19a8.19,8.19,0,0,1,2.86,2.13,4,4,0,0,1,.85,2.48,4.18,4.18,0,0,1-1.56,3.4A6.46,6.46,0,0,1,486.22,55a6.85,6.85,0,0,1-4.32-1.2,4,4,0,0,1-1.54-3.39,4.34,4.34,0,0,1,.81-2.57,6.66,6.66,0,0,1,2.63-2,6.65,6.65,0,0,1-2.24-2,4.24,4.24,0,0,1-.67-2.35,3.53,3.53,0,0,1,1.47-3A6.14,6.14,0,0,1,486.18,37.36ZM483,50.27a2.27,2.27,0,0,0,.86,1.89,4.3,4.3,0,0,0,4.67,0,2.36,2.36,0,0,0,.83-1.89,2.41,2.41,0,0,0-.77-1.74,7.37,7.37,0,0,0-2.34-1.45l-.34-.15a6,6,0,0,0-2.23,1.49A2.85,2.85,0,0,0,483,50.27Zm3.15-10.79a2.85,2.85,0,0,0-1.88.58,1.9,1.9,0,0,0-.72,1.57,2.28,2.28,0,0,0,.26,1.09,2.91,2.91,0,0,0,.75.88,9.36,9.36,0,0,0,1.66.94,5.46,5.46,0,0,0,2-1.31,2.37,2.37,0,0,0,.58-1.6,1.9,1.9,0,0,0-.72-1.57A3,3,0,0,0,486.15,39.48Z"/>
    </g>
    <g id="Type">
      <path class="cls-2" d="M87.87,46.17h-2.8V31.44H80V29H92.91v2.4h-5Z"/>
      <path class="cls-2" d="M98.33,39.33v6.84h-2.8V29h4.84a8,8,0,0,1,4.91,1.24A4.47,4.47,0,0,1,106.87,34a4.67,4.67,0,0,1-3.32,4.56l4.84,7.58H105.2l-4.1-6.84Zm0-2.32h2a4.38,4.38,0,0,0,2.83-.73,2.61,2.61,0,0,0,.88-2.15A2.31,2.31,0,0,0,103,32a5.2,5.2,0,0,0-2.86-.63H98.33Z"/>
      <path class="cls-2" d="M110.87,46.17V29h2.8V46.17Z"/>
      <path class="cls-2" d="M125.2,36.88h6.31v8.6a17.75,17.75,0,0,1-3,.72,21.2,21.2,0,0,1-3.08.21,7.75,7.75,0,0,1-6-2.3,9.28,9.28,0,0,1-2.11-6.5,8.66,8.66,0,0,1,2.38-6.48,8.94,8.94,0,0,1,6.55-2.33,12.72,12.72,0,0,1,5.09,1l-1,2.33a9.9,9.9,0,0,0-4.17-1,5.63,5.63,0,0,0-4.34,1.72,6.68,6.68,0,0,0-1.59,4.71,7,7,0,0,0,1.44,4.78A5.19,5.19,0,0,0,125.85,44a13.34,13.34,0,0,0,2.9-.34V39.28H125.2Z"/>
      <path class="cls-2" d="M150.83,37.58a9.41,9.41,0,0,1-2.09,6.51,8.79,8.79,0,0,1-11.88,0,9.43,9.43,0,0,1-2.08-6.55c0-2.83.69-5,2.09-6.51a7.68,7.68,0,0,1,6-2.28,7.55,7.55,0,0,1,5.91,2.31A9.37,9.37,0,0,1,150.83,37.58Zm-13.08,0a7.69,7.69,0,0,0,1.28,4.8,5.19,5.19,0,0,0,7.55,0,7.68,7.68,0,0,0,1.28-4.82,7.72,7.72,0,0,0-1.26-4.78,4.48,4.48,0,0,0-3.76-1.63A4.55,4.55,0,0,0,139,32.8,7.59,7.59,0,0,0,137.75,37.58Z"/>
      <path class="cls-2" d="M168.78,46.17h-3.43l-8.42-13.65h-.1l.06.76c.11,1.46.16,2.78.16,4v8.9h-2.54V29h3.4l8.4,13.58h.07c0-.18,0-.83-.09-2s-.07-2-.07-2.64V29h2.56Z"/>
    </g>
  </g>
</svg>
