<svg xmlns="http://www.w3.org/2000/svg" width="512" height="512" viewBox="0 0 512 512">
  <defs>
    <style>
      .cls-1 {
        fill: #f80;
        stroke: #fffeff;
        stroke-miterlimit: 10;
        stroke-width: 2px;
      }

      .cls-2 {
        fill: #fff;
      }
    </style>
  </defs>
  <title>dledtk_8x8_tb</title>
  <g id="_8x8" data-name="8x8">
    <g id="Trigon_b_" data-name="Trigon (b)">
      <polygon id="Limits" class="cls-1" points="512 0 0 0 0 512 512 0"/>
      <g id="Size">
        <path class="cls-2" d="M31.63,20a12.15,12.15,0,0,1,7.71,2.24,7.24,7.24,0,0,1,2.83,6q0,5.26-6.33,8.39a16.23,16.23,0,0,1,5.73,4.24,7.94,7.94,0,0,1,1.7,5,8.38,8.38,0,0,1-3.11,6.8Q37,55.18,31.72,55.18q-5.58,0-8.65-2.39A8.07,8.07,0,0,1,20,46a8.74,8.74,0,0,1,1.61-5.15,13.49,13.49,0,0,1,5.26-4.07,13.19,13.19,0,0,1-4.48-4,8.5,8.5,0,0,1-1.34-4.68A7.09,7.09,0,0,1,24,22.21,12.4,12.4,0,0,1,31.63,20ZM25.27,45.83A4.54,4.54,0,0,0,27,49.61,7.31,7.31,0,0,0,31.63,51a7.11,7.11,0,0,0,4.69-1.39A4.66,4.66,0,0,0,38,45.78a4.88,4.88,0,0,0-1.55-3.47,14.68,14.68,0,0,0-4.68-2.9l-.68-.31a12.06,12.06,0,0,0-4.46,3A5.71,5.71,0,0,0,25.27,45.83Zm6.31-21.59A5.86,5.86,0,0,0,27.8,25.4a3.86,3.86,0,0,0-1.42,3.15,4.56,4.56,0,0,0,.51,2.18,5.46,5.46,0,0,0,1.5,1.75,18.78,18.78,0,0,0,3.33,1.89,11,11,0,0,0,4-2.62,4.81,4.81,0,0,0,1.16-3.2,3.85,3.85,0,0,0-1.44-3.15A6,6,0,0,0,31.58,24.24Z"/>
        <path class="cls-2" d="M46.89,53.25a1.82,1.82,0,0,1,.45-1.32,1.75,1.75,0,0,1,1.29-.45,1.69,1.69,0,0,1,1.3.47,1.82,1.82,0,0,1,.45,1.3,1.85,1.85,0,0,1-.46,1.31,1.65,1.65,0,0,1-1.29.49,1.68,1.68,0,0,1-1.29-.48A1.85,1.85,0,0,1,46.89,53.25Z"/>
        <path class="cls-2" d="M58.78,37.36a6.08,6.08,0,0,1,3.85,1.11,3.62,3.62,0,0,1,1.42,3q0,2.64-3.16,4.19a8.1,8.1,0,0,1,2.86,2.13,4,4,0,0,1,.85,2.48A4.18,4.18,0,0,1,63,53.67,6.46,6.46,0,0,1,58.82,55a6.85,6.85,0,0,1-4.32-1.2A4.07,4.07,0,0,1,53,50.36a4.34,4.34,0,0,1,.81-2.57,6.66,6.66,0,0,1,2.63-2,6.75,6.75,0,0,1-2.24-2,4.24,4.24,0,0,1-.67-2.35,3.53,3.53,0,0,1,1.47-3A6.14,6.14,0,0,1,58.78,37.36ZM55.6,50.27a2.27,2.27,0,0,0,.86,1.89,3.64,3.64,0,0,0,2.32.68,3.6,3.6,0,0,0,2.35-.7A2.33,2.33,0,0,0,62,50.25a2.41,2.41,0,0,0-.77-1.74,7.25,7.25,0,0,0-2.34-1.45l-.34-.15a6,6,0,0,0-2.23,1.49A2.85,2.85,0,0,0,55.6,50.27Zm3.15-10.79a2.85,2.85,0,0,0-1.88.58,1.9,1.9,0,0,0-.72,1.57,2.28,2.28,0,0,0,.26,1.09,2.91,2.91,0,0,0,.75.88,9.36,9.36,0,0,0,1.66.94,5.46,5.46,0,0,0,2-1.31,2.37,2.37,0,0,0,.58-1.6,1.9,1.9,0,0,0-.72-1.57A3,3,0,0,0,58.75,39.48Z"/>
      </g>
      <g id="Type">
        <path class="cls-2" d="M344.91,46.17h-2.8V31.44h-5V29H350v2.4h-5Z"/>
        <path class="cls-2" d="M355.38,39.33v6.84h-2.8V29h4.84a8,8,0,0,1,4.91,1.24A4.47,4.47,0,0,1,363.92,34a4.68,4.68,0,0,1-3.33,4.56l4.84,7.58h-3.19l-4.1-6.84Zm0-2.32h1.94a4.42,4.42,0,0,0,2.84-.73,2.64,2.64,0,0,0,.88-2.15,2.33,2.33,0,0,0-1-2.09,5.25,5.25,0,0,0-2.86-.63h-1.85Z"/>
        <path class="cls-2" d="M367.92,46.17V29h2.8V46.17Z"/>
        <path class="cls-2" d="M382.25,36.88h6.3v8.6a17.75,17.75,0,0,1-3,.72,21.06,21.06,0,0,1-3.07.21,7.73,7.73,0,0,1-6-2.3,9.28,9.28,0,0,1-2.11-6.5,8.66,8.66,0,0,1,2.38-6.48,8.91,8.91,0,0,1,6.55-2.33,12.71,12.71,0,0,1,5.08,1l-1,2.33a9.9,9.9,0,0,0-4.17-1,5.61,5.61,0,0,0-4.34,1.72,6.68,6.68,0,0,0-1.59,4.71,7,7,0,0,0,1.43,4.78A5.2,5.2,0,0,0,382.89,44a13.36,13.36,0,0,0,2.91-.34V39.28h-3.55Z"/>
        <path class="cls-2" d="M407.88,37.58a9.37,9.37,0,0,1-2.1,6.51,7.57,7.57,0,0,1-5.92,2.32,7.65,7.65,0,0,1-6-2.3,9.43,9.43,0,0,1-2.08-6.55q0-4.25,2.09-6.51a7.71,7.71,0,0,1,6-2.28,7.55,7.55,0,0,1,5.91,2.31A9.37,9.37,0,0,1,407.88,37.58Zm-13.08,0a7.63,7.63,0,0,0,1.28,4.8,5.19,5.19,0,0,0,7.55,0,7.68,7.68,0,0,0,1.27-4.82,7.72,7.72,0,0,0-1.26-4.78,4.47,4.47,0,0,0-3.76-1.63,4.56,4.56,0,0,0-3.8,1.63A7.65,7.65,0,0,0,394.8,37.58Z"/>
        <path class="cls-2" d="M425.83,46.17H422.4L414,32.52h-.09l.06.76c.1,1.46.16,2.78.16,4v8.9h-2.54V29H415l8.41,13.58h.07c0-.18-.05-.83-.1-2s-.07-2-.07-2.64V29h2.57Z"/>
      </g>
    </g>
  </g>
</svg>
