<svg id="_8x1" data-name="8x1" xmlns="http://www.w3.org/2000/svg" width="512" height="64" viewBox="0 0 512 64">
  <defs>
    <style>
      .cls-1 {
        fill: #f80;
      }

      .cls-1, .cls-3 {
        stroke: #fff;
        stroke-miterlimit: 10;
        stroke-width: 2px;
      }

      .cls-2 {
        opacity: 0.25;
      }

      .cls-3 {
        fill: none;
      }

      .cls-4 {
        fill: #fff;
      }
    </style>
  </defs>
  <title>dledtk_8x1_w</title>
  <g id="Wall">
    <rect id="Limits" class="cls-1" width="512" height="64"/>
    <g id="Grid" class="cls-2">
      <line id="Vertical" class="cls-3" x1="384" x2="384" y2="64"/>
      <line id="Vertical-2" data-name="Vertical" class="cls-3" x1="256" x2="256" y2="64"/>
      <line id="Vertical-3" data-name="Vertical" class="cls-3" x1="128" x2="128" y2="64"/>
    </g>
    <g id="Marks">
      <polygon id="Mark" class="cls-4" points="144 -1 132 -1 132 -2 130 -2 130 -4 129 -4 129 -16 127 -16 127 -4 126 -4 126 -2 124 -2 124 -1 112 -1 112 1 124 1 124 2 126 2 126 4 127 4 127 16 129 16 129 4 130 4 130 2 132 2 132 1 144 1 144 -1"/>
      <polygon id="Mark-2" data-name="Mark" class="cls-4" points="144 63 132 63 132 62 130 62 130 60 129 60 129 48 127 48 127 60 126 60 126 62 124 62 124 63 112 63 112 65 124 65 124 66 126 66 126 68 127 68 127 80 129 80 129 68 130 68 130 66 132 66 132 65 144 65 144 63"/>
      <polygon id="Mark-3" data-name="Mark" class="cls-4" points="272 63 260 63 260 62 258 62 258 60 257 60 257 48 255 48 255 60 254 60 254 62 252 62 252 63 240 63 240 65 252 65 252 66 254 66 254 68 255 68 255 80 257 80 257 68 258 68 258 66 260 66 260 65 272 65 272 63"/>
      <polygon id="Mark-4" data-name="Mark" class="cls-4" points="400 63 388 63 388 62 386 62 386 60 385 60 385 48 383 48 383 60 382 60 382 62 380 62 380 63 368 63 368 65 380 65 380 66 382 66 382 68 383 68 383 80 385 80 385 68 386 68 386 66 388 66 388 65 400 65 400 63"/>
      <polygon id="Mark-5" data-name="Mark" class="cls-4" points="272 -1 260 -1 260 -2 258 -2 258 -4 257 -4 257 -16 255 -16 255 -4 254 -4 254 -2 252 -2 252 -1 240 -1 240 1 252 1 252 2 254 2 254 4 255 4 255 16 257 16 257 4 258 4 258 2 260 2 260 1 272 1 272 -1"/>
      <polygon id="Mark-6" data-name="Mark" class="cls-4" points="400 -1 388 -1 388 -2 386 -2 386 -4 385 -4 385 -16 383 -16 383 -4 382 -4 382 -2 380 -2 380 -1 368 -1 368 1 380 1 380 2 382 2 382 4 383 4 383 16 385 16 385 4 386 4 386 2 388 2 388 1 400 1 400 -1"/>
    </g>
    <g id="Size">
      <path class="cls-4" d="M31.63,14.41a12.15,12.15,0,0,1,7.71,2.24,7.24,7.24,0,0,1,2.83,6q0,5.26-6.33,8.39a16.23,16.23,0,0,1,5.73,4.24,7.94,7.94,0,0,1,1.7,5A8.38,8.38,0,0,1,40.16,47Q37,49.59,31.72,49.59q-5.58,0-8.65-2.39A8.07,8.07,0,0,1,20,40.43a8.74,8.74,0,0,1,1.61-5.15,13.49,13.49,0,0,1,5.26-4.07,13.19,13.19,0,0,1-4.48-4,8.5,8.5,0,0,1-1.34-4.68A7.09,7.09,0,0,1,24,16.62,12.4,12.4,0,0,1,31.63,14.41ZM25.27,40.24A4.54,4.54,0,0,0,27,44a7.31,7.31,0,0,0,4.65,1.35A7.11,7.11,0,0,0,36.32,44,4.66,4.66,0,0,0,38,40.19a4.88,4.88,0,0,0-1.55-3.47,14.68,14.68,0,0,0-4.68-2.9l-.68-.31a12.06,12.06,0,0,0-4.46,3A5.71,5.71,0,0,0,25.27,40.24Zm6.31-21.59a5.86,5.86,0,0,0-3.78,1.16A3.86,3.86,0,0,0,26.38,23a4.56,4.56,0,0,0,.51,2.18,5.46,5.46,0,0,0,1.5,1.75,18.78,18.78,0,0,0,3.33,1.89,11,11,0,0,0,4-2.62A4.81,4.81,0,0,0,36.85,23a3.85,3.85,0,0,0-1.44-3.15A6,6,0,0,0,31.58,18.65Z"/>
      <path class="cls-4" d="M46.89,47.66a1.82,1.82,0,0,1,.45-1.32,1.75,1.75,0,0,1,1.29-.45,1.69,1.69,0,0,1,1.3.47,1.82,1.82,0,0,1,.45,1.3A1.85,1.85,0,0,1,49.92,49a1.65,1.65,0,0,1-1.29.49A1.68,1.68,0,0,1,47.34,49,1.85,1.85,0,0,1,46.89,47.66Z"/>
      <path class="cls-4" d="M61.07,49.12H58.32V38.06c0-1.32,0-2.37.09-3.14-.18.19-.4.39-.66.62s-1.14.94-2.63,2.16L53.74,36l5-4h2.29Z"/>
    </g>
    <g id="Type">
      <path class="cls-4" d="M446.18,40.6h-3.05l-2.9-10.22c-.13-.44-.28-1.09-.47-1.93s-.3-1.42-.34-1.75c-.08.5-.21,1.15-.38,1.95s-.33,1.39-.44,1.78L435.76,40.6h-3.05L430.5,32l-2.25-8.55h2.86l2.45,10c.38,1.6.65,3,.82,4.25.08-.67.21-1.41.39-2.23s.32-1.49.46-2l2.79-10h2.78l2.86,10.05a39.39,39.39,0,0,1,.87,4.18,30.28,30.28,0,0,1,.84-4.27l2.44-10h2.83Z"/>
      <path class="cls-4" d="M463.7,40.6,462,35.84h-6.55l-1.68,4.76h-2.95l6.41-17.2h3l6.41,17.2Zm-2.45-7.17-1.61-4.66c-.11-.32-.27-.81-.48-1.48s-.35-1.17-.43-1.48A25.49,25.49,0,0,1,457.8,29l-1.54,4.47Z"/>
      <path class="cls-4" d="M468.94,40.6V23.47h2.8V38.2H479v2.4Z"/>
      <path class="cls-4" d="M482,40.6V23.47h2.8V38.2H492v2.4Z"/>
    </g>
  </g>
</svg>
