<svg xmlns="http://www.w3.org/2000/svg" width="512" height="512" viewBox="0 0 512 512">
  <defs>
    <style>
      .cls-1 {
        fill: #f80;
        stroke: #fffeff;
        stroke-miterlimit: 10;
        stroke-width: 2px;
      }

      .cls-2 {
        fill: #fff;
      }
    </style>
  </defs>
  <title>dledtk_8x8_ta</title>
  <g id="_8x8" data-name="8x8">
    <g id="Trigon_a_" data-name="Trigon (a)">
      <polygon id="Limits" class="cls-1" points="0 0 0 512 512 512 0 0"/>
      <g id="Size">
        <path class="cls-2" d="M31.63,456.82a12.15,12.15,0,0,1,7.71,2.24,7.24,7.24,0,0,1,2.83,6q0,5.26-6.33,8.39a16.23,16.23,0,0,1,5.73,4.24,7.94,7.94,0,0,1,1.7,5,8.38,8.38,0,0,1-3.11,6.8Q37,492,31.72,492q-5.58,0-8.65-2.39A8.07,8.07,0,0,1,20,482.84a8.74,8.74,0,0,1,1.61-5.15,13.38,13.38,0,0,1,5.26-4.06,13.2,13.2,0,0,1-4.48-4A8.5,8.5,0,0,1,21.05,465,7.06,7.06,0,0,1,24,459,12.34,12.34,0,0,1,31.63,456.82Zm-6.36,25.83A4.53,4.53,0,0,0,27,486.43a7.31,7.31,0,0,0,4.65,1.35,7.11,7.11,0,0,0,4.69-1.39A4.66,4.66,0,0,0,38,482.6a4.88,4.88,0,0,0-1.55-3.47,14.68,14.68,0,0,0-4.68-2.9l-.68-.31a12.06,12.06,0,0,0-4.46,3A5.71,5.71,0,0,0,25.27,482.65Zm6.31-21.59a5.86,5.86,0,0,0-3.78,1.16,3.87,3.87,0,0,0-1.42,3.16,4.54,4.54,0,0,0,.51,2.17,5.46,5.46,0,0,0,1.5,1.75,18.78,18.78,0,0,0,3.33,1.89,11,11,0,0,0,4-2.62,4.8,4.8,0,0,0,1.16-3.19,3.85,3.85,0,0,0-1.44-3.16A6,6,0,0,0,31.58,461.06Z"/>
        <path class="cls-2" d="M46.89,490.07a1.82,1.82,0,0,1,.45-1.32,1.75,1.75,0,0,1,1.29-.45,1.72,1.72,0,0,1,1.3.47,1.82,1.82,0,0,1,.45,1.3,1.85,1.85,0,0,1-.46,1.31,1.65,1.65,0,0,1-1.29.49,1.68,1.68,0,0,1-1.29-.48A1.85,1.85,0,0,1,46.89,490.07Z"/>
        <path class="cls-2" d="M58.78,474.18a6.08,6.08,0,0,1,3.85,1.11,3.62,3.62,0,0,1,1.42,3q0,2.64-3.16,4.19a8.1,8.1,0,0,1,2.86,2.13,4,4,0,0,1,.85,2.48,4.18,4.18,0,0,1-1.56,3.4,6.46,6.46,0,0,1-4.22,1.28,6.85,6.85,0,0,1-4.32-1.2A4.07,4.07,0,0,1,53,487.18a4.34,4.34,0,0,1,.81-2.57,6.66,6.66,0,0,1,2.63-2,6.75,6.75,0,0,1-2.24-2,4.24,4.24,0,0,1-.67-2.35,3.53,3.53,0,0,1,1.47-3A6.14,6.14,0,0,1,58.78,474.18ZM55.6,487.09a2.27,2.27,0,0,0,.86,1.89,3.64,3.64,0,0,0,2.32.68,3.6,3.6,0,0,0,2.35-.7,2.33,2.33,0,0,0,.83-1.89,2.41,2.41,0,0,0-.77-1.74,7.25,7.25,0,0,0-2.34-1.45l-.34-.15a6,6,0,0,0-2.23,1.49A2.85,2.85,0,0,0,55.6,487.09Zm3.15-10.79a2.85,2.85,0,0,0-1.88.58,1.9,1.9,0,0,0-.72,1.57,2.28,2.28,0,0,0,.26,1.09,2.91,2.91,0,0,0,.75.88,9.36,9.36,0,0,0,1.66.94,5.46,5.46,0,0,0,2-1.31,2.37,2.37,0,0,0,.58-1.6,1.9,1.9,0,0,0-.72-1.57A3,3,0,0,0,58.75,476.3Z"/>
      </g>
      <g id="Type">
        <path class="cls-2" d="M345,483h-2.8V468.26h-5v-2.4H350v2.4h-5Z"/>
        <path class="cls-2" d="M355.44,476.15V483h-2.8V465.86h4.83a8,8,0,0,1,4.92,1.24,4.47,4.47,0,0,1,1.59,3.75,4.68,4.68,0,0,1-3.33,4.56l4.84,7.58H362.3l-4.1-6.84Zm0-2.32h1.94a4.42,4.42,0,0,0,2.84-.73,2.64,2.64,0,0,0,.88-2.15,2.33,2.33,0,0,0-1-2.09,5.25,5.25,0,0,0-2.86-.63h-1.85Z"/>
        <path class="cls-2" d="M368,483V465.86h2.81V483Z"/>
        <path class="cls-2" d="M382.31,473.7h6.3v8.6a17.75,17.75,0,0,1-3,.72,21.1,21.1,0,0,1-3.08.21,7.75,7.75,0,0,1-6-2.3,9.32,9.32,0,0,1-2.1-6.5,8.69,8.69,0,0,1,2.37-6.48,9,9,0,0,1,6.56-2.33,12.71,12.71,0,0,1,5.08,1l-1,2.33a9.91,9.91,0,0,0-4.18-1,5.61,5.61,0,0,0-4.33,1.72,6.68,6.68,0,0,0-1.59,4.71,7,7,0,0,0,1.43,4.78,5.2,5.2,0,0,0,4.13,1.63,13.36,13.36,0,0,0,2.91-.34V476.1h-3.55Z"/>
        <path class="cls-2" d="M407.94,474.4a9.37,9.37,0,0,1-2.1,6.51,8.79,8.79,0,0,1-11.88,0,9.43,9.43,0,0,1-2.08-6.55q0-4.25,2.09-6.51a7.71,7.71,0,0,1,6-2.28,7.55,7.55,0,0,1,5.91,2.31A9.37,9.37,0,0,1,407.94,474.4Zm-13.08,0a7.63,7.63,0,0,0,1.28,4.8,5.19,5.19,0,0,0,7.55,0,9.74,9.74,0,0,0,0-9.6,4.47,4.47,0,0,0-3.76-1.63,4.56,4.56,0,0,0-3.8,1.63A7.65,7.65,0,0,0,394.86,474.4Z"/>
        <path class="cls-2" d="M425.89,483h-3.43L414,469.34h-.09l.05.76c.11,1.46.17,2.78.17,4V483h-2.54V465.86H415l8.41,13.58h.07c0-.18-.05-.83-.1-2s-.07-2-.07-2.64v-9h2.57Z"/>
      </g>
    </g>
  </g>
</svg>
