<svg xmlns="http://www.w3.org/2000/svg" width="512" height="512" viewBox="0 0 512 512"><defs><style>.cls-1{fill:#f80;stroke:#fffeff;stroke-miterlimit:10;stroke-width:2px;}.cls-2{fill:#fff;}</style></defs><title>dledtk_8x8_po</title><g id="_8x8" data-name="8x8"><g id="Octagon"><polygon id="Limits" class="cls-1" points="74.98 74.98 0 256 74.98 437.02 256 512 437.02 437.02 512 256 437.02 74.98 256 0 74.98 74.98"/><g id="Size"><path class="cls-2" d="M245.32,46.41A12.18,12.18,0,0,1,253,48.65a7.24,7.24,0,0,1,2.83,6q0,5.27-6.33,8.39a16.23,16.23,0,0,1,5.73,4.24,7.94,7.94,0,0,1,1.7,5,8.38,8.38,0,0,1-3.11,6.8c-2.08,1.7-4.9,2.55-8.44,2.55q-5.58,0-8.65-2.39a8.07,8.07,0,0,1-3.07-6.77,8.73,8.73,0,0,1,1.6-5.15,13.53,13.53,0,0,1,5.27-4.07,13.19,13.19,0,0,1-4.48-4,8.5,8.5,0,0,1-1.34-4.68,7.06,7.06,0,0,1,2.93-5.94A12.33,12.33,0,0,1,245.32,46.41ZM239,72.24A4.53,4.53,0,0,0,240.68,76a7.3,7.3,0,0,0,4.64,1.35A7.12,7.12,0,0,0,250,76a4.66,4.66,0,0,0,1.68-3.79,4.88,4.88,0,0,0-1.55-3.47,14.63,14.63,0,0,0-4.69-2.9l-.67-.31a12.06,12.06,0,0,0-4.46,3A5.71,5.71,0,0,0,239,72.24Zm6.31-21.59a5.84,5.84,0,0,0-3.78,1.16A3.87,3.87,0,0,0,240.07,55a4.56,4.56,0,0,0,.52,2.18,5.46,5.46,0,0,0,1.5,1.75,18.78,18.78,0,0,0,3.33,1.89,11,11,0,0,0,4-2.62,4.81,4.81,0,0,0,1.16-3.2,3.85,3.85,0,0,0-1.44-3.15A6,6,0,0,0,245.28,50.65Z"/><path class="cls-2" d="M260.59,79.66a1.82,1.82,0,0,1,.45-1.32,1.75,1.75,0,0,1,1.29-.45,1.69,1.69,0,0,1,1.3.47,1.81,1.81,0,0,1,.44,1.3,1.84,1.84,0,0,1-.45,1.31,1.65,1.65,0,0,1-1.29.49A1.68,1.68,0,0,1,261,81,1.85,1.85,0,0,1,260.59,79.66Z"/><path class="cls-2" d="M272.48,63.77a6.08,6.08,0,0,1,3.85,1.11,3.62,3.62,0,0,1,1.42,3q0,2.64-3.16,4.19a8.19,8.19,0,0,1,2.86,2.13,4,4,0,0,1,.85,2.48,4.18,4.18,0,0,1-1.56,3.4,6.46,6.46,0,0,1-4.22,1.28,6.85,6.85,0,0,1-4.32-1.2,4.07,4.07,0,0,1-1.54-3.39,4.34,4.34,0,0,1,.81-2.57,6.66,6.66,0,0,1,2.63-2,6.65,6.65,0,0,1-2.24-2,4.24,4.24,0,0,1-.67-2.35,3.53,3.53,0,0,1,1.47-3A6.14,6.14,0,0,1,272.48,63.77ZM269.3,76.68a2.27,2.27,0,0,0,.86,1.89,4.3,4.3,0,0,0,4.67,0,2.36,2.36,0,0,0,.83-1.89,2.41,2.41,0,0,0-.77-1.74,7.25,7.25,0,0,0-2.34-1.45l-.34-.15A6,6,0,0,0,270,74.81,2.85,2.85,0,0,0,269.3,76.68Zm3.15-10.79a2.85,2.85,0,0,0-1.88.58,1.9,1.9,0,0,0-.72,1.57,2.28,2.28,0,0,0,.26,1.09,2.91,2.91,0,0,0,.75.88,9.36,9.36,0,0,0,1.66.94,5.46,5.46,0,0,0,2-1.31,2.37,2.37,0,0,0,.58-1.6,1.9,1.9,0,0,0-.72-1.57A3,3,0,0,0,272.45,65.89Z"/></g><g id="Type"><path class="cls-2" d="M214.56,448a9.37,9.37,0,0,1-2.09,6.51,8.79,8.79,0,0,1-11.88,0,9.43,9.43,0,0,1-2.08-6.55q0-4.25,2.09-6.51a7.68,7.68,0,0,1,6-2.28,7.55,7.55,0,0,1,5.91,2.31A9.37,9.37,0,0,1,214.56,448Zm-13.08,0a7.69,7.69,0,0,0,1.28,4.8,5.19,5.19,0,0,0,7.55,0,9.71,9.71,0,0,0,0-9.6,4.48,4.48,0,0,0-3.76-1.63,4.55,4.55,0,0,0-3.8,1.63A7.59,7.59,0,0,0,201.48,448Z"/><path class="cls-2" d="M225.53,441.61a4.63,4.63,0,0,0-3.8,1.71,9,9,0,0,0,0,9.49,4.7,4.7,0,0,0,3.85,1.62,9.75,9.75,0,0,0,2.11-.22,21.59,21.59,0,0,0,2.12-.56v2.41a13,13,0,0,1-4.57.76,7.32,7.32,0,0,1-5.78-2.28q-2-2.28-2-6.52a10.47,10.47,0,0,1,1-4.68,7,7,0,0,1,2.83-3.07,8.54,8.54,0,0,1,4.34-1.06,10.77,10.77,0,0,1,4.86,1.1l-1,2.33a16,16,0,0,0-1.84-.72A6.48,6.48,0,0,0,225.53,441.61Z"/><path class="cls-2" d="M239.37,456.58h-2.8V441.85h-5v-2.4h12.88v2.4h-5Z"/><path class="cls-2" d="M257.66,456.58,256,451.83H249.4l-1.67,4.75h-3l6.41-17.2h3l6.41,17.2Zm-2.45-7.17-1.6-4.66c-.12-.31-.28-.81-.49-1.48s-.35-1.16-.42-1.48a26.9,26.9,0,0,1-.93,3.16l-1.55,4.46Z"/><path class="cls-2" d="M269.91,447.29h6.3v8.6a17.75,17.75,0,0,1-3,.72,21.06,21.06,0,0,1-3.07.21,7.73,7.73,0,0,1-6-2.3,9.28,9.28,0,0,1-2.11-6.5,8.66,8.66,0,0,1,2.38-6.48,8.92,8.92,0,0,1,6.55-2.33,12.68,12.68,0,0,1,5.08,1l-1,2.33a9.9,9.9,0,0,0-4.17-1,5.61,5.61,0,0,0-4.34,1.72A6.68,6.68,0,0,0,265,448a7.09,7.09,0,0,0,1.43,4.78,5.21,5.21,0,0,0,4.13,1.63,13.36,13.36,0,0,0,2.91-.34v-4.42h-3.55Z"/><path class="cls-2" d="M295.54,448a9.41,9.41,0,0,1-2.09,6.51,8.8,8.8,0,0,1-11.89,0,9.48,9.48,0,0,1-2.08-6.55q0-4.25,2.1-6.51a7.68,7.68,0,0,1,6-2.28,7.54,7.54,0,0,1,5.9,2.31A9.37,9.37,0,0,1,295.54,448Zm-13.08,0a7.69,7.69,0,0,0,1.28,4.8,5.19,5.19,0,0,0,7.55,0,9.74,9.74,0,0,0,0-9.6,4.46,4.46,0,0,0-3.75-1.63,4.58,4.58,0,0,0-3.81,1.63A7.65,7.65,0,0,0,282.46,448Z"/><path class="cls-2" d="M313.49,456.58h-3.43l-8.43-13.65h-.09l.06.76c.11,1.46.16,2.78.16,4v8.9h-2.54V439.45h3.4L311,453h.07c0-.18,0-.83-.09-2s-.07-2-.07-2.64v-9h2.56Z"/></g></g></g></svg>