<svg xmlns="http://www.w3.org/2000/svg" width="384" height="256" viewBox="0 0 384 256"><defs><style>.cls-1{fill:#f80;}.cls-1,.cls-3{stroke:#fff;stroke-miterlimit:10;stroke-width:2px;}.cls-2{opacity:0.25;}.cls-3{fill:none;}.cls-4{fill:#fff;}</style></defs><title>dledtk_6x4_w</title><g id="_6x4" data-name="6x4"><g id="Wall"><rect id="Limits" class="cls-1" width="384" height="256"/><g id="Grid" class="cls-2"><line id="Horizontal" class="cls-3" x1="384" y1="128" y2="128"/><line id="Vertical" class="cls-3" x1="256" x2="256" y2="256"/><line id="Vertical-2" data-name="Vertical" class="cls-3" x1="128" x2="128" y2="256"/></g><g id="Marks"><polygon id="Mark" class="cls-4" points="144 -1 132 -1 132 -2 130 -2 130 -4 129 -4 129 -16 127 -16 127 -4 126 -4 126 -2 124 -2 124 -1 112 -1 112 1 124 1 124 2 126 2 126 4 127 4 127 16 129 16 129 4 130 4 130 2 132 2 132 1 144 1 144 -1"/><polygon id="Mark-2" data-name="Mark" class="cls-4" points="16 127 4 127 4 126 2 126 2 124 1 124 1 112 -1 112 -1 124 -2 124 -2 126 -4 126 -4 127 -16 127 -16 129 -4 129 -4 130 -2 130 -2 132 -1 132 -1 144 1 144 1 132 2 132 2 130 4 130 4 129 16 129 16 127"/><polygon id="Mark-3" data-name="Mark" class="cls-4" points="144 127 132 127 132 126 130 126 130 124 129 124 129 112 127 112 127 124 126 124 126 126 124 126 124 127 112 127 112 129 124 129 124 130 126 130 126 132 127 132 127 144 129 144 129 132 130 132 130 130 132 130 132 129 144 129 144 127"/><polygon id="Mark-4" data-name="Mark" class="cls-4" points="272 127 260 127 260 126 258 126 258 124 257 124 257 112 255 112 255 124 254 124 254 126 252 126 252 127 240 127 240 129 252 129 252 130 254 130 254 132 255 132 255 144 257 144 257 132 258 132 258 130 260 130 260 129 272 129 272 127"/><polygon id="Mark-5" data-name="Mark" class="cls-4" points="400 127 388 127 388 126 386 126 386 124 385 124 385 112 383 112 383 124 382 124 382 126 380 126 380 127 368 127 368 129 380 129 380 130 382 130 382 132 383 132 383 144 385 144 385 132 386 132 386 130 388 130 388 129 400 129 400 127"/><polygon id="Mark-6" data-name="Mark" class="cls-4" points="144 255 132 255 132 254 130 254 130 252 129 252 129 240 127 240 127 252 126 252 126 254 124 254 124 255 112 255 112 257 124 257 124 258 126 258 126 260 127 260 127 272 129 272 129 260 130 260 130 258 132 258 132 257 144 257 144 255"/><polygon id="Mark-7" data-name="Mark" class="cls-4" points="272 255 260 255 260 254 258 254 258 252 257 252 257 240 255 240 255 252 254 252 254 254 252 254 252 255 240 255 240 257 252 257 252 258 254 258 254 260 255 260 255 272 257 272 257 260 258 260 258 258 260 258 260 257 272 257 272 255"/><polygon id="Mark-8" data-name="Mark" class="cls-4" points="272 -1 260 -1 260 -2 258 -2 258 -4 257 -4 257 -16 255 -16 255 -4 254 -4 254 -2 252 -2 252 -1 240 -1 240 1 252 1 252 2 254 2 254 4 255 4 255 16 257 16 257 4 258 4 258 2 260 2 260 1 272 1 272 -1"/></g><g id="Size"><path class="cls-4" d="M41.46,66.52q0-20.11,16.39-20.11a20,20,0,0,1,4.36.4V51.4a15.1,15.1,0,0,0-4.13-.51q-5.51,0-8.27,3t-3,9.47h.28a7.49,7.49,0,0,1,3.09-2.94,9.92,9.92,0,0,1,4.69-1,9.36,9.36,0,0,1,7.27,2.86,11.13,11.13,0,0,1,2.6,7.76c0,3.6-1,6.44-3,8.52a10.87,10.87,0,0,1-8.22,3.13,11.49,11.49,0,0,1-6.4-1.77,11.33,11.33,0,0,1-4.18-5.16A20.35,20.35,0,0,1,41.46,66.52ZM53.42,77a5.38,5.38,0,0,0,4.37-1.83A7.91,7.91,0,0,0,59.32,70a6.91,6.91,0,0,0-1.44-4.64,5.35,5.35,0,0,0-4.32-1.69,7.1,7.1,0,0,0-3.28.76,6.1,6.1,0,0,0-2.37,2.09,4.85,4.85,0,0,0-.87,2.7,8.66,8.66,0,0,0,1.8,5.57A5.58,5.58,0,0,0,53.42,77Z"/><path class="cls-4" d="M68.22,79.66a1.86,1.86,0,0,1,.44-1.32A1.75,1.75,0,0,1,70,77.89a1.67,1.67,0,0,1,1.3.47,1.82,1.82,0,0,1,.45,1.3A1.84,1.84,0,0,1,71.25,81a1.66,1.66,0,0,1-1.3.49A1.68,1.68,0,0,1,68.66,81,1.9,1.9,0,0,1,68.22,79.66Z"/><path class="cls-4" d="M86.54,77.38H84.23v3.74H81.54V77.38H73.71V75.26l7.83-11.32h2.69V75.1h2.31Zm-5-2.28V70.8c0-1.53,0-2.79.12-3.76h-.09a14.45,14.45,0,0,1-1,1.87L76.28,75.1Z"/></g><g id="Type"><path class="cls-4" d="M306.05,72.6h-3L300.1,62.38c-.12-.44-.28-1.09-.47-1.92s-.3-1.43-.34-1.76c-.08.5-.2,1.15-.38,1.95s-.32,1.39-.44,1.78L295.64,72.6h-3.05L290.38,64l-2.25-8.55H291l2.45,10a39.93,39.93,0,0,1,.82,4.25c.09-.67.22-1.41.39-2.23s.33-1.49.47-2l2.79-10h2.78l2.86,10a37.45,37.45,0,0,1,.86,4.18,30.53,30.53,0,0,1,.85-4.27l2.43-10h2.84Z"/><path class="cls-4" d="M323.57,72.6l-1.71-4.76h-6.55l-1.67,4.76h-3l6.41-17.2h3.05l6.41,17.2Zm-2.44-7.17-1.61-4.66c-.12-.32-.28-.81-.49-1.48s-.35-1.16-.42-1.48a27.35,27.35,0,0,1-.93,3.15l-1.55,4.47Z"/><path class="cls-4" d="M328.81,72.6V55.47h2.8V70.2h7.26v2.4Z"/><path class="cls-4" d="M341.82,72.6V55.47h2.8V70.2h7.26v2.4Z"/></g></g></g></svg>