<svg id="_8x8" data-name="8x8" xmlns="http://www.w3.org/2000/svg" width="512" height="512" viewBox="0 0 512 512">
  <defs>
    <style>
      .cls-1 {
        fill: #f80;
      }

      .cls-1, .cls-3 {
        stroke: #fff;
        stroke-miterlimit: 10;
        stroke-width: 2px;
      }

      .cls-2 {
        opacity: 0.25;
      }

      .cls-3 {
        fill: none;
      }

      .cls-4 {
        fill: #fff;
      }
    </style>
  </defs>
  <title>dledtk_8x8_et</title>
  <g id="Tunnel_entrance" data-name="Tunnel entrance">
    <rect id="Limits" class="cls-1" width="512" height="512"/>
    <g id="Grid" class="cls-2">
      <line id="Horizontal" class="cls-3" x1="512" y1="384" y2="384"/>
      <line id="Horizontal-2" data-name="Horizontal" class="cls-3" x1="512" y1="256" y2="256"/>
      <line id="Horizontal-3" data-name="Horizontal" class="cls-3" x1="512" y1="128" y2="128"/>
      <line id="Vertical" class="cls-3" x1="384" x2="384" y2="512"/>
      <line id="Vertical-2" data-name="Vertical" class="cls-3" x1="256" x2="256" y2="512"/>
      <line id="Vertical-3" data-name="Vertical" class="cls-3" x1="128" x2="128" y2="512"/>
    </g>
    <g id="Marks">
      <polygon id="Mark" class="cls-4" points="144 -1 132 -1 132 -2 130 -2 130 -4 129 -4 129 -16 127 -16 127 -4 126 -4 126 -2 124 -2 124 -1 112 -1 112 1 124 1 124 2 126 2 126 4 127 4 127 16 129 16 129 4 130 4 130 2 132 2 132 1 144 1 144 -1"/>
      <polygon id="Mark-2" data-name="Mark" class="cls-4" points="16 127 4 127 4 126 2 126 2 124 1 124 1 112 -1 112 -1 124 -2 124 -2 126 -4 126 -4 127 -16 127 -16 129 -4 129 -4 130 -2 130 -2 132 -1 132 -1 144 1 144 1 132 2 132 2 130 4 130 4 129 16 129 16 127"/>
      <polygon id="Mark-3" data-name="Mark" class="cls-4" points="144 127 132 127 132 126 130 126 130 124 129 124 129 112 127 112 127 124 126 124 126 126 124 126 124 127 112 127 112 129 124 129 124 130 126 130 126 132 127 132 127 144 129 144 129 132 130 132 130 130 132 130 132 129 144 129 144 127"/>
      <polygon id="Mark-4" data-name="Mark" class="cls-4" points="272 127 260 127 260 126 258 126 258 124 257 124 257 112 255 112 255 124 254 124 254 126 252 126 252 127 240 127 240 129 252 129 252 130 254 130 254 132 255 132 255 144 257 144 257 132 258 132 258 130 260 130 260 129 272 129 272 127"/>
      <polygon id="Mark-5" data-name="Mark" class="cls-4" points="400 127 388 127 388 126 386 126 386 124 385 124 385 112 383 112 383 124 382 124 382 126 380 126 380 127 368 127 368 129 380 129 380 130 382 130 382 132 383 132 383 144 385 144 385 132 386 132 386 130 388 130 388 129 400 129 400 127"/>
      <polygon id="Mark-6" data-name="Mark" class="cls-4" points="528 127 516 127 516 126 514 126 514 124 513 124 513 112 511 112 511 124 510 124 510 126 508 126 508 127 496 127 496 129 508 129 508 130 510 130 510 132 511 132 511 144 513 144 513 132 514 132 514 130 516 130 516 129 528 129 528 127"/>
      <polygon id="Mark-7" data-name="Mark" class="cls-4" points="16 255 4 255 4 254 2 254 2 252 1 252 1 240 -1 240 -1 252 -2 252 -2 254 -4 254 -4 255 -16 255 -16 257 -4 257 -4 258 -2 258 -2 260 -1 260 -1 272 1 272 1 260 2 260 2 258 4 258 4 257 16 257 16 255"/>
      <polygon id="Mark-8" data-name="Mark" class="cls-4" points="144 255 132 255 132 254 130 254 130 252 129 252 129 240 127 240 127 252 126 252 126 254 124 254 124 255 112 255 112 257 124 257 124 258 126 258 126 260 127 260 127 272 129 272 129 260 130 260 130 258 132 258 132 257 144 257 144 255"/>
      <polygon id="Mark-9" data-name="Mark" class="cls-4" points="272 255 260 255 260 254 258 254 258 252 257 252 257 240 255 240 255 252 254 252 254 254 252 254 252 255 240 255 240 257 252 257 252 258 254 258 254 260 255 260 255 272 257 272 257 260 258 260 258 258 260 258 260 257 272 257 272 255"/>
      <polygon id="Mark-10" data-name="Mark" class="cls-4" points="400 255 388 255 388 254 386 254 386 252 385 252 385 240 383 240 383 252 382 252 382 254 380 254 380 255 368 255 368 257 380 257 380 258 382 258 382 260 383 260 383 272 385 272 385 260 386 260 386 258 388 258 388 257 400 257 400 255"/>
      <polygon id="Mark-11" data-name="Mark" class="cls-4" points="528 255 516 255 516 254 514 254 514 252 513 252 513 240 511 240 511 252 510 252 510 254 508 254 508 255 496 255 496 257 508 257 508 258 510 258 510 260 511 260 511 272 513 272 513 260 514 260 514 258 516 258 516 257 528 257 528 255"/>
      <polygon id="Mark-12" data-name="Mark" class="cls-4" points="16 383 4 383 4 382 2 382 2 380 1 380 1 368 -1 368 -1 380 -2 380 -2 382 -4 382 -4 383 -16 383 -16 385 -4 385 -4 386 -2 386 -2 388 -1 388 -1 400 1 400 1 388 2 388 2 386 4 386 4 385 16 385 16 383"/>
      <polygon id="Mark-13" data-name="Mark" class="cls-4" points="144 383 132 383 132 382 130 382 130 380 129 380 129 368 127 368 127 380 126 380 126 382 124 382 124 383 112 383 112 385 124 385 124 386 126 386 126 388 127 388 127 400 129 400 129 388 130 388 130 386 132 386 132 385 144 385 144 383"/>
      <polygon id="Mark-14" data-name="Mark" class="cls-4" points="272 383 260 383 260 382 258 382 258 380 257 380 257 368 255 368 255 380 254 380 254 382 252 382 252 383 240 383 240 385 252 385 252 386 254 386 254 388 255 388 255 400 257 400 257 388 258 388 258 386 260 386 260 385 272 385 272 383"/>
      <polygon id="Mark-15" data-name="Mark" class="cls-4" points="400 383 388 383 388 382 386 382 386 380 385 380 385 368 383 368 383 380 382 380 382 382 380 382 380 383 368 383 368 385 380 385 380 386 382 386 382 388 383 388 383 400 385 400 385 388 386 388 386 386 388 386 388 385 400 385 400 383"/>
      <polygon id="Mark-16" data-name="Mark" class="cls-4" points="528 383 516 383 516 382 514 382 514 380 513 380 513 368 511 368 511 380 510 380 510 382 508 382 508 383 496 383 496 385 508 385 508 386 510 386 510 388 511 388 511 400 513 400 513 388 514 388 514 386 516 386 516 385 528 385 528 383"/>
      <polygon id="Mark-17" data-name="Mark" class="cls-4" points="144 511 132 511 132 510 130 510 130 508 129 508 129 496 127 496 127 508 126 508 126 510 124 510 124 511 112 511 112 513 124 513 124 514 126 514 126 516 127 516 127 528 129 528 129 516 130 516 130 514 132 514 132 513 144 513 144 511"/>
      <polygon id="Mark-18" data-name="Mark" class="cls-4" points="272 511 260 511 260 510 258 510 258 508 257 508 257 496 255 496 255 508 254 508 254 510 252 510 252 511 240 511 240 513 252 513 252 514 254 514 254 516 255 516 255 528 257 528 257 516 258 516 258 514 260 514 260 513 272 513 272 511"/>
      <polygon id="Mark-19" data-name="Mark" class="cls-4" points="400 511 388 511 388 510 386 510 386 508 385 508 385 496 383 496 383 508 382 508 382 510 380 510 380 511 368 511 368 513 380 513 380 514 382 514 382 516 383 516 383 528 385 528 385 516 386 516 386 514 388 514 388 513 400 513 400 511"/>
      <polygon id="Mark-20" data-name="Mark" class="cls-4" points="272 -1 260 -1 260 -2 258 -2 258 -4 257 -4 257 -16 255 -16 255 -4 254 -4 254 -2 252 -2 252 -1 240 -1 240 1 252 1 252 2 254 2 254 4 255 4 255 16 257 16 257 4 258 4 258 2 260 2 260 1 272 1 272 -1"/>
      <polygon id="Mark-21" data-name="Mark" class="cls-4" points="400 -1 388 -1 388 -2 386 -2 386 -4 385 -4 385 -16 383 -16 383 -4 382 -4 382 -2 380 -2 380 -1 368 -1 368 1 380 1 380 2 382 2 382 4 383 4 383 16 385 16 385 4 386 4 386 2 388 2 388 1 400 1 400 -1"/>
    </g>
    <g id="Size">
      <path class="cls-4" d="M31.63,20a12.15,12.15,0,0,1,7.71,2.24,7.24,7.24,0,0,1,2.83,6q0,5.26-6.33,8.39a16.23,16.23,0,0,1,5.73,4.24,7.94,7.94,0,0,1,1.7,5,8.38,8.38,0,0,1-3.11,6.8Q37,55.18,31.72,55.18q-5.58,0-8.65-2.39A8.07,8.07,0,0,1,20,46a8.74,8.74,0,0,1,1.61-5.15,13.49,13.49,0,0,1,5.26-4.07,13.19,13.19,0,0,1-4.48-4,8.5,8.5,0,0,1-1.34-4.68A7.09,7.09,0,0,1,24,22.21,12.4,12.4,0,0,1,31.63,20ZM25.27,45.83A4.53,4.53,0,0,0,27,49.61,7.31,7.31,0,0,0,31.63,51a7.11,7.11,0,0,0,4.69-1.39A4.66,4.66,0,0,0,38,45.78a4.88,4.88,0,0,0-1.55-3.47,14.68,14.68,0,0,0-4.68-2.9l-.68-.31a12.06,12.06,0,0,0-4.46,3A5.71,5.71,0,0,0,25.27,45.83Zm6.31-21.59A5.86,5.86,0,0,0,27.8,25.4a3.86,3.86,0,0,0-1.42,3.15,4.56,4.56,0,0,0,.51,2.18,5.46,5.46,0,0,0,1.5,1.75,18.78,18.78,0,0,0,3.33,1.89,11,11,0,0,0,4-2.62,4.81,4.81,0,0,0,1.16-3.2,3.85,3.85,0,0,0-1.44-3.15A6,6,0,0,0,31.58,24.24Z"/>
      <path class="cls-4" d="M46.89,53.25a1.82,1.82,0,0,1,.45-1.32,1.75,1.75,0,0,1,1.29-.45,1.69,1.69,0,0,1,1.3.47,1.82,1.82,0,0,1,.45,1.3,1.85,1.85,0,0,1-.46,1.31,1.65,1.65,0,0,1-1.29.49,1.68,1.68,0,0,1-1.29-.48A1.85,1.85,0,0,1,46.89,53.25Z"/>
      <path class="cls-4" d="M58.78,37.36a6.08,6.08,0,0,1,3.85,1.11,3.62,3.62,0,0,1,1.42,3q0,2.64-3.16,4.19a8.1,8.1,0,0,1,2.86,2.13,4,4,0,0,1,.85,2.48A4.18,4.18,0,0,1,63,53.67,6.46,6.46,0,0,1,58.82,55a6.85,6.85,0,0,1-4.32-1.2A4.07,4.07,0,0,1,53,50.36a4.34,4.34,0,0,1,.81-2.57,6.66,6.66,0,0,1,2.63-2,6.75,6.75,0,0,1-2.24-2,4.24,4.24,0,0,1-.67-2.35,3.53,3.53,0,0,1,1.47-3A6.14,6.14,0,0,1,58.78,37.36ZM55.6,50.27a2.27,2.27,0,0,0,.86,1.89,3.64,3.64,0,0,0,2.32.68,3.6,3.6,0,0,0,2.35-.7A2.33,2.33,0,0,0,62,50.25a2.41,2.41,0,0,0-.77-1.74,7.25,7.25,0,0,0-2.34-1.45l-.34-.15a6,6,0,0,0-2.23,1.49A2.85,2.85,0,0,0,55.6,50.27Zm3.15-10.79a2.85,2.85,0,0,0-1.88.58,1.9,1.9,0,0,0-.72,1.57,2.28,2.28,0,0,0,.26,1.09,2.91,2.91,0,0,0,.75.88,9.36,9.36,0,0,0,1.66.94,5.46,5.46,0,0,0,2-1.31,2.37,2.37,0,0,0,.58-1.6,1.9,1.9,0,0,0-.72-1.57A3,3,0,0,0,58.75,39.48Z"/>
    </g>
    <g id="Type">
      <path class="cls-4" d="M446.18,46.19h-3.05L440.23,36c-.13-.44-.28-1.09-.47-1.92s-.3-1.43-.34-1.76c-.08.5-.21,1.15-.38,2s-.33,1.39-.44,1.78l-2.84,10.17h-3.05l-2.21-8.58-2.25-8.55h2.86l2.45,10c.38,1.6.65,3,.82,4.25.08-.67.21-1.41.39-2.23s.32-1.49.46-2l2.79-10h2.78l2.86,10.05a39.39,39.39,0,0,1,.87,4.18,30.28,30.28,0,0,1,.84-4.27l2.44-10h2.83Z"/>
      <path class="cls-4" d="M463.7,46.19,462,41.43h-6.55l-1.68,4.76h-2.95L457.22,29h3l6.41,17.2ZM461.25,39l-1.61-4.66c-.11-.32-.27-.81-.48-1.48s-.35-1.17-.43-1.48a25.49,25.49,0,0,1-.93,3.15L456.26,39Z"/>
      <path class="cls-4" d="M468.94,46.19V29.06h2.8V43.79H479v2.4Z"/>
      <path class="cls-4" d="M482,46.19V29.06h2.8V43.79H492v2.4Z"/>
    </g>
    <g id="Inter">
      <rect id="Limits-2" data-name="Limits" class="cls-1" x="128" y="256" width="256" height="256"/>
      <g id="Size-2" data-name="Size">
        <path class="cls-4" d="M160.82,289.44h-2.31v3.74h-2.68v-3.74H148v-2.12L155.83,276h2.68v11.16h2.31Zm-5-2.28v-4.3c0-1.54,0-2.79.12-3.77h-.1a13.35,13.35,0,0,1-1,1.88l-4.25,6.19Z"/>
        <path class="cls-4" d="M162,292.45a.94.94,0,0,1,.22-.66.89.89,0,0,1,.65-.23.85.85,0,0,1,.65.24.9.9,0,0,1,.22.65,1,1,0,0,1-.22.66.87.87,0,0,1-.65.24.85.85,0,0,1-.65-.24A1,1,0,0,1,162,292.45Z"/>
        <path class="cls-4" d="M171.18,291.31H170v1.87h-1.35v-1.87h-3.91v-1.06l3.91-5.66H170v5.58h1.15Zm-2.5-1.14V288c0-.77,0-1.39.06-1.88h0a7.33,7.33,0,0,1-.52.93l-2.13,3.1Z"/>
      </g>
      <g id="Type-2" data-name="Type">
        <path class="cls-4" d="M255.81,289h-1.4V281.6h-2.52v-1.21h6.44v1.21h-2.52Z"/>
        <path class="cls-4" d="M266.35,280.39v5.55a3.32,3.32,0,0,1-.4,1.66,2.77,2.77,0,0,1-1.18,1.09,4.06,4.06,0,0,1-1.84.39,3.41,3.41,0,0,1-2.48-.85,3,3,0,0,1-.89-2.32v-5.52H261v5.42a2.17,2.17,0,0,0,.49,1.57,2,2,0,0,0,1.51.5c1.32,0,2-.69,2-2.08v-5.41Z"/>
        <path class="cls-4" d="M275.68,289H274l-4.21-6.83h0l0,.39c.06.72.09,1.39.09,2V289h-1.28v-8.57h1.7l4.21,6.8h0c0-.09,0-.42-.05-1s0-1,0-1.32v-4.49h1.28Z"/>
        <path class="cls-4" d="M285.08,289h-1.72l-4.21-6.83h0l0,.39c.06.72.08,1.39.08,2V289h-1.27v-8.57h1.7l4.2,6.8h0c0-.09,0-.42-.05-1s0-1,0-1.32v-4.49h1.28Z"/>
        <path class="cls-4" d="M292.19,289h-4.85v-8.57h4.85v1.19h-3.45v2.33H292v1.17h-3.23v2.69h3.45Z"/>
        <path class="cls-4" d="M294,289v-8.57h1.4v7.37h3.63V289Z"/>
        <path class="cls-4" d="M308.51,289h-4.85v-8.57h4.85v1.19h-3.45v2.33h3.23v1.17h-3.23v2.69h3.45Z"/>
        <path class="cls-4" d="M317.49,289h-1.71l-4.22-6.83h0l0,.39c.05.72.08,1.39.08,2V289h-1.27v-8.57h1.7l4.2,6.8h0c0-.09,0-.42,0-1s0-1,0-1.32v-4.49h1.28Z"/>
        <path class="cls-4" d="M322.71,289h-1.4V281.6h-2.52v-1.21h6.44v1.21h-2.52Z"/>
        <path class="cls-4" d="M328,285.54V289h-1.4v-8.57H329a3.93,3.93,0,0,1,2.45.63,2.21,2.21,0,0,1,.8,1.87,2.34,2.34,0,0,1-1.67,2.28L333,289h-1.59l-2.05-3.42Zm0-1.16h1a2.26,2.26,0,0,0,1.42-.36,1.35,1.35,0,0,0,.44-1.08,1.17,1.17,0,0,0-.48-1.05,2.59,2.59,0,0,0-1.43-.31H328Z"/>
        <path class="cls-4" d="M339.53,289l-.85-2.38H335.4l-.84,2.38h-1.47l3.2-8.6h1.52L341,289Zm-1.22-3.58L337.5,283c-.05-.15-.14-.4-.24-.74s-.17-.58-.21-.73a12.77,12.77,0,0,1-.47,1.57l-.77,2.24Z"/>
        <path class="cls-4" d="M349.29,289h-1.72l-4.21-6.83h-.05l0,.39c.05.72.08,1.39.08,2V289h-1.27v-8.57h1.7l4.2,6.8h0c0-.09,0-.42,0-1s0-1,0-1.32v-4.49h1.29Z"/>
        <path class="cls-4" d="M355.19,281.47a2.33,2.33,0,0,0-1.9.86,4.47,4.47,0,0,0,0,4.74,2.33,2.33,0,0,0,1.92.81,4.59,4.59,0,0,0,1.06-.11c.34-.07.69-.16,1.06-.27v1.2a6.51,6.51,0,0,1-2.29.38,3.67,3.67,0,0,1-2.89-1.14,4.78,4.78,0,0,1-1-3.26,5.23,5.23,0,0,1,.49-2.34A3.46,3.46,0,0,1,353,280.8a4.34,4.34,0,0,1,2.18-.53,5.47,5.47,0,0,1,2.42.55l-.5,1.17a6.76,6.76,0,0,0-.92-.36A3.11,3.11,0,0,0,355.19,281.47Z"/>
        <path class="cls-4" d="M364,289h-4.85v-8.57H364v1.19h-3.45v2.33h3.23v1.17h-3.23v2.69H364Z"/>
      </g>
    </g>
  </g>
</svg>
