<svg xmlns="http://www.w3.org/2000/svg" width="128" height="64" viewBox="0 0 128 64"><defs><style>.cls-1{fill:#cccccb;stroke:#666766;stroke-miterlimit:10;stroke-width:2px;}.cls-2{fill:#666;}</style></defs><title>dledtk_2x1_c</title><g id="_2x1" data-name="2x1"><g id="Ceiling"><rect id="Limits" class="cls-1" width="128" height="64"/><g id="Size"><path class="cls-2" d="M34.71,49.21H11.49V45l8.83-8.89a73.8,73.8,0,0,0,5.19-5.68,13.79,13.79,0,0,0,1.87-3.15A8.54,8.54,0,0,0,28,24.15a4.82,4.82,0,0,0-1.39-3.65,5.36,5.36,0,0,0-3.86-1.34,10.2,10.2,0,0,0-3.81.73,18,18,0,0,0-4.25,2.62l-3-3.63a19.17,19.17,0,0,1,5.56-3.42,16.31,16.31,0,0,1,5.74-1A11.25,11.25,0,0,1,30.63,17a8.4,8.4,0,0,1,2.89,6.71,11.88,11.88,0,0,1-.83,4.41,18.14,18.14,0,0,1-2.56,4.3,59.9,59.9,0,0,1-5.73,6l-5.95,5.76v.24H34.71Z"/><path class="cls-2" d="M38.33,47.74a1.8,1.8,0,0,1,.45-1.31A1.75,1.75,0,0,1,40.07,46a1.69,1.69,0,0,1,1.3.48,1.79,1.79,0,0,1,.44,1.29,1.85,1.85,0,0,1-.45,1.32,1.65,1.65,0,0,1-1.29.49,1.68,1.68,0,0,1-1.29-.48A1.86,1.86,0,0,1,38.33,47.74Z"/><path class="cls-2" d="M52.51,49.21H49.76V38.15c0-1.33,0-2.37.09-3.15q-.27.28-.66.63l-2.63,2.15L45.18,36l5-4h2.29Z"/></g><path class="cls-2" d="M94.72,25.54a4.62,4.62,0,0,0-3.8,1.71A7.34,7.34,0,0,0,89.54,32a7.3,7.3,0,0,0,1.33,4.76,4.69,4.69,0,0,0,3.85,1.62,10.49,10.49,0,0,0,2.11-.21c.68-.15,1.38-.33,2.12-.56V40a12.85,12.85,0,0,1-4.57.76,7.3,7.3,0,0,1-5.78-2.28,9.55,9.55,0,0,1-2-6.52,10.53,10.53,0,0,1,1-4.67,7,7,0,0,1,2.83-3.07,8.5,8.5,0,0,1,4.35-1.07,10.83,10.83,0,0,1,4.85,1.1l-1,2.33a15.84,15.84,0,0,0-1.83-.72A6.79,6.79,0,0,0,94.72,25.54Z"/><path class="cls-2" d="M101.94,39.05a1.79,1.79,0,0,1,.44-1.31,1.75,1.75,0,0,1,1.29-.46,1.69,1.69,0,0,1,1.3.48,1.79,1.79,0,0,1,.45,1.29,1.81,1.81,0,0,1-.46,1.32,1.65,1.65,0,0,1-1.29.49,1.68,1.68,0,0,1-1.29-.48A1.86,1.86,0,0,1,101.94,39.05Z"/></g></g></svg>