<svg xmlns="http://www.w3.org/2000/svg" width="128" height="128" viewBox="0 0 128 128">
  <defs>
    <style>
      .cls-1 {
        fill: #03a9f4;
      }

      .cls-2 {
        fill: #fff;
      }
    </style>
  </defs>
  <title>dledtk_sp_1x1_water</title>
  <g id="Specials">
    <g id="Water">
      <rect id="Limits" class="cls-1" width="128" height="128"/>
      <g id="Text">
        <g>
          <path class="cls-2" d="M54.29,85.87,52.14,88l-9.28-5.17c-.41-.23-1-.57-1.7-1s-1.22-.79-1.48-1c.3.4.67,1,1.11,1.64s.76,1.21,1,1.57l5.19,9.2-2.16,2.15-7.63-4.5L29.5,86.44l2-2,8.79,5.33a41.39,41.39,0,0,1,3.58,2.42c-.41-.53-.84-1.14-1.3-1.85s-.82-1.28-1.08-1.74l-5.1-9,2-2,9.14,5.09A36.55,36.55,0,0,1,51.07,85a31.15,31.15,0,0,1-2.42-3.62l-5.32-8.76,2-2Z"/>
          <path class="cls-2" d="M66.68,73.48l-4.57-2.15L57.47,76l2.18,4.55L57.57,82.6,49.93,65.9l2.16-2.15,16.7,7.63Zm-6.8-3.34L55.44,68c-.3-.14-.76-.37-1.38-.7s-1.07-.57-1.35-.74a26.87,26.87,0,0,1,1.57,2.88l2.07,4.25Z"/>
          <path class="cls-2" d="M74.57,65.6l-2,2L62.17,57.16l-3.56,3.56L56.91,59,66,49.92l1.7,1.7-3.57,3.56Z"/>
          <path class="cls-2" d="M86.84,53.32,80,60.18,67.87,48.06l6.86-6.85,1.67,1.67-4.87,4.87,3.3,3.3,4.56-4.56,1.66,1.65-4.57,4.57,3.81,3.8,4.87-4.87Z"/>
          <path class="cls-2" d="M86.6,43.88l4.84,4.84-2,2L77.35,38.59l3.42-3.42a7.93,7.93,0,0,1,4.35-2.6A4.51,4.51,0,0,1,88.9,34.1a4.72,4.72,0,0,1,.87,5.58l8.78,1.93L96.3,43.87l-7.74-1.94ZM85,42.24l1.38-1.37a4.43,4.43,0,0,0,1.49-2.52,2.64,2.64,0,0,0-.91-2.15,2.32,2.32,0,0,0-2.14-.8A5.18,5.18,0,0,0,82.31,37L81,38.28Z"/>
        </g>
        <g>
          <path class="cls-2" d="M137.48-2.68l-2.15,4.57L140,6.53l4.55-2.18,2.09,2.08-16.7,7.64-2.15-2.16,7.63-16.7Zm-3.34,6.8L132,8.56c-.14.3-.37.76-.7,1.38s-.57,1.07-.74,1.35a26.87,26.87,0,0,1,2.88-1.57l4.25-2.07Z"/>
          <path class="cls-2" d="M129.6-10.57l2,2L121.16,1.83l3.56,3.56L123,7.09,113.92-2l1.7-1.7,3.56,3.57Z"/>
        </g>
        <g>
          <path class="cls-2" d="M21.87,9.71,24,11.86l-5.17,9.28c-.23.41-.57,1-1,1.7s-.79,1.22-1,1.48c.4-.3,1-.67,1.64-1.11s1.21-.76,1.57-.95l9.2-5.19,2.15,2.16-4.5,7.63L22.44,34.5l-2-2,5.33-8.79a41.39,41.39,0,0,1,2.42-3.58c-.53.41-1.14.84-1.85,1.3s-1.28.82-1.74,1.08l-9,5.1-2-2,5.09-9.14A36.55,36.55,0,0,1,21,12.93a31.15,31.15,0,0,1-3.62,2.42L8.61,20.67l-2-2Z"/>
          <path class="cls-2" d="M9.48-2.68,7.33,1.89,12,6.53l4.55-2.18L18.6,6.43,1.9,14.07-.25,11.91,7.38-4.79ZM6.14,4.12,4,8.56c-.14.3-.37.76-.7,1.38S2.71,11,2.54,11.29A26.87,26.87,0,0,1,5.42,9.72L9.67,7.65Z"/>
          <path class="cls-2" d="M1.6-10.57l2,2L-6.84,1.83l3.56,3.56L-5,7.09-14.08-2l1.7-1.7L-8.82-.15Z"/>
        </g>
        <g>
          <path class="cls-2" d="M137.48,125.32l-2.15,4.57,4.63,4.64,4.55-2.18,2.09,2.08-16.7,7.64-2.15-2.16,7.63-16.7Zm-3.34,6.8L132,136.56c-.14.3-.37.76-.7,1.38s-.57,1.07-.74,1.35a26.87,26.87,0,0,1,2.88-1.57l4.25-2.07Z"/>
          <path class="cls-2" d="M129.6,117.43l2,2-10.42,10.42,3.56,3.56-1.7,1.7-9.1-9.11,1.7-1.7,3.56,3.57Z"/>
          <path class="cls-2" d="M117.32,105.16l6.86,6.85-12.12,12.12-6.85-6.86,1.67-1.67,4.87,4.87,3.3-3.3-4.56-4.56,1.65-1.66,4.57,4.57,3.8-3.81-4.87-4.87Z"/>
          <path class="cls-2" d="M107.88,105.4l4.84-4.84,2,2-12.11,12.11-3.42-3.42a7.93,7.93,0,0,1-2.6-4.35,4.51,4.51,0,0,1,1.53-3.78,4.72,4.72,0,0,1,5.58-.87l1.93-8.78,2.26,2.25-1.94,7.74ZM106.24,107l-1.37-1.38a4.43,4.43,0,0,0-2.52-1.49,2.64,2.64,0,0,0-2.15.91,2.32,2.32,0,0,0-.8,2.14,5.18,5.18,0,0,0,1.57,2.47l1.31,1.31Z"/>
        </g>
        <g>
          <path class="cls-2" d="M9.48,125.32l-2.15,4.57L12,134.53l4.55-2.18,2.09,2.08L1.9,142.07l-2.15-2.16,7.63-16.7Zm-3.34,6.8L4,136.56c-.14.3-.37.76-.7,1.38s-.57,1.07-.74,1.35a26.87,26.87,0,0,1,2.88-1.57l4.25-2.07Z"/>
          <path class="cls-2" d="M1.6,117.43l2,2L-6.84,129.83l3.56,3.56-1.7,1.7-9.1-9.11,1.7-1.7,3.56,3.57Z"/>
        </g>
      </g>
    </g>
  </g>
</svg>
