<svg xmlns="http://www.w3.org/2000/svg" width="256" height="256" viewBox="0 0 256 256"><defs><style>.cls-1{fill:#f1582b;stroke:#fffeff;}.cls-1,.cls-3{stroke-miterlimit:10;stroke-width:2px;}.cls-2{opacity:0.25;}.cls-3{fill:none;stroke:#fff;}.cls-4{fill:#fff;}</style></defs><title>dledtk_4x4_cr</title><g id="_4x4" data-name="4x4"><g id="Crate"><rect id="Limits" class="cls-1" width="256" height="256"/><g id="Grid" class="cls-2"><line id="Diagonal" class="cls-3" x2="256" y2="256"/><line id="Diagonal-2" data-name="Diagonal" class="cls-3" x1="256" y2="256"/></g><g id="Size"><path class="cls-4" d="M66.46,73.53H61.84V81H56.48V73.53H40.82V69.29L56.48,46.65h5.36V69h4.62ZM56.48,69v-8.6c0-3.06.07-5.57.23-7.52h-.19a25.68,25.68,0,0,1-2.06,3.75L46,69Z"/><path class="cls-4" d="M68.86,79.54a1.8,1.8,0,0,1,.45-1.31,1.75,1.75,0,0,1,1.29-.45,1.69,1.69,0,0,1,1.3.47,1.81,1.81,0,0,1,.44,1.29,1.85,1.85,0,0,1-.45,1.32,1.65,1.65,0,0,1-1.29.49,1.68,1.68,0,0,1-1.29-.48A1.86,1.86,0,0,1,68.86,79.54Z"/><path class="cls-4" d="M87.18,77.27H84.87V81H82.19V77.27H74.36V75.15l7.83-11.32h2.68V75h2.31Zm-5-2.28v-4.3c0-1.54,0-2.79.11-3.77h-.09a13.35,13.35,0,0,1-1,1.88L76.93,75Z"/></g><g id="Type"><path class="cls-4" d="M164.87,57.6a4.62,4.62,0,0,0-3.8,1.71A7.31,7.31,0,0,0,159.69,64,7.35,7.35,0,0,0,161,68.8a4.69,4.69,0,0,0,3.85,1.62,10.39,10.39,0,0,0,2.1-.22c.68-.15,1.39-.33,2.13-.56V72a12.84,12.84,0,0,1-4.57.77,7.3,7.3,0,0,1-5.78-2.28c-1.35-1.52-2-3.7-2-6.52a10.58,10.58,0,0,1,1-4.68,7,7,0,0,1,2.83-3.07,8.58,8.58,0,0,1,4.35-1.07,10.83,10.83,0,0,1,4.85,1.1l-1,2.34a13.39,13.39,0,0,0-1.83-.72A6.53,6.53,0,0,0,164.87,57.6Z"/><path class="cls-4" d="M175.59,65.73v6.84h-2.8V55.44h4.84a8,8,0,0,1,4.91,1.24,4.47,4.47,0,0,1,1.59,3.75q0,3.2-3.33,4.56l4.84,7.58h-3.18l-4.11-6.84Zm0-2.32h1.94a4.42,4.42,0,0,0,2.84-.73,2.61,2.61,0,0,0,.88-2.15,2.33,2.33,0,0,0-.95-2.09,5.23,5.23,0,0,0-2.86-.63h-1.85Z"/><path class="cls-4" d="M198.76,72.57,197,67.81h-6.55l-1.67,4.76h-2.95l6.41-17.2h3l6.41,17.2Zm-2.45-7.17-1.61-4.66c-.12-.32-.28-.81-.49-1.48s-.34-1.16-.42-1.48a26.12,26.12,0,0,1-.93,3.16l-1.55,4.46Z"/><path class="cls-4" d="M209.91,72.57h-2.8V57.84h-5v-2.4H215v2.4h-5Z"/><path class="cls-4" d="M227.27,72.57h-9.69V55.44h9.69v2.37h-6.89v4.66h6.45v2.34h-6.45v5.38h6.89Z"/></g></g></g></svg>