<svg xmlns="http://www.w3.org/2000/svg" width="64" height="128" viewBox="0 0 64 128"><defs><style>.cls-1{fill:#cccccb;stroke:#666766;stroke-miterlimit:10;stroke-width:2px;}.cls-2{fill:#666;}</style></defs><title>dledtk_1x2_c</title><g id="_1x2" data-name="1x2"><g id="Ceiling"><rect id="Limits" class="cls-1" width="64" height="128"/><path class="cls-2" d="M30.72,89.54a4.62,4.62,0,0,0-3.8,1.71,9,9,0,0,0-.05,9.5,4.71,4.71,0,0,0,3.85,1.61,10.49,10.49,0,0,0,2.11-.21c.68-.15,1.38-.33,2.12-.56V104a12.85,12.85,0,0,1-4.57.76,7.3,7.3,0,0,1-5.78-2.28,9.53,9.53,0,0,1-2-6.52,10.53,10.53,0,0,1,1-4.67,7,7,0,0,1,2.83-3.07,8.6,8.6,0,0,1,4.35-1.07,10.83,10.83,0,0,1,4.85,1.1l-1,2.33a15.84,15.84,0,0,0-1.83-.72A6.79,6.79,0,0,0,30.72,89.54Z"/><path class="cls-2" d="M37.94,103.05a1.79,1.79,0,0,1,.44-1.31,1.75,1.75,0,0,1,1.29-.45,1.69,1.69,0,0,1,1.3.47,2.1,2.1,0,0,1,0,2.61,1.65,1.65,0,0,1-1.29.49,1.68,1.68,0,0,1-1.29-.48A1.86,1.86,0,0,1,37.94,103.05Z"/><path class="cls-2" d="M25.14,49h-5.5V26.84c0-2.64.06-4.74.18-6.28-.36.37-.8.79-1.32,1.24s-2.28,1.89-5.26,4.31l-2.77-3.49L20.55,14.7h4.59Z"/><path class="cls-2" d="M35.82,47.5a1.78,1.78,0,0,1,.45-1.31,1.67,1.67,0,0,1,1.28-.46,1.75,1.75,0,0,1,1.31.47,1.86,1.86,0,0,1,.44,1.3,1.89,1.89,0,0,1-.45,1.32,1.69,1.69,0,0,1-1.3.48,1.64,1.64,0,0,1-1.28-.48A1.85,1.85,0,0,1,35.82,47.5Z"/><path class="cls-2" d="M53.53,49H41.91V46.88l4.42-4.44a37.84,37.84,0,0,0,2.6-2.85A7,7,0,0,0,49.86,38a4.35,4.35,0,0,0,.29-1.58,2.41,2.41,0,0,0-.69-1.83,2.67,2.67,0,0,0-1.93-.67,5.22,5.22,0,0,0-1.91.36,8.63,8.63,0,0,0-2.12,1.32L42,33.8a9.31,9.31,0,0,1,2.78-1.71,8,8,0,0,1,2.87-.51,5.66,5.66,0,0,1,3.83,1.25,4.21,4.21,0,0,1,1.44,3.36,5.82,5.82,0,0,1-.42,2.2,8.75,8.75,0,0,1-1.27,2.15,29.52,29.52,0,0,1-2.87,3l-3,2.88v.12h8.14Z"/></g></g></svg>