<svg xmlns="http://www.w3.org/2000/svg" width="384" height="64" viewBox="0 0 384 64"><defs><style>.cls-1{fill:#f80;}.cls-1,.cls-3{stroke:#fff;stroke-miterlimit:10;stroke-width:2px;}.cls-2{opacity:0.25;}.cls-3{fill:none;}.cls-4{fill:#fff;}</style></defs><title>dledtk_6x1_w</title><g id="_6x1" data-name="6x1"><g id="Wall"><rect id="Limits" class="cls-1" width="384" height="64"/><g id="Grid" class="cls-2"><line id="Vertical" class="cls-3" x1="256" x2="256" y2="64"/><line id="Vertical-2" data-name="Vertical" class="cls-3" x1="128" x2="128" y2="64"/></g><g id="Marks"><polygon id="Mark" class="cls-4" points="144 -1 132 -1 132 -2 130 -2 130 -4 129 -4 129 -16 127 -16 127 -4 126 -4 126 -2 124 -2 124 -1 112 -1 112 1 124 1 124 2 126 2 126 4 127 4 127 16 129 16 129 4 130 4 130 2 132 2 132 1 144 1 144 -1"/><polygon id="Mark-2" data-name="Mark" class="cls-4" points="144 63 132 63 132 62 130 62 130 60 129 60 129 48 127 48 127 60 126 60 126 62 124 62 124 63 112 63 112 65 124 65 124 66 126 66 126 68 127 68 127 80 129 80 129 68 130 68 130 66 132 66 132 65 144 65 144 63"/><polygon id="Mark-3" data-name="Mark" class="cls-4" points="272 63 260 63 260 62 258 62 258 60 257 60 257 48 255 48 255 60 254 60 254 62 252 62 252 63 240 63 240 65 252 65 252 66 254 66 254 68 255 68 255 80 257 80 257 68 258 68 258 66 260 66 260 65 272 65 272 63"/><polygon id="Mark-4" data-name="Mark" class="cls-4" points="272 -1 260 -1 260 -2 258 -2 258 -4 257 -4 257 -16 255 -16 255 -4 254 -4 254 -2 252 -2 252 -1 240 -1 240 1 252 1 252 2 254 2 254 4 255 4 255 16 257 16 257 4 258 4 258 2 260 2 260 1 272 1 272 -1"/></g><g id="Size"><path class="cls-4" d="M43.53,34.52q0-20.12,16.39-20.11a20.11,20.11,0,0,1,4.36.4V19.4a15.1,15.1,0,0,0-4.13-.51q-5.51,0-8.27,2.95t-3,9.47h.28a7.43,7.43,0,0,1,3.09-2.94,9.92,9.92,0,0,1,4.69-1.05,9.36,9.36,0,0,1,7.27,2.86,11.13,11.13,0,0,1,2.6,7.76,11.76,11.76,0,0,1-3,8.52,10.83,10.83,0,0,1-8.21,3.13,11.47,11.47,0,0,1-6.4-1.77A11.27,11.27,0,0,1,45,42.66,20.35,20.35,0,0,1,43.53,34.52ZM55.49,45a5.39,5.39,0,0,0,4.37-1.83A7.91,7.91,0,0,0,61.39,38,6.91,6.91,0,0,0,60,33.35a5.35,5.35,0,0,0-4.32-1.69,7.1,7.1,0,0,0-3.28.76A6.1,6.1,0,0,0,50,34.51a4.85,4.85,0,0,0-.87,2.7,8.71,8.71,0,0,0,1.79,5.57A5.61,5.61,0,0,0,55.49,45Z"/><path class="cls-4" d="M70.29,47.66a1.86,1.86,0,0,1,.44-1.32A1.75,1.75,0,0,1,72,45.89a1.67,1.67,0,0,1,1.3.47,1.82,1.82,0,0,1,.45,1.3A1.84,1.84,0,0,1,73.32,49a2,2,0,0,1-2.59,0A1.9,1.9,0,0,1,70.29,47.66Z"/><path class="cls-4" d="M84.47,49.12H81.71V38.06c0-1.32,0-2.37.1-3.14a8.7,8.7,0,0,1-.67.62c-.26.23-1.13.94-2.63,2.16L77.13,36l5-4h2.3Z"/></g><g id="Type"><path class="cls-4" d="M306.05,40.6h-3L300.1,30.38c-.12-.44-.28-1.09-.47-1.92s-.3-1.43-.34-1.76c-.08.5-.2,1.15-.38,1.95s-.32,1.39-.44,1.78L295.64,40.6h-3.05L290.38,32l-2.25-8.55H291l2.45,10a39.93,39.93,0,0,1,.82,4.25c.09-.67.22-1.41.39-2.23s.33-1.49.47-2l2.79-10h2.78l2.86,10.05a37.45,37.45,0,0,1,.86,4.18,30.53,30.53,0,0,1,.85-4.27l2.43-10h2.84Z"/><path class="cls-4" d="M323.57,40.6l-1.71-4.76h-6.55l-1.67,4.76h-3l6.41-17.2h3.05l6.41,17.2Zm-2.44-7.17-1.61-4.66c-.12-.32-.28-.81-.49-1.48s-.35-1.16-.42-1.48a27.35,27.35,0,0,1-.93,3.15l-1.55,4.47Z"/><path class="cls-4" d="M328.81,40.6V23.47h2.8V38.2h7.26v2.4Z"/><path class="cls-4" d="M341.82,40.6V23.47h2.8V38.2h7.26v2.4Z"/></g></g></g></svg>