<svg id="_8x8" data-name="8x8" xmlns="http://www.w3.org/2000/svg" width="512" height="512" viewBox="0 0 512 512">
  <defs>
    <style>
      .cls-1 {
        fill: #f80;
        stroke: #fffeff;
        stroke-miterlimit: 10;
        stroke-width: 2px;
      }

      .cls-2 {
        fill: #fff;
      }
    </style>
  </defs>
  <title>dledtk_8x8_td</title>
  <g id="Trigon_d_" data-name="Trigon (d)">
    <polygon id="Limits" class="cls-1" points="0 512 512 512 512 0 0 512"/>
    <g id="Size">
      <path class="cls-2" d="M459,456.82a12.13,12.13,0,0,1,7.71,2.24,7.24,7.24,0,0,1,2.84,6q0,5.26-6.33,8.39a16.23,16.23,0,0,1,5.73,4.24,7.94,7.94,0,0,1,1.7,5,8.35,8.35,0,0,1-3.12,6.8c-2.07,1.7-4.89,2.55-8.43,2.55q-5.58,0-8.65-2.39a8.07,8.07,0,0,1-3.07-6.77,8.73,8.73,0,0,1,1.6-5.15,13.43,13.43,0,0,1,5.27-4.06,13.2,13.2,0,0,1-4.48-4,8.5,8.5,0,0,1-1.34-4.68,7.06,7.06,0,0,1,2.93-5.94A12.33,12.33,0,0,1,459,456.82Zm-6.35,25.83a4.53,4.53,0,0,0,1.71,3.78,7.3,7.3,0,0,0,4.64,1.35,7.12,7.12,0,0,0,4.7-1.39,4.66,4.66,0,0,0,1.68-3.79,4.88,4.88,0,0,0-1.55-3.47,14.63,14.63,0,0,0-4.69-2.9l-.68-.31a12.1,12.1,0,0,0-4.45,3A5.65,5.65,0,0,0,452.67,482.65ZM459,461.06a5.84,5.84,0,0,0-3.78,1.16,3.87,3.87,0,0,0-1.43,3.16,4.55,4.55,0,0,0,.52,2.17,5.46,5.46,0,0,0,1.5,1.75,18.42,18.42,0,0,0,3.33,1.89,11,11,0,0,0,4-2.62,4.8,4.8,0,0,0,1.16-3.19,3.85,3.85,0,0,0-1.44-3.16A6,6,0,0,0,459,461.06Z"/>
      <path class="cls-2" d="M474.29,490.07a1.82,1.82,0,0,1,.45-1.32,2.05,2.05,0,0,1,2.59,0,1.81,1.81,0,0,1,.44,1.3,1.84,1.84,0,0,1-.45,1.31,2,2,0,0,1-2.58,0A1.85,1.85,0,0,1,474.29,490.07Z"/>
      <path class="cls-2" d="M486.18,474.18a6.08,6.08,0,0,1,3.85,1.11,3.62,3.62,0,0,1,1.42,3c0,1.76-1.06,3.16-3.16,4.19a8.19,8.19,0,0,1,2.86,2.13,4,4,0,0,1,.85,2.48,4.18,4.18,0,0,1-1.56,3.4,6.46,6.46,0,0,1-4.22,1.28,6.85,6.85,0,0,1-4.32-1.2,4,4,0,0,1-1.54-3.39,4.34,4.34,0,0,1,.81-2.57,6.66,6.66,0,0,1,2.63-2,6.65,6.65,0,0,1-2.24-2,4.24,4.24,0,0,1-.67-2.35,3.53,3.53,0,0,1,1.47-3A6.14,6.14,0,0,1,486.18,474.18ZM483,487.09a2.27,2.27,0,0,0,.86,1.89,4.3,4.3,0,0,0,4.67,0,2.36,2.36,0,0,0,.83-1.89,2.41,2.41,0,0,0-.77-1.74,7.37,7.37,0,0,0-2.34-1.45l-.34-.15a6,6,0,0,0-2.23,1.49A2.85,2.85,0,0,0,483,487.09Zm3.15-10.79a2.85,2.85,0,0,0-1.88.58,1.9,1.9,0,0,0-.72,1.57,2.28,2.28,0,0,0,.26,1.09,2.91,2.91,0,0,0,.75.88,9.36,9.36,0,0,0,1.66.94,5.46,5.46,0,0,0,2-1.31,2.37,2.37,0,0,0,.58-1.6,1.9,1.9,0,0,0-.72-1.57A3,3,0,0,0,486.15,476.3Z"/>
    </g>
    <g id="Type">
      <path class="cls-2" d="M94.77,483H92V468.26h-5v-2.4H99.81v2.4h-5Z"/>
      <path class="cls-2" d="M105.24,476.15V483h-2.8V465.86h4.84a8,8,0,0,1,4.91,1.24,4.47,4.47,0,0,1,1.59,3.75,4.68,4.68,0,0,1-3.33,4.56l4.84,7.58H112.1l-4.1-6.84Zm0-2.32h1.94a4.42,4.42,0,0,0,2.84-.73,2.64,2.64,0,0,0,.88-2.15,2.33,2.33,0,0,0-1-2.09,5.25,5.25,0,0,0-2.86-.63h-1.85Z"/>
      <path class="cls-2" d="M117.78,483V465.86h2.8V483Z"/>
      <path class="cls-2" d="M132.11,473.7h6.3v8.6a17.75,17.75,0,0,1-3,.72,21.06,21.06,0,0,1-3.07.21,7.73,7.73,0,0,1-6-2.3,9.28,9.28,0,0,1-2.11-6.5,8.69,8.69,0,0,1,2.37-6.48,9,9,0,0,1,6.56-2.33,12.71,12.71,0,0,1,5.08,1l-1,2.33a9.9,9.9,0,0,0-4.17-1,5.61,5.61,0,0,0-4.34,1.72,6.68,6.68,0,0,0-1.59,4.71,7,7,0,0,0,1.43,4.78,5.2,5.2,0,0,0,4.13,1.63,13.36,13.36,0,0,0,2.91-.34V476.1h-3.55Z"/>
      <path class="cls-2" d="M157.74,474.4a9.37,9.37,0,0,1-2.1,6.51,8.79,8.79,0,0,1-11.88,0,9.43,9.43,0,0,1-2.08-6.55q0-4.25,2.09-6.51a7.71,7.71,0,0,1,6-2.28,7.55,7.55,0,0,1,5.91,2.31A9.37,9.37,0,0,1,157.74,474.4Zm-13.08,0a7.63,7.63,0,0,0,1.28,4.8,5.19,5.19,0,0,0,7.55,0,9.74,9.74,0,0,0,0-9.6,4.47,4.47,0,0,0-3.76-1.63,4.56,4.56,0,0,0-3.8,1.63A7.65,7.65,0,0,0,144.66,474.4Z"/>
      <path class="cls-2" d="M175.69,483h-3.43l-8.43-13.65h-.09l0,.76c.11,1.46.17,2.78.17,4V483h-2.54V465.86h3.39l8.41,13.58h.07c0-.18,0-.83-.1-2s-.07-2-.07-2.64v-9h2.57Z"/>
    </g>
  </g>
</svg>
