<svg xmlns="http://www.w3.org/2000/svg" width="512" height="512" viewBox="0 0 512 512"><defs><style>.cls-1{fill:#f80;stroke:#fff;stroke-miterlimit:10;stroke-width:2px;}.cls-2{fill:#fff;}</style></defs><title>dledtk_8x8_el</title><g id="_8x8" data-name="8x8"><g id="Large_entrance" data-name="Large entrance"><rect id="Limits" class="cls-1" width="512" height="512"/><g id="Size"><path class="cls-2" d="M250.66,23.21a6.11,6.11,0,0,1,3.86,1.11,3.65,3.65,0,0,1,1.42,3c0,1.76-1.06,3.15-3.17,4.19a8.26,8.26,0,0,1,2.87,2.12,4.08,4.08,0,0,1,.85,2.49,4.18,4.18,0,0,1-1.56,3.4,6.48,6.48,0,0,1-4.22,1.27,6.9,6.9,0,0,1-4.33-1.19,4.06,4.06,0,0,1-1.53-3.39,4.4,4.4,0,0,1,.8-2.57,6.73,6.73,0,0,1,2.63-2,6.85,6.85,0,0,1-2.24-2,4.32,4.32,0,0,1-.66-2.35,3.55,3.55,0,0,1,1.46-3A6.16,6.16,0,0,1,250.66,23.21Zm-3.17,12.91a2.27,2.27,0,0,0,.85,1.89,3.66,3.66,0,0,0,2.32.68A3.6,3.6,0,0,0,253,38a2.34,2.34,0,0,0,.84-1.89,2.44,2.44,0,0,0-.77-1.74,7.31,7.31,0,0,0-2.35-1.45l-.34-.15a6,6,0,0,0-2.22,1.49A2.8,2.8,0,0,0,247.49,36.12Zm3.15-10.79a2.9,2.9,0,0,0-1.89.58,1.92,1.92,0,0,0-.71,1.57,2.28,2.28,0,0,0,.25,1.09,3.23,3.23,0,0,0,.75.88,9.53,9.53,0,0,0,1.67.94,5.59,5.59,0,0,0,2-1.31,2.42,2.42,0,0,0,.58-1.6,1.88,1.88,0,0,0-.73-1.57A2.92,2.92,0,0,0,250.64,25.33Z"/><path class="cls-2" d="M258.3,39.83a.89.89,0,0,1,.22-.66.86.86,0,0,1,.64-.23.82.82,0,0,1,.65.24.9.9,0,0,1,.23.65.93.93,0,0,1-.23.66.84.84,0,0,1-.65.24.83.83,0,0,1-.64-.24A.92.92,0,0,1,258.3,39.83Z"/><path class="cls-2" d="M264.24,31.88a3.08,3.08,0,0,1,1.93.56,1.83,1.83,0,0,1,.71,1.5,2.36,2.36,0,0,1-1.59,2.1,4.13,4.13,0,0,1,1.44,1.06,2,2,0,0,1,.42,1.24,2.09,2.09,0,0,1-.78,1.7,3.26,3.26,0,0,1-2.11.64,3.43,3.43,0,0,1-2.16-.6,2,2,0,0,1-.77-1.69,2.24,2.24,0,0,1,.4-1.29,3.44,3.44,0,0,1,1.32-1,3.27,3.27,0,0,1-1.12-1,2.11,2.11,0,0,1-.33-1.17,1.75,1.75,0,0,1,.73-1.48A3.07,3.07,0,0,1,264.24,31.88Zm-1.59,6.46a1.13,1.13,0,0,0,.43.95,1.84,1.84,0,0,0,1.16.33,1.74,1.74,0,0,0,1.17-.35,1.15,1.15,0,0,0,.42-.94,1.23,1.23,0,0,0-.38-.87,3.81,3.81,0,0,0-1.18-.73l-.17-.07a2.9,2.9,0,0,0-1.11.75A1.39,1.39,0,0,0,262.65,38.34Zm1.58-5.4a1.49,1.49,0,0,0-1,.29,1,1,0,0,0-.35.79,1.23,1.23,0,0,0,.12.55,1.53,1.53,0,0,0,.38.43,4.22,4.22,0,0,0,.83.47,2.6,2.6,0,0,0,1-.65,1.16,1.16,0,0,0,.29-.8,1,1,0,0,0-.36-.79A1.48,1.48,0,0,0,264.23,32.94Z"/></g><g id="Type"><path class="cls-2" d="M205.51,484.29v-8.57h1.4v7.36h3.63v1.21Z"/><path class="cls-2" d="M217.33,484.29l-.85-2.38H213.2l-.84,2.38h-1.47l3.2-8.61h1.52l3.21,8.61Zm-1.22-3.59-.81-2.33c-.05-.16-.14-.4-.24-.74s-.17-.58-.21-.74a12.88,12.88,0,0,1-.47,1.58l-.77,2.23Z"/><path class="cls-2" d="M221.35,480.86v3.43H220v-8.57h2.42a4,4,0,0,1,2.46.62,2.23,2.23,0,0,1,.79,1.88A2.35,2.35,0,0,1,224,480.5l2.42,3.79h-1.6l-2.05-3.43Zm0-1.16h1a2.22,2.22,0,0,0,1.42-.36,1.32,1.32,0,0,0,.44-1.08,1.17,1.17,0,0,0-.47-1,2.63,2.63,0,0,0-1.43-.32h-.93Z"/><path class="cls-2" d="M231.12,479.64h3.16v4.3a8.93,8.93,0,0,1-1.49.36,10.58,10.58,0,0,1-1.54.1,3.87,3.87,0,0,1-3-1.15A4.65,4.65,0,0,1,227.2,480a4.27,4.27,0,0,1,1.19-3.23,4.45,4.45,0,0,1,3.27-1.17,6.45,6.45,0,0,1,2.55.51l-.5,1.17a4.93,4.93,0,0,0-2.08-.48,2.78,2.78,0,0,0-2.17.86,3.33,3.33,0,0,0-.8,2.35,3.5,3.5,0,0,0,.72,2.39,2.6,2.6,0,0,0,2.07.82,7,7,0,0,0,1.45-.17v-2.21h-1.78Z"/><path class="cls-2" d="M241.18,484.29h-4.85v-8.57h4.85v1.18h-3.45v2.34H241v1.17h-3.23v2.69h3.45Z"/><path class="cls-2" d="M251,484.29h-4.84v-8.57H251v1.18h-3.44v2.34h3.23v1.17h-3.23v2.69H251Z"/><path class="cls-2" d="M260,484.29h-1.72l-4.21-6.83H254l0,.38c.06.73.09,1.39.09,2v4.46h-1.28v-8.57h1.7l4.21,6.79h0c0-.09,0-.42,0-1s0-1,0-1.32v-4.49H260Z"/><path class="cls-2" d="M265.2,484.29h-1.4v-7.37h-2.52v-1.2h6.44v1.2H265.2Z"/><path class="cls-2" d="M270.43,480.86v3.43H269v-8.57h2.42a4,4,0,0,1,2.46.62,2.23,2.23,0,0,1,.8,1.88A2.36,2.36,0,0,1,273,480.5l2.42,3.79h-1.59l-2.05-3.43Zm0-1.16h1a2.26,2.26,0,0,0,1.42-.36,1.32,1.32,0,0,0,.43-1.08,1.15,1.15,0,0,0-.47-1,2.61,2.61,0,0,0-1.43-.32h-.93Z"/><path class="cls-2" d="M282,484.29l-.86-2.38h-3.27l-.84,2.38h-1.48l3.21-8.61h1.52l3.21,8.61Zm-1.23-3.59-.8-2.33c-.06-.16-.14-.4-.24-.74s-.18-.58-.22-.74a12.72,12.72,0,0,1-.46,1.58l-.77,2.23Z"/><path class="cls-2" d="M291.77,484.29h-1.71l-4.22-6.83h0l0,.38c.05.73.08,1.39.08,2v4.46h-1.27v-8.57h1.7l4.2,6.79h0c0-.09,0-.42,0-1s0-1,0-1.32v-4.49h1.28Z"/><path class="cls-2" d="M297.68,476.8a2.31,2.31,0,0,0-1.9.85,4.49,4.49,0,0,0,0,4.75,2.33,2.33,0,0,0,1.92.81,5.29,5.29,0,0,0,1.06-.11c.34-.07.69-.17,1.06-.28V484a6.36,6.36,0,0,1-2.29.38,3.66,3.66,0,0,1-2.89-1.14,4.77,4.77,0,0,1-1-3.26,5.3,5.3,0,0,1,.49-2.33,3.53,3.53,0,0,1,1.42-1.54,4.23,4.23,0,0,1,2.17-.53,5.35,5.35,0,0,1,2.43.55l-.51,1.16a9.58,9.58,0,0,0-.91-.36A3.4,3.4,0,0,0,297.68,476.8Z"/><path class="cls-2" d="M306.49,484.29h-4.85v-8.57h4.85v1.18H303v2.34h3.23v1.17H303v2.69h3.45Z"/></g></g></g></svg>