<svg xmlns="http://www.w3.org/2000/svg" width="64" height="512" viewBox="0 0 64 512"><defs><style>.cls-1{fill:#cccccb;}.cls-1,.cls-3{stroke:#666766;stroke-miterlimit:10;stroke-width:2px;}.cls-2{opacity:0.25;}.cls-3{fill:none;}.cls-4{fill:#666766;}.cls-5{fill:#666;}</style></defs><title>dledtk_1x8_c</title><g id="_1x8" data-name="1x8"><g id="Ceiling"><rect id="Limits" class="cls-1" width="64" height="512"/><g id="Grid" class="cls-2"><line id="Horizontal" class="cls-3" x1="64" y1="384" y2="384"/><line id="Horizontal-2" data-name="Horizontal" class="cls-3" x1="64" y1="256" y2="256"/><line id="Horizontal-3" data-name="Horizontal" class="cls-3" x1="64" y1="128" y2="128"/></g><g id="Marks"><polygon id="Mark" class="cls-4" points="16 127 4 127 4 126 2 126 2 124 1 124 1 112 -1 112 -1 124 -2 124 -2 126 -4 126 -4 127 -16 127 -16 129 -4 129 -4 130 -2 130 -2 132 -1 132 -1 144 1 144 1 132 2 132 2 130 4 130 4 129 16 129 16 127"/><polygon id="Mark-2" data-name="Mark" class="cls-4" points="80 127 68 127 68 126 66 126 66 124 65 124 65 112 63 112 63 124 62 124 62 126 60 126 60 127 48 127 48 129 60 129 60 130 62 130 62 132 63 132 63 144 65 144 65 132 66 132 66 130 68 130 68 129 80 129 80 127"/><polygon id="Mark-3" data-name="Mark" class="cls-4" points="16 255 4 255 4 254 2 254 2 252 1 252 1 240 -1 240 -1 252 -2 252 -2 254 -4 254 -4 255 -16 255 -16 257 -4 257 -4 258 -2 258 -2 260 -1 260 -1 272 1 272 1 260 2 260 2 258 4 258 4 257 16 257 16 255"/><polygon id="Mark-4" data-name="Mark" class="cls-4" points="80 255 68 255 68 254 66 254 66 252 65 252 65 240 63 240 63 252 62 252 62 254 60 254 60 255 48 255 48 257 60 257 60 258 62 258 62 260 63 260 63 272 65 272 65 260 66 260 66 258 68 258 68 257 80 257 80 255"/><polygon id="Mark-5" data-name="Mark" class="cls-4" points="16 383 4 383 4 382 2 382 2 380 1 380 1 368 -1 368 -1 380 -2 380 -2 382 -4 382 -4 383 -16 383 -16 385 -4 385 -4 386 -2 386 -2 388 -1 388 -1 400 1 400 1 388 2 388 2 386 4 386 4 385 16 385 16 383"/><polygon id="Mark-6" data-name="Mark" class="cls-4" points="80 383 68 383 68 382 66 382 66 380 65 380 65 368 63 368 63 380 62 380 62 382 60 382 60 383 48 383 48 385 60 385 60 386 62 386 62 388 63 388 63 400 65 400 65 388 66 388 66 386 68 386 68 385 80 385 80 383"/></g><path class="cls-5" d="M25.14,78.52h-5.5V56.4c0-2.64.06-4.74.18-6.28-.36.37-.8.78-1.32,1.24s-2.28,1.89-5.26,4.31l-2.77-3.49,10.08-7.92h4.59Z"/><path class="cls-5" d="M35.82,77.06a1.82,1.82,0,0,1,.45-1.32,1.71,1.71,0,0,1,1.28-.45,1.75,1.75,0,0,1,1.31.47,1.86,1.86,0,0,1,.44,1.3,1.89,1.89,0,0,1-.45,1.32,1.69,1.69,0,0,1-1.3.48,1.64,1.64,0,0,1-1.28-.48A1.85,1.85,0,0,1,35.82,77.06Z"/><path class="cls-5" d="M47.7,61.17a6.05,6.05,0,0,1,3.86,1.12,3.62,3.62,0,0,1,1.42,3q0,2.64-3.17,4.19a8.15,8.15,0,0,1,2.87,2.13,4,4,0,0,1,.85,2.48A4.18,4.18,0,0,1,52,77.48a6.48,6.48,0,0,1-4.22,1.28,6.85,6.85,0,0,1-4.32-1.2,4,4,0,0,1-1.54-3.39,4.4,4.4,0,0,1,.8-2.57,6.81,6.81,0,0,1,2.63-2,6.7,6.7,0,0,1-2.23-2,4.24,4.24,0,0,1-.67-2.35,3.55,3.55,0,0,1,1.46-3A6.23,6.23,0,0,1,47.7,61.17ZM44.53,74.08A2.27,2.27,0,0,0,45.38,76a3.66,3.66,0,0,0,2.32.68,3.6,3.6,0,0,0,2.35-.7,2.34,2.34,0,0,0,.84-1.89,2.45,2.45,0,0,0-.77-1.74,7.31,7.31,0,0,0-2.35-1.45l-.34-.15a6,6,0,0,0-2.22,1.49A2.8,2.8,0,0,0,44.53,74.08Zm3.15-10.79a2.9,2.9,0,0,0-1.89.58,1.92,1.92,0,0,0-.71,1.57,2.17,2.17,0,0,0,.26,1.09,2.91,2.91,0,0,0,.75.88,9,9,0,0,0,1.66.94,5.46,5.46,0,0,0,2-1.31,2.42,2.42,0,0,0,.58-1.6,1.9,1.9,0,0,0-.72-1.57A3,3,0,0,0,47.68,63.29Z"/><path class="cls-5" d="M30.72,441.54a4.62,4.62,0,0,0-3.8,1.71,9,9,0,0,0-.05,9.5,4.71,4.71,0,0,0,3.85,1.61,10.49,10.49,0,0,0,2.11-.21c.68-.15,1.38-.33,2.12-.56V456a12.85,12.85,0,0,1-4.57.76,7.3,7.3,0,0,1-5.78-2.28,9.53,9.53,0,0,1-2-6.52,10.53,10.53,0,0,1,1-4.67,7,7,0,0,1,2.83-3.07,8.6,8.6,0,0,1,4.35-1.07,10.83,10.83,0,0,1,4.85,1.1l-1,2.33a15.84,15.84,0,0,0-1.83-.72A6.79,6.79,0,0,0,30.72,441.54Z"/><path class="cls-5" d="M37.94,455.05a1.79,1.79,0,0,1,.44-1.31,1.75,1.75,0,0,1,1.29-.45,1.69,1.69,0,0,1,1.3.47,2.1,2.1,0,0,1,0,2.61,1.65,1.65,0,0,1-1.29.49,1.68,1.68,0,0,1-1.29-.48A1.86,1.86,0,0,1,37.94,455.05Z"/></g></g></svg>