<svg id="_1x1" data-name="1x1" xmlns="http://www.w3.org/2000/svg" width="64" height="64" viewBox="0 0 64 64"><defs><style>.cls-1{fill:#f1582b;stroke:#fffeff;}.cls-1,.cls-3{stroke-miterlimit:10;stroke-width:2px;}.cls-2{opacity:0.25;}.cls-3{fill:none;stroke:#fff;}.cls-4{fill:#fff;}</style></defs><title>dledtk_1x1_cr</title><g id="Crate"><rect id="Limits" class="cls-1" width="64" height="64"/><g id="Grid" class="cls-2"><line id="Diagonal" class="cls-3" x2="64" y2="64"/><line id="Diagonal-2" data-name="Diagonal" class="cls-3" x1="64" y2="64"/></g><g id="Size"><path class="cls-4" d="M29.45,24.48H26.7V13.42c0-1.32,0-2.37.09-3.14-.18.19-.4.39-.66.62s-1.14.94-2.63,2.16l-1.38-1.75,5-4h2.29Z"/><path class="cls-4" d="M34.79,23.75a1,1,0,0,1,.22-.66.89.89,0,0,1,.65-.23.85.85,0,0,1,.65.24.92.92,0,0,1,.22.65.92.92,0,0,1-.22.66,1,1,0,0,1-1.3,0A1,1,0,0,1,34.79,23.75Z"/><path class="cls-4" d="M41.88,24.48H40.5V19c0-.66,0-1.18,0-1.57-.09.09-.2.2-.33.31l-1.31,1.08-.7-.87,2.52-2h1.15Z"/></g><g id="Type"><path class="cls-4" d="M18.43,44.8a2.33,2.33,0,0,0-1.9.85A3.66,3.66,0,0,0,15.84,48a3.64,3.64,0,0,0,.67,2.39,2.33,2.33,0,0,0,1.92.81,5.22,5.22,0,0,0,1.06-.11c.34-.07.69-.17,1.06-.28V52a6.32,6.32,0,0,1-2.29.38,3.67,3.67,0,0,1-2.89-1.14,4.76,4.76,0,0,1-1-3.26,5.16,5.16,0,0,1,.49-2.33,3.46,3.46,0,0,1,1.41-1.54,4.23,4.23,0,0,1,2.17-.53,5.35,5.35,0,0,1,2.43.55l-.5,1.16c-.29-.13-.6-.25-.92-.36A3.4,3.4,0,0,0,18.43,44.8Z"/><path class="cls-4" d="M23.79,48.86v3.43h-1.4V43.72h2.42a4,4,0,0,1,2.46.62,2.23,2.23,0,0,1,.8,1.88A2.36,2.36,0,0,1,26.4,48.5l2.42,3.79H27.23l-2.05-3.43Zm0-1.16h1a2.21,2.21,0,0,0,1.41-.36,1.29,1.29,0,0,0,.44-1.08,1.15,1.15,0,0,0-.47-1,2.61,2.61,0,0,0-1.43-.32h-.93Z"/><path class="cls-4" d="M35.38,52.29l-.86-2.38H31.25l-.84,2.38H28.93l3.21-8.61h1.52l3.21,8.61ZM34.15,48.7l-.8-2.33c-.06-.16-.14-.4-.24-.74s-.18-.58-.22-.74a12.72,12.72,0,0,1-.46,1.58l-.77,2.23Z"/><path class="cls-4" d="M41,52.29h-1.4V44.92H37v-1.2h6.44v1.2H41Z"/><path class="cls-4" d="M49.63,52.29H44.79V43.72h4.84V44.9H46.19v2.34h3.23v1.17H46.19V51.1h3.44Z"/></g></g></svg>