<svg xmlns="http://www.w3.org/2000/svg" width="512" height="512" viewBox="0 0 512 512">
  <defs>
    <style>
      .cls-1 {
        fill: #f80;
        stroke: #fffeff;
        stroke-miterlimit: 10;
        stroke-width: 2px;
      }

      .cls-2 {
        fill: #fff;
      }
    </style>
  </defs>
  <title>dledtk_8x8_ph</title>
  <g id="_8x8" data-name="8x8">
    <g id="Hexadecagon">
      <polygon id="Limits" class="cls-1" points="158.03 19.49 74.98 74.98 19.49 158.03 0 256 19.49 353.97 74.98 437.02 158.03 492.51 256 512 353.97 492.51 437.02 437.02 492.51 353.97 512 256 492.51 158.03 437.02 74.98 353.97 19.49 256 0 158.03 19.49"/>
      <g id="Size">
        <path class="cls-2" d="M31.63,238.41a12.15,12.15,0,0,1,7.71,2.24,7.24,7.24,0,0,1,2.83,6q0,5.27-6.33,8.39a16.23,16.23,0,0,1,5.73,4.24,7.94,7.94,0,0,1,1.7,5,8.38,8.38,0,0,1-3.11,6.8q-3.12,2.55-8.44,2.55-5.58,0-8.65-2.39A8.07,8.07,0,0,1,20,264.43a8.74,8.74,0,0,1,1.61-5.15,13.49,13.49,0,0,1,5.26-4.07,13.19,13.19,0,0,1-4.48-4,8.5,8.5,0,0,1-1.34-4.68A7.06,7.06,0,0,1,24,240.63,12.34,12.34,0,0,1,31.63,238.41Zm-6.36,25.83A4.53,4.53,0,0,0,27,268a7.31,7.31,0,0,0,4.65,1.35A7.11,7.11,0,0,0,36.32,268,4.66,4.66,0,0,0,38,264.19a4.88,4.88,0,0,0-1.55-3.47,14.68,14.68,0,0,0-4.68-2.9l-.68-.31a12.06,12.06,0,0,0-4.46,3A5.71,5.71,0,0,0,25.27,264.24Zm6.31-21.59a5.86,5.86,0,0,0-3.78,1.16A3.86,3.86,0,0,0,26.38,247a4.56,4.56,0,0,0,.51,2.18,5.46,5.46,0,0,0,1.5,1.75,18.78,18.78,0,0,0,3.33,1.89,11,11,0,0,0,4-2.62,4.81,4.81,0,0,0,1.16-3.2,3.85,3.85,0,0,0-1.44-3.15A6,6,0,0,0,31.58,242.65Z"/>
        <path class="cls-2" d="M46.89,271.66a1.82,1.82,0,0,1,.45-1.32,1.75,1.75,0,0,1,1.29-.45,1.69,1.69,0,0,1,1.3.47,1.82,1.82,0,0,1,.45,1.3,1.85,1.85,0,0,1-.46,1.31,1.65,1.65,0,0,1-1.29.49,1.68,1.68,0,0,1-1.29-.48A1.85,1.85,0,0,1,46.89,271.66Z"/>
        <path class="cls-2" d="M58.78,255.77a6.08,6.08,0,0,1,3.85,1.11,3.62,3.62,0,0,1,1.42,3q0,2.64-3.16,4.19a8.1,8.1,0,0,1,2.86,2.13,4,4,0,0,1,.85,2.48,4.18,4.18,0,0,1-1.56,3.4,6.46,6.46,0,0,1-4.22,1.28,6.85,6.85,0,0,1-4.32-1.2A4.07,4.07,0,0,1,53,268.77a4.34,4.34,0,0,1,.81-2.57,6.66,6.66,0,0,1,2.63-2,6.75,6.75,0,0,1-2.24-2,4.24,4.24,0,0,1-.67-2.35,3.53,3.53,0,0,1,1.47-3A6.14,6.14,0,0,1,58.78,255.77ZM55.6,268.68a2.27,2.27,0,0,0,.86,1.89,3.64,3.64,0,0,0,2.32.68,3.6,3.6,0,0,0,2.35-.7,2.33,2.33,0,0,0,.83-1.89,2.41,2.41,0,0,0-.77-1.74,7.25,7.25,0,0,0-2.34-1.45l-.34-.15a6,6,0,0,0-2.23,1.49A2.85,2.85,0,0,0,55.6,268.68Zm3.15-10.79a2.85,2.85,0,0,0-1.88.58,1.9,1.9,0,0,0-.72,1.57,2.28,2.28,0,0,0,.26,1.09,2.91,2.91,0,0,0,.75.88,9.36,9.36,0,0,0,1.66.94,5.46,5.46,0,0,0,2-1.31,2.37,2.37,0,0,0,.58-1.6,1.9,1.9,0,0,0-.72-1.57A3,3,0,0,0,58.75,257.89Z"/>
      </g>
      <g id="Type">
        <path class="cls-2" d="M330.62,264.58h-2.81v-7.72h-7.9v7.72h-2.8V247.45h2.8v7h7.9v-7h2.81Z"/>
        <path class="cls-2" d="M344.82,264.58h-9.69V247.45h9.69v2.37h-6.89v4.66h6.46v2.35h-6.46v5.38h6.89Z"/>
        <path class="cls-2" d="M361.15,264.58h-3.22l-4.29-7-4.33,7h-3L352,255.7l-5.32-8.25h3.11l4,6.48,4-6.48h3l-5.36,8.3Z"/>
        <path class="cls-2" d="M374.09,264.58l-1.71-4.75h-6.56l-1.67,4.75H361.2l6.41-17.2h3l6.41,17.2Zm-2.45-7.17L370,252.75c-.12-.31-.28-.81-.49-1.48s-.34-1.16-.42-1.48a25.1,25.1,0,0,1-.93,3.16l-1.55,4.46Z"/>
        <path class="cls-2" d="M393.26,255.85a8.55,8.55,0,0,1-2.36,6.49c-1.57,1.5-3.83,2.24-6.78,2.24h-4.8V247.45h5.3a8.78,8.78,0,0,1,6.36,2.2A8.23,8.23,0,0,1,393.26,255.85Zm-3,.1c0-4.1-1.91-6.16-5.75-6.16h-2.42v12.44h2Q390.3,262.23,390.3,256Z"/>
        <path class="cls-2" d="M406.63,264.58h-9.69V247.45h9.69v2.37h-6.89v4.66h6.46v2.35h-6.46v5.38h6.89Z"/>
        <path class="cls-2" d="M417.62,249.61a4.63,4.63,0,0,0-3.8,1.71,9,9,0,0,0-.05,9.49,4.7,4.7,0,0,0,3.85,1.62,9.75,9.75,0,0,0,2.11-.22,21.59,21.59,0,0,0,2.12-.56v2.41a13,13,0,0,1-4.57.76,7.32,7.32,0,0,1-5.78-2.28q-2-2.28-2-6.52a10.47,10.47,0,0,1,1-4.68,7,7,0,0,1,2.83-3.07,8.54,8.54,0,0,1,4.34-1.06,10.77,10.77,0,0,1,4.86,1.1l-1,2.33a16,16,0,0,0-1.84-.72A6.48,6.48,0,0,0,417.62,249.61Z"/>
        <path class="cls-2" d="M436.17,264.58l-1.71-4.75h-6.55l-1.68,4.75h-3l6.41-17.2h3.05l6.41,17.2Zm-2.45-7.17-1.6-4.66c-.12-.31-.28-.81-.49-1.48s-.35-1.16-.43-1.48a26.72,26.72,0,0,1-.92,3.16l-1.55,4.46Z"/>
        <path class="cls-2" d="M448.42,255.29h6.3v8.6a17.75,17.75,0,0,1-3,.72,21.06,21.06,0,0,1-3.07.21,7.73,7.73,0,0,1-6-2.3,9.28,9.28,0,0,1-2.11-6.5,8.66,8.66,0,0,1,2.38-6.48,8.91,8.91,0,0,1,6.55-2.33,12.68,12.68,0,0,1,5.08,1l-1,2.33a9.9,9.9,0,0,0-4.17-1,5.61,5.61,0,0,0-4.34,1.72A6.68,6.68,0,0,0,443.5,256a7,7,0,0,0,1.43,4.78,5.21,5.21,0,0,0,4.13,1.63,13.36,13.36,0,0,0,2.91-.34v-4.42h-3.55Z"/>
        <path class="cls-2" d="M474.05,256A9.41,9.41,0,0,1,472,262.5a8.8,8.8,0,0,1-11.89,0A9.48,9.48,0,0,1,458,256q0-4.25,2.09-6.51a7.71,7.71,0,0,1,6-2.28,7.55,7.55,0,0,1,5.91,2.31A9.37,9.37,0,0,1,474.05,256ZM461,256a7.63,7.63,0,0,0,1.28,4.8,5.19,5.19,0,0,0,7.55,0,9.74,9.74,0,0,0,0-9.6,4.47,4.47,0,0,0-3.76-1.63,4.58,4.58,0,0,0-3.8,1.63A7.65,7.65,0,0,0,461,256Z"/>
        <path class="cls-2" d="M492,264.58h-3.43l-8.43-13.65h-.09l.06.76c.1,1.46.16,2.78.16,4v8.9h-2.54V247.45h3.4l8.4,13.58h.07c0-.18-.05-.83-.1-2s-.07-2-.07-2.64v-9H492Z"/>
      </g>
    </g>
  </g>
</svg>
