<svg xmlns="http://www.w3.org/2000/svg" width="128" height="128" viewBox="0 0 128 128"><defs><style>.cls-1{fill:#cccccb;stroke:#666766;stroke-miterlimit:10;stroke-width:2px;}.cls-2{fill:#666;}.cls-3{fill:#666766;}</style></defs><title>dledtk_2x2_c</title><g id="_2x2" data-name="2x2"><g id="Ceiling"><rect id="Limits" class="cls-1" width="128" height="128"/><g id="Size"><path class="cls-2" d="M65,49.21H41.72V45l8.84-8.89a73.8,73.8,0,0,0,5.19-5.68,13.72,13.72,0,0,0,1.86-3.15,8.55,8.55,0,0,0,.59-3.17,4.82,4.82,0,0,0-1.4-3.65A5.34,5.34,0,0,0,53,19.16a10.2,10.2,0,0,0-3.81.73,17.76,17.76,0,0,0-4.25,2.62l-3-3.63a19.26,19.26,0,0,1,5.55-3.42,16.37,16.37,0,0,1,5.75-1A11.27,11.27,0,0,1,60.87,17a8.42,8.42,0,0,1,2.88,6.71,11.68,11.68,0,0,1-.83,4.41,17.75,17.75,0,0,1-2.55,4.3,58.83,58.83,0,0,1-5.73,6l-6,5.76v.24H65Z"/><path class="cls-2" d="M68.57,47.74A1.8,1.8,0,0,1,69,46.43a2,2,0,0,1,2.59,0,2.14,2.14,0,0,1,0,2.61,2,2,0,0,1-2.58,0A1.86,1.86,0,0,1,68.57,47.74Z"/><path class="cls-2" d="M86.28,49.21H74.66V47.12l4.42-4.44a36.34,36.34,0,0,0,2.6-2.84,7,7,0,0,0,.93-1.58,4.35,4.35,0,0,0,.29-1.58,2.44,2.44,0,0,0-.69-1.83,2.71,2.71,0,0,0-1.93-.66,5.22,5.22,0,0,0-1.91.36,8.86,8.86,0,0,0-2.12,1.31L74.76,34a9.74,9.74,0,0,1,2.78-1.71,8.21,8.21,0,0,1,2.87-.5,5.66,5.66,0,0,1,3.83,1.25,4.21,4.21,0,0,1,1.44,3.36,5.86,5.86,0,0,1-.42,2.2A8.94,8.94,0,0,1,84,40.79a28.61,28.61,0,0,1-2.87,3l-3,2.89v.11h8.14Z"/></g><g id="Type"><path class="cls-3" d="M27.53,89.6a4.62,4.62,0,0,0-3.8,1.71,9,9,0,0,0-.05,9.49,4.69,4.69,0,0,0,3.85,1.62,10.31,10.31,0,0,0,2.1-.22c.68-.15,1.39-.33,2.13-.56V104a12.84,12.84,0,0,1-4.57.77,7.3,7.3,0,0,1-5.78-2.28c-1.35-1.52-2-3.7-2-6.52a10.58,10.58,0,0,1,1-4.68,7,7,0,0,1,2.83-3.07,8.58,8.58,0,0,1,4.35-1.07,10.83,10.83,0,0,1,4.85,1.1l-1,2.34a13.39,13.39,0,0,0-1.83-.72A6.53,6.53,0,0,0,27.53,89.6Z"/><path class="cls-3" d="M45.14,104.57H35.45V87.44h9.69v2.37H38.25v4.66h6.46v2.34H38.25v5.38h6.89Z"/><path class="cls-3" d="M48.84,104.57V87.44h2.8v17.13Z"/><path class="cls-3" d="M56.17,104.57V87.44H59v14.73h7.25v2.4Z"/><path class="cls-3" d="M69.17,104.57V87.44H72v17.13Z"/><path class="cls-3" d="M90.77,104.57H87.34L78.91,90.92h-.09l.06.76c.11,1.45.16,2.78.16,4v8.9H76.5V87.44h3.4L88.3,101h.07c0-.18-.05-.83-.09-2s-.07-2-.07-2.64v-9h2.56Z"/><path class="cls-3" d="M102.3,95.28h6.31v8.6a17.75,17.75,0,0,1-3,.72,21.2,21.2,0,0,1-3.08.21,7.72,7.72,0,0,1-6-2.31A9.24,9.24,0,0,1,94.45,96a8.66,8.66,0,0,1,2.38-6.48,8.94,8.94,0,0,1,6.55-2.34,12.9,12.9,0,0,1,5.09,1l-1,2.34a9.9,9.9,0,0,0-4.17-1A5.63,5.63,0,0,0,99,91.32,6.68,6.68,0,0,0,97.38,96a7,7,0,0,0,1.44,4.77,5.19,5.19,0,0,0,4.13,1.64,13.34,13.34,0,0,0,2.9-.34V97.68H102.3Z"/></g></g></g></svg>