<svg xmlns="http://www.w3.org/2000/svg" width="256" height="256" viewBox="0 0 256 256"><defs><style>.cls-1{fill:#f80;stroke:#fffeff;stroke-miterlimit:10;stroke-width:2px;}.cls-2{fill:#fff;}</style></defs><title>dledtk_4x4_po</title><g id="_4x4" data-name="4x4"><g id="Octagon"><polygon id="Limits" class="cls-1" points="37.49 37.49 0 128 37.49 218.51 128 256 218.51 218.51 256 128 218.51 37.49 128 0 37.49 37.49"/><g id="Size"><path class="cls-2" d="M130.46,73.53h-4.62V81h-5.36V73.53H104.82V69.29l15.66-22.64h5.36V69h4.62Zm-10-4.57v-8.6c0-3.06.07-5.57.23-7.52h-.19a25.68,25.68,0,0,1-2.06,3.75L110,69Z"/><path class="cls-2" d="M132.86,79.54a1.8,1.8,0,0,1,.45-1.31,1.75,1.75,0,0,1,1.29-.45,1.69,1.69,0,0,1,1.3.47,1.81,1.81,0,0,1,.44,1.29,1.85,1.85,0,0,1-.45,1.32,1.65,1.65,0,0,1-1.29.49,1.68,1.68,0,0,1-1.29-.48A1.86,1.86,0,0,1,132.86,79.54Z"/><path class="cls-2" d="M151.18,77.27h-2.31V81h-2.68V77.27h-7.83V75.15l7.83-11.32h2.68V75h2.31Zm-5-2.28v-4.3c0-1.54,0-2.79.11-3.77h-.09a13.35,13.35,0,0,1-1,1.88L140.93,75Z"/></g><g id="Type"><path class="cls-2" d="M86.56,192a9.37,9.37,0,0,1-2.09,6.51,7.58,7.58,0,0,1-5.92,2.32,7.62,7.62,0,0,1-6-2.3A9.43,9.43,0,0,1,70.51,192q0-4.25,2.09-6.51a7.68,7.68,0,0,1,6-2.28,7.55,7.55,0,0,1,5.91,2.31A9.37,9.37,0,0,1,86.56,192Zm-13.08,0a7.69,7.69,0,0,0,1.28,4.8,5.19,5.19,0,0,0,7.55,0,9.71,9.71,0,0,0,0-9.6,4.48,4.48,0,0,0-3.76-1.63,4.55,4.55,0,0,0-3.8,1.63A7.59,7.59,0,0,0,73.48,192Z"/><path class="cls-2" d="M97.53,185.61a4.63,4.63,0,0,0-3.8,1.71,9,9,0,0,0,0,9.49,4.7,4.7,0,0,0,3.85,1.62,9.75,9.75,0,0,0,2.11-.22,21.59,21.59,0,0,0,2.12-.56v2.41a13,13,0,0,1-4.57.76,7.32,7.32,0,0,1-5.78-2.28q-2-2.28-2-6.52a10.47,10.47,0,0,1,1-4.68,7,7,0,0,1,2.83-3.07,8.54,8.54,0,0,1,4.34-1.06,10.77,10.77,0,0,1,4.86,1.1l-1,2.33a16,16,0,0,0-1.84-.72A6.48,6.48,0,0,0,97.53,185.61Z"/><path class="cls-2" d="M111.37,200.58h-2.8V185.85h-5v-2.4h12.88v2.4h-5Z"/><path class="cls-2" d="M129.66,200.58,128,195.83H121.4l-1.67,4.75h-3l6.41-17.2h3l6.41,17.2Zm-2.45-7.17-1.6-4.66c-.12-.31-.28-.81-.49-1.48s-.35-1.16-.42-1.48a26.9,26.9,0,0,1-.93,3.16l-1.55,4.46Z"/><path class="cls-2" d="M141.91,191.29h6.3v8.6a17.75,17.75,0,0,1-3,.72,21.06,21.06,0,0,1-3.07.21,7.73,7.73,0,0,1-6-2.3,9.28,9.28,0,0,1-2.11-6.5,8.66,8.66,0,0,1,2.38-6.48,8.92,8.92,0,0,1,6.55-2.33,12.68,12.68,0,0,1,5.08,1l-1,2.33a9.9,9.9,0,0,0-4.17-1,5.61,5.61,0,0,0-4.34,1.72A6.68,6.68,0,0,0,137,192a7.09,7.09,0,0,0,1.43,4.78,5.21,5.21,0,0,0,4.13,1.63,13.36,13.36,0,0,0,2.91-.34v-4.42h-3.55Z"/><path class="cls-2" d="M167.54,192a9.41,9.41,0,0,1-2.09,6.51,8.8,8.8,0,0,1-11.89,0,9.48,9.48,0,0,1-2.08-6.55q0-4.25,2.1-6.51a7.68,7.68,0,0,1,6-2.28,7.54,7.54,0,0,1,5.9,2.31A9.37,9.37,0,0,1,167.54,192Zm-13.08,0a7.69,7.69,0,0,0,1.28,4.8,5.19,5.19,0,0,0,7.55,0,9.74,9.74,0,0,0,0-9.6,4.46,4.46,0,0,0-3.75-1.63,4.58,4.58,0,0,0-3.81,1.63A7.65,7.65,0,0,0,154.46,192Z"/><path class="cls-2" d="M185.49,200.58h-3.43l-8.43-13.65h-.09l.06.76c.11,1.46.16,2.78.16,4v8.9h-2.54V183.45h3.4L183,197h.07c0-.18-.05-.83-.09-2s-.07-2-.07-2.64v-9h2.56Z"/></g></g></g></svg>