<svg xmlns="http://www.w3.org/2000/svg" width="128" height="128" viewBox="0 0 128 128">
  <defs>
    <style>
      .cls-1 {
        fill: #03a9f4;
      }

      .cls-2 {
        fill: #fff;
      }
    </style>
  </defs>
  <title>dledtk_sp_1x1_water</title>
  <g id="Specials">
    <g id="Water">
      <rect id="Limits" class="cls-1" width="128" height="128"/>
      <g id="Text">
        <g>
          <path class="cls-2" d="M41.67,72.6H38.62l-2.9-10.22c-.13-.44-.28-1.09-.47-1.92S35,59,34.91,58.7c-.08.5-.21,1.15-.38,1.95s-.32,1.39-.44,1.78L31.25,72.6h-3L26,64l-2.25-8.55H26.6l2.45,10a42.61,42.61,0,0,1,.82,4.25c.09-.67.21-1.41.39-2.23s.32-1.49.46-2l2.79-10h2.78l2.86,10A39.39,39.39,0,0,1,40,69.7a30.28,30.28,0,0,1,.84-4.27l2.44-10h2.83Z"/>
          <path class="cls-2" d="M59.19,72.6l-1.71-4.76H50.93L49.25,72.6h-3l6.41-17.2h3l6.41,17.2Zm-2.45-7.17-1.61-4.66c-.11-.32-.27-.81-.48-1.48s-.35-1.16-.43-1.48A25.49,25.49,0,0,1,53.29,61l-1.54,4.47Z"/>
          <path class="cls-2" d="M70.35,72.6H67.54V57.87h-5v-2.4H75.38v2.4h-5Z"/>
          <path class="cls-2" d="M87.7,72.6H78V55.47H87.7v2.37H80.81V62.5h6.46v2.34H80.81v5.38H87.7Z"/>
          <path class="cls-2" d="M94.21,65.76V72.6H91.4V55.47h4.84a7.94,7.94,0,0,1,4.91,1.24,4.45,4.45,0,0,1,1.6,3.75q0,3.2-3.33,4.56l4.84,7.58h-3.19L97,65.76Zm0-2.32h1.94A4.42,4.42,0,0,0,99,62.71a2.65,2.65,0,0,0,.88-2.16,2.32,2.32,0,0,0-1-2.08,5.25,5.25,0,0,0-2.86-.63H94.21Z"/>
        </g>
        <g>
          <path class="cls-2" d="M121.65-8.6h2.81V6.13h5v2.4H116.62V6.13h5Z"/>
          <path class="cls-2" d="M104.3-8.6H114V8.53H104.3V6.16h6.89V1.5h-6.46V-.84h6.46V-6.22H104.3Z"/>
          <path class="cls-2" d="M97.79-1.76V-8.6h2.81V8.53H95.76a7.94,7.94,0,0,1-4.91-1.24,4.45,4.45,0,0,1-1.6-3.75Q89.25.35,92.58-1L87.74-8.6h3.19L95-1.76Zm0,2.32H95.85A4.42,4.42,0,0,0,93,1.29a2.65,2.65,0,0,0-.88,2.16,2.32,2.32,0,0,0,1,2.08,5.25,5.25,0,0,0,2.86.63h1.85Z"/>
        </g>
        <g>
          <path class="cls-2" d="M22.33-8.6h3.05l2.9,10.22c.13.44.28,1.09.47,1.92s.3,1.43.34,1.76c.08-.5.21-1.15.38-1.95s.32-1.39.44-1.78L32.75-8.6h3L38,0l2.25,8.55H37.4L35-1.45a42.61,42.61,0,0,1-.82-4.25c-.09.67-.21,1.41-.39,2.23s-.32,1.49-.46,2l-2.79,10H27.71l-2.86-10A39.39,39.39,0,0,1,24-5.7a30.28,30.28,0,0,1-.84,4.27l-2.44,10H17.87Z"/>
          <path class="cls-2" d="M4.81-8.6,6.52-3.84h6.55L14.75-8.6H17.7L11.29,8.6h-3L1.83-8.6ZM7.26-1.43,8.87,3.23c.11.32.27.81.48,1.48s.35,1.17.43,1.48A25.49,25.49,0,0,1,10.71,3l1.54-4.47Z"/>
          <path class="cls-2" d="M-6.35-8.6h2.81V6.13h5v2.4H-11.38V6.13h5Z"/>
        </g>
        <g>
          <path class="cls-2" d="M121.65,119.4h2.81v14.73h5v2.4H116.62v-2.4h5Z"/>
          <path class="cls-2" d="M104.3,119.4H114v17.13H104.3v-2.37h6.89V129.5h-6.46v-2.34h6.46v-5.38H104.3Z"/>
          <path class="cls-2" d="M97.79,126.24V119.4h2.81v17.13H95.76a7.94,7.94,0,0,1-4.91-1.24,4.45,4.45,0,0,1-1.6-3.75q0-3.19,3.33-4.56l-4.84-7.58h3.19l4.1,6.84Zm0,2.32H95.85a4.42,4.42,0,0,0-2.84.73,2.65,2.65,0,0,0-.88,2.16,2.32,2.32,0,0,0,1,2.08,5.25,5.25,0,0,0,2.86.63h1.85Z"/>
        </g>
        <g>
          <path class="cls-2" d="M22.33,119.4h3.05l2.9,10.22c.13.44.28,1.09.47,1.92s.3,1.43.34,1.76c.08-.5.21-1.15.38-2s.32-1.39.44-1.78l2.84-10.17h3L38,128l2.25,8.55H37.4l-2.45-10a42.61,42.61,0,0,1-.82-4.25c-.09.67-.21,1.41-.39,2.23s-.32,1.49-.46,2l-2.79,10H27.71l-2.86-10A39.39,39.39,0,0,1,24,122.3a30.28,30.28,0,0,1-.84,4.27l-2.44,10H17.87Z"/>
          <path class="cls-2" d="M4.81,119.4l1.71,4.76h6.55l1.68-4.76H17.7l-6.41,17.2h-3L1.83,119.4Zm2.45,7.17,1.61,4.66c.11.32.27.81.48,1.48s.35,1.17.43,1.48a25.49,25.49,0,0,1,.93-3.15l1.54-4.47Z"/>
          <path class="cls-2" d="M-6.35,119.4h2.81v14.73h5v2.4H-11.38v-2.4h5Z"/>
        </g>
      </g>
    </g>
  </g>
</svg>
